<svg width="141" height="156" viewBox="0 0 141 156" fill="none" xmlns="http://www.w3.org/2000/svg">
<path d="M140.945 127.3V131.458C138.08 132.218 135.221 133.012 132.349 133.724C130.256 134.242 128.12 134.601 126.027 135.126C123.568 135.741 121.164 136.556 118.698 137.115C115.055 137.944 111.315 138.421 107.72 139.429C103.746 140.548 99.9027 142.144 95.9768 143.449C93.394 144.306 90.7079 144.858 88.1733 145.825C80.7625 148.671 73.3378 151.089 65.3966 152.394C54.6797 154.149 44.0042 153.368 33.3149 153.631C32.7501 153.644 31.7033 152.657 31.6688 152.097C31.5862 150.495 31.7859 148.851 32.1096 147.269C32.943 143.221 35.2021 139.858 37.5094 136.535C38.57 135.009 39.5894 133.461 40.9806 131.41C41.4558 133.765 41.7727 135.319 42.1102 136.991C45.3955 136.321 48.543 135.851 51.5942 135.016C55.9402 133.828 60.2517 132.501 64.4943 130.982C67.3802 129.946 70.1765 128.599 72.9108 127.197C78.4689 124.344 83.9582 121.367 89.4682 118.418C90.9628 117.616 92.3471 116.594 93.8968 115.924C101.383 112.678 109.332 113.209 117.19 113.486C118.12 113.52 119.263 115.662 119.718 117.029C119.904 117.602 118.719 119.046 117.851 119.474C115.572 120.6 113.099 121.319 110.764 122.348C110.041 122.665 109.524 123.439 108.911 124.005L109.462 124.648C115.131 122.507 120.806 120.358 126.406 118.238C128.837 120.338 131.185 122.368 133.699 124.551C132.852 124.883 132.315 125.173 131.743 125.297C123.857 127.024 115.971 128.737 108.071 130.422C104.008 131.293 99.9095 131.997 95.8804 132.978C93.1048 133.655 90.4737 135.036 87.6774 135.513C80.177 136.791 73.2069 139.574 66.2919 142.558C65.4861 142.904 64.8594 143.691 64.1569 144.278C64.3015 144.506 64.4392 144.741 64.5839 144.969C65.4999 144.658 66.4159 144.368 67.3251 144.043C72.7799 142.089 78.2072 140.044 83.6896 138.193C87.2435 136.991 90.8801 136.038 94.496 135.022C97.0444 134.304 99.5858 133.524 102.182 133.026C110.041 131.521 117.9 130.022 125.793 128.744C130.8 127.929 135.621 124.738 140.952 127.3H140.945ZM106.06 120.78C105.578 120.78 104.972 120.621 104.503 120.8C98.1326 123.259 91.8099 125.857 85.4115 128.246C79.0337 130.629 72.6628 133.095 66.1404 135.016C57.5656 137.544 48.8323 139.561 40.1886 141.861C39.4998 142.04 38.9419 142.717 38.3221 143.159C61.6912 137.896 84.8191 132.315 106.06 120.78Z" fill="#262626"/>
<path d="M88.3524 1.65773C88.7037 1.67154 89.0618 1.68536 89.4131 1.69917C89.4131 2.19649 89.4131 2.68691 89.4131 3.18423C91.865 4.40681 94.3789 5.51888 96.7482 6.88651C98.6905 8.01239 100.757 9.16589 102.244 10.7891C104.359 13.103 105.881 15.9488 107.871 18.387C108.822 19.5544 110.282 20.3003 111.515 21.2397C112.045 23.7816 112.92 26.1024 114.222 28.4509C116.68 32.8991 118.416 37.748 120.448 42.4311L119.408 42.4795C117.658 38.943 115.696 35.4962 114.222 31.8492C112.507 27.6013 109.876 25.8468 105.578 26.3165C103.787 26.5099 101.893 25.7156 100.082 25.833C98.3116 25.9505 96.0319 22.8975 94.7026 26.5514C94.6062 26.8139 93.7246 27.0349 93.3389 26.8967C90.5633 25.9297 87.9598 25.5084 84.9225 26.4823C80.6385 27.8499 75.9137 25.0318 71.3818 28.2022C69.5428 29.487 65.555 29.3695 62.9929 26.4961H65.9338C60.7958 23.9543 55.2652 21.5367 50.0583 18.5597C44.9753 15.6518 40.5811 11.7423 34.8164 9.76682C31.3657 8.58568 29.3615 10.0224 26.8958 11.3624C22.2537 12.3156 19.3472 15.5413 16.8884 19.2297C16.0894 20.4247 16.9641 21.1223 18.2314 21.2535C22.357 21.668 26.2071 22.7869 29.3202 25.7156C31.1936 27.4769 33.4044 28.3611 35.9597 28.5407C36.2421 28.5614 36.4762 29.1692 36.738 29.5008C35.5533 29.6804 34.3687 29.8669 33.184 30.0464C32.3644 29.5906 31.476 29.2314 30.7459 28.6719C27.9909 26.5514 25.7387 23.6711 21.9506 23.1807C19.8775 22.9182 17.832 22.4899 15.7726 22.1377C15.6969 22.3725 15.6211 22.6004 15.5453 22.8353C16.2203 23.4017 16.8953 23.9681 17.5702 24.5345C18.9477 25.6604 20.3734 26.7379 21.6889 27.9397C22.0539 28.2713 22.1022 28.9482 22.3019 29.4593C20.9588 28.6719 19.5745 27.9466 18.2865 27.0763C16.9159 26.1508 16.1445 26.2336 15.4007 27.9052C12.9763 33.3343 10.3384 38.6667 7.90717 44.0888C7.01869 46.0643 6.9429 47.95 8.52012 49.96C9.66344 51.4174 10.9101 53.089 9.691 55.5963C6.75695 61.5987 4.243 67.8083 1.62577 73.9626C1.31584 74.6948 1.10233 75.7239 1.37783 76.3939C2.32141 78.701 7.83139 80.1031 9.95272 78.7148C12.0465 79.516 14.1403 80.3173 16.2341 81.1254C16.3443 80.8629 16.4613 80.6074 16.5715 80.3449C16.2685 80.0064 15.9723 79.668 15.6693 79.3364C16.5164 79.3502 17.3636 79.44 18.197 79.3502C19.0373 79.2604 20.5181 79.0808 20.5594 78.7769C20.704 77.7685 20.5594 76.5528 20.0704 75.6687C19.7535 75.0954 18.6653 74.8951 17.8871 74.6326C17.1708 74.3908 16.4062 74.2872 15.6624 74.1215C19.4574 73.1475 21.8473 74.1836 22.233 76.691C22.3639 77.5544 22.3363 78.8253 21.8198 79.3088C20.9933 80.0824 19.6985 80.3518 17.8044 81.1876C19.2232 82.0648 20.2701 82.7417 21.3445 83.3703C22.5498 84.0679 23.7758 84.7172 24.9949 85.3872C24.8227 85.5598 24.5816 85.9259 24.499 85.8914C22.3088 84.9727 19.5952 85.2145 18.0248 82.8798C17.6873 82.3756 16.9435 81.9059 16.3374 81.8437C12.6388 81.4569 8.93339 81.1945 5.22795 80.8975C4.48411 80.5037 3.75403 80.0686 2.98264 79.7232C1.15058 78.9013 -0.468006 77.7201 0.124314 75.5167C1.14365 71.7385 2.34899 67.9948 3.75403 64.3477C5.12463 60.7836 6.83273 57.3576 8.03804 54.6638C7.4526 53.0613 7.10821 52.115 6.76383 51.1757C7.04622 51.2724 7.33548 51.3691 7.61787 51.4658C7.72118 51.3621 7.81761 51.2585 7.92092 51.1549C7.39059 50.6852 6.86025 50.2086 6.32303 49.7389C6.01309 48.9308 5.40703 48.1019 5.45525 47.3145C5.5379 45.864 6.00624 44.4342 6.31618 42.9975C6.44704 42.6521 6.57786 42.3068 6.70872 41.9614C9.45681 36.56 12.2049 31.1654 14.9392 25.757C15.0494 25.5429 15.1252 25.2114 15.0425 25.0111C13.1898 20.8944 16.0068 17.7378 18.0799 15.265C20.2839 12.6402 23.8722 10.9825 27.1231 9.49744C30.3326 8.0262 33.8728 7.29403 37.2683 6.23723C37.2752 6.54114 37.289 6.85197 37.2959 7.15589C36.2903 7.51506 35.2778 7.86733 33.9279 8.35084C34.6235 8.74455 34.8783 8.9863 35.1607 9.04156C40.1541 10.0224 44.0386 13.0063 48.1298 15.7899C52.0832 18.4768 56.4842 20.5076 60.7338 22.7455C63.3648 24.1269 66.0578 25.391 68.7646 26.6274C69.2054 26.8277 69.8528 26.7102 70.3693 26.5928C71.9879 26.2198 73.572 25.5153 75.2043 25.4048C78.0281 25.2114 81.0793 26.0195 83.6621 25.2114C86.6168 24.2858 89.1651 24.3065 91.9408 25.2805C92.3609 25.4255 93.029 24.8522 94.131 24.3825C82.078 18.5735 71.795 10.6233 59.1704 7.31475C62.3592 7.60486 65.5275 8.06073 68.2962 9.3662C74.0817 12.0946 79.6329 15.3133 85.315 18.2558C90.4875 20.9358 95.2674 24.6104 102.286 24.7417C100.536 23.5122 99.3654 22.6143 98.1257 21.8268C95.9493 20.4454 93.4698 19.4162 91.5757 17.7239C87.1678 13.7799 83.0009 9.62867 76.7264 8.77908C74.5982 8.48898 72.4631 7.9364 70.452 7.18351C68.0207 6.27867 65.7203 5.03537 63.3648 3.93712C63.475 3.67464 63.5852 3.41216 63.6954 3.1566C64.2533 3.24639 64.8318 3.26022 65.3553 3.44671C69.0056 4.70383 72.5664 6.28558 76.2994 7.21115C83.1249 8.90342 88.5866 12.5435 93.215 17.717C94.0483 18.6495 95.3432 19.2504 96.5347 19.7547C99.09 20.846 102.052 21.371 102.458 24.3549C104.428 24.645 106.088 24.8867 107.699 25.1285C105.709 21.8959 103.89 18.8774 101.983 15.9142C101.707 15.4791 101.039 15.2788 100.529 15.0163C93.0083 11.1828 85.4804 7.34929 77.9593 3.52269C78.1315 3.17733 78.2967 2.82505 78.4689 2.47969C82.7254 3.74371 86.1691 6.71382 90.0812 8.73074C94.2136 10.8582 98.477 12.7162 102.685 14.6917C102.871 14.5466 103.057 14.4016 103.243 14.2496C101.831 12.6057 100.722 10.4506 98.9522 9.42836C95.0815 7.19042 90.887 5.51888 86.8234 3.61939C87.3331 2.97011 87.8497 2.32083 88.3593 1.67155L88.3524 1.65773ZM108.567 22.7179C107.148 18.9465 105.068 16.4461 103.47 16.3563C105.227 18.2282 105.681 21.1085 108.567 22.7179Z" fill="#262626"/>
<path d="M140.945 127.3C135.607 124.738 130.793 127.936 125.786 128.744C117.893 130.022 110.027 131.521 102.176 133.026C99.579 133.524 97.0375 134.304 94.4891 135.022C90.8732 136.038 87.2366 136.998 83.6827 138.193C78.1934 140.044 72.7661 142.089 67.3182 144.043C66.409 144.368 65.493 144.665 64.577 144.969C64.4324 144.741 64.2946 144.506 64.15 144.278C64.8594 143.698 65.4792 142.911 66.2851 142.558C73.2 139.574 80.1702 136.791 87.6706 135.513C90.4669 135.036 93.0979 133.662 95.8735 132.978C99.9026 131.99 104.008 131.286 108.064 130.422C115.957 128.737 123.85 127.017 131.736 125.297C132.308 125.173 132.845 124.876 133.692 124.551C131.172 122.368 128.823 120.345 126.399 118.238C120.799 120.358 115.124 122.5 109.456 124.648L108.905 124.005C109.518 123.439 110.041 122.665 110.757 122.348C113.092 121.325 115.565 120.6 117.844 119.474C118.712 119.046 119.897 117.602 119.711 117.029C119.263 115.668 118.113 113.52 117.183 113.486C109.332 113.209 101.383 112.678 93.8899 115.924C92.3471 116.594 90.9559 117.616 89.4613 118.418C83.9513 121.367 78.4621 124.344 72.9039 127.197C70.1696 128.599 67.3802 129.946 64.4874 130.982C60.2448 132.501 55.9333 133.821 51.5873 135.016C48.5362 135.851 45.3886 136.321 42.1033 136.991C41.7658 135.319 41.4558 133.765 40.9737 131.41C39.5825 133.461 38.5631 135.016 37.5025 136.535C35.1883 139.858 32.9292 143.221 32.1027 147.269C31.779 148.851 31.5793 150.495 31.6619 152.097C31.6895 152.657 32.7432 153.644 33.308 153.631C43.9973 153.361 54.6728 154.149 65.3897 152.394C73.3378 151.096 80.7556 148.671 88.1665 145.825C90.701 144.851 93.3871 144.306 95.9699 143.449C99.8958 142.144 103.739 140.548 107.713 139.429C111.301 138.421 115.041 137.944 118.692 137.115C121.157 136.556 123.568 135.741 126.02 135.126C128.114 134.601 130.249 134.242 132.342 133.724C135.221 133.012 138.073 132.218 140.938 131.458C140.959 131.79 140.972 132.121 140.993 132.446C137.68 133.531 134.367 134.608 131.048 135.692L130.834 135.637L130.641 135.741C125.496 136.922 120.345 138.103 115.2 139.284C114.511 139.284 113.822 139.284 113.14 139.284C107.561 141.163 101.976 143.042 96.3969 144.927C96.149 145.003 95.9079 145.079 95.66 145.155C93.4629 145.812 91.2589 146.44 89.0687 147.124C82.7943 149.086 76.5267 151.068 70.2522 153.043C70.0732 153.037 69.9216 153.085 69.7839 153.202C66.6777 153.713 63.5852 154.528 60.4583 154.667C53.805 154.971 47.138 154.895 40.4778 155.053C38.9764 155.088 37.4611 155.364 35.9941 155.717C32.3162 156.601 30.2569 155.42 29.9538 152.132C30.1811 149.728 30.4084 147.317 30.6357 144.914C30.9043 144.175 31.0627 143.373 31.4622 142.71C33.7281 138.918 34.9197 134.373 39.059 131.88C39.4861 131.624 39.6445 130.913 39.9269 130.415C40.4503 130.395 40.9737 130.374 41.4972 130.353C41.9655 131.465 42.3168 132.66 42.9573 133.662C43.3568 134.29 44.1626 134.905 44.8651 135.029C45.6159 135.161 46.4561 134.615 47.2757 134.504C54.5213 133.503 61.3468 131.113 67.8416 127.88C76.0859 123.777 84.2268 119.447 92.3816 115.157C96.0732 113.216 99.8751 111.987 104.111 112.256C105.227 112.325 106.37 111.987 107.506 111.835C111.253 112.042 115.007 112.187 118.74 112.539C119.305 112.595 119.897 113.589 120.248 114.266C120.896 115.503 121.385 116.822 121.984 118.217C123.217 117.658 124.119 117.25 125.014 116.843C125.531 116.843 126.047 116.856 126.564 116.863C128.1 118.003 129.877 118.936 131.13 120.331C133.844 123.363 136.943 125.573 141 126.271C140.986 126.609 140.966 126.948 140.952 127.293L140.945 127.3Z" fill="#0D0D0D"/>
<path d="M9.85629 129.296C7.26661 129.511 7.28729 126.81 5.95802 125.615C4.95934 124.717 4.71137 122.976 4.13283 121.609C4.13283 121.263 4.13283 120.918 4.13283 120.579C4.66316 118.231 5.22106 115.889 5.69629 113.534C5.84093 112.795 5.93733 111.945 5.71693 111.248C4.25679 106.503 7.16332 103.235 9.49127 99.768C10.1594 99.6298 10.8343 99.4986 11.5024 99.3605C11.4611 101.046 11.4817 102.738 11.3577 104.423C11.2131 106.392 10.9514 108.354 10.7241 110.315C10.6966 110.557 10.5519 110.778 10.4073 111.151C9.89072 110.882 9.43618 110.64 9.07115 110.447C8.28598 111.289 7.56966 111.966 6.97734 112.747C6.75006 113.044 6.6192 113.783 6.80516 113.969C7.92781 115.095 9.14688 116.117 10.545 117.361C11.0478 115.655 10.9858 113.928 13.3 115.199C14.1747 115.682 16.2065 115.434 16.8539 114.722C20.7591 110.447 23.6312 105.729 21.7922 99.4848C21.3928 98.131 21.4616 96.639 21.3101 95.2161L21.5236 95.1954L21.7302 95.2368C22.2674 95.8516 23.1697 96.4042 23.2799 97.088C24.2097 102.987 24.1959 108.692 19.6365 113.43C17.281 115.876 16.2547 118.715 18.1419 122.009C18.2865 122.258 18.0454 122.721 17.9903 123.087C17.7906 123.121 17.584 123.163 17.3843 123.197C16.8126 121.519 16.2341 119.847 15.5247 117.768C14.5329 117.879 12.8868 117.582 12.0603 118.266C10.5382 119.53 9.64969 119.025 8.59592 117.941C7.85896 117.181 7.14264 116.401 6.41257 115.627C6.13018 115.772 5.84092 115.917 5.55853 116.069C5.82026 118.017 5.79271 120.068 6.42636 121.885C7.31484 124.448 8.6992 126.831 9.86318 129.296H9.85629ZM10.8894 101.889L9.79432 101.55C8.51326 104.334 6.26794 106.758 6.29549 110.018C6.6192 110.143 6.94289 110.274 7.2666 110.398C8.4719 107.559 9.6841 104.72 10.8894 101.889Z" fill="#262626"/>
<path d="M121.481 57.4681L119.945 61.6608C119.718 60.9079 119.497 60.162 119.27 59.4091L119.401 42.4725L120.441 42.4242C120.758 46.0712 121.088 49.7113 121.391 53.3583C121.474 54.3737 121.46 55.4029 121.488 56.4251C121.488 56.7705 121.488 57.1159 121.488 57.4612L121.481 57.4681Z" fill="#040404"/>
<path d="M103.932 89.0203C103.87 90.5676 103.808 92.1148 103.746 93.662C103.284 93.662 102.816 93.662 102.355 93.662C102.417 89.7318 102.396 85.7878 102.609 81.8644C102.658 80.9665 103.498 80.11 103.973 79.2328C104.435 79.2673 104.903 79.295 105.364 79.3295C104.889 81.008 104.414 82.6864 103.932 84.3649C103.932 85.919 103.932 87.4662 103.932 89.0203Z" fill="#0D0D0D"/>
<path d="M106.06 120.773C84.8191 132.308 61.6912 137.896 38.3221 143.152C38.9419 142.71 39.4998 142.033 40.1886 141.854C48.8323 139.554 57.5656 137.537 66.1404 135.009C72.6628 133.088 79.0337 130.623 85.4115 128.24C91.8099 125.85 98.1326 123.259 104.503 120.794C104.972 120.614 105.578 120.773 106.06 120.773Z" fill="#0D0D0D"/>
<path d="M88.3524 1.65773C87.8428 2.30701 87.3262 2.95629 86.8165 3.60557C82.1537 2.81124 77.4841 2.01 72.8213 1.21567C71.6642 1.21567 70.5071 1.21567 69.3431 1.21567C67.2424 1.22948 65.1487 1.25021 63.048 1.26402C62.8965 1.34691 62.7449 1.42288 62.5934 1.50577C59.8591 1.92711 57.1179 2.27247 54.4042 2.79052C52.1245 3.22567 49.8792 3.81969 47.627 4.3999C44.1695 5.29093 40.7327 6.23032 37.2821 7.14898C37.2752 6.84507 37.2614 6.53424 37.2545 6.23032C44.1351 4.34465 50.9949 2.40371 57.8962 0.614743C59.1841 0.283196 60.6305 0.552574 62.0011 0.545666C64.8249 0.559481 67.6419 0.635459 70.4657 0.566387C72.8212 0.511129 75.1699 0.297008 77.5254 0.158863C81.1344 0.656184 84.7434 1.16041 88.3524 1.65773Z" fill="#0D0D0D"/>
<path d="M111.508 21.2397C110.275 20.3003 108.815 19.5544 107.865 18.387C105.867 15.9488 104.352 13.103 102.237 10.7891C100.757 9.16589 98.6905 8.00548 96.7413 6.88651C94.372 5.51888 91.8581 4.40681 89.4062 3.18423C90.5977 3.28784 91.7892 3.39145 92.9877 3.49506C95.0883 4.53114 97.1821 5.58104 99.3172 6.54805C99.4756 6.61712 99.9233 6.04383 100.233 5.76754C100.922 6.24414 101.618 6.72073 102.306 7.20423C101.983 7.27331 101.666 7.34929 101.046 7.48743C105.103 10.3401 107.465 14.1667 109.276 18.4216C109.442 18.8153 110.22 18.9465 110.716 19.1952C110.985 19.879 111.246 20.5628 111.515 21.2466L111.508 21.2397Z" fill="#DCCBA6"/>
<path d="M110.709 19.1883C110.213 18.9327 109.435 18.8015 109.27 18.4147C107.465 14.1598 105.096 10.3401 101.039 7.48053C101.659 7.34238 101.983 7.2664 102.299 7.19733C106.763 10.0224 108.898 14.4914 110.702 19.1883H110.709Z" fill="#262626"/>
<path d="M100.226 5.76063C99.9164 6.03691 99.4687 6.61022 99.3103 6.54115C97.1752 5.57413 95.0814 4.51733 92.9808 3.48815C92.9808 3.22568 92.9946 2.95629 92.9946 2.69381C95.4052 3.71608 97.8158 4.73836 100.226 5.76063Z" fill="#262626"/>
<path d="M77.5185 0.15196C75.163 0.297012 72.8143 0.511133 70.4588 0.559484C67.6419 0.621649 64.818 0.552577 61.9942 0.538763C62.8551 0.352268 63.7161 0 64.577 0C68.8885 0 73.2001 0.096702 77.5116 0.15196H77.5185Z" fill="#262626"/>
<path d="M93.0014 2.69381C93.0014 2.95629 92.9877 3.22568 92.9877 3.48815C91.7961 3.38454 90.6046 3.28094 89.4062 3.17733C89.4062 2.68001 89.4062 2.18959 89.4062 1.69227C90.6046 2.02382 91.803 2.35536 92.9946 2.69381H93.0014Z" fill="#0D0D0D"/>
<path d="M119.394 42.4795C119.353 48.1227 119.305 53.7728 119.263 59.416C119.126 59.4781 118.981 59.5334 118.836 59.5887V45.6982C118.292 47.9085 117.438 50.2777 117.975 52.2808C119.139 56.6324 116.99 59.8511 115.22 63.2633C114.49 64.6586 113.443 65.895 112.541 67.2004C112.693 67.3109 112.851 67.4215 113.003 67.532C113.609 67.304 114.215 67.0761 114.821 66.8551C114.167 68.0984 113.74 69.5558 112.81 70.5366C111.074 72.3739 109.111 74.0041 107.121 75.5789C106.404 76.1453 105.344 76.6426 104.476 76.5804C99.9302 76.242 95.6738 77.4646 91.3967 78.6664C84.5368 78.6802 77.6769 78.6941 70.817 78.7079C70.4451 77.9895 70.0663 77.2781 69.6943 76.5597C70.5208 75.0401 71.2302 73.4377 72.1876 72.0079C74.1781 69.0308 75.101 65.9088 75.0459 62.2272C74.9701 57.3024 74.7842 52.5364 72.1945 48.1503C70.5208 45.3183 68.2205 44.2615 65.1555 45.5394C62.2422 46.755 59.3976 48.1848 56.684 49.7873C54.3629 51.1549 54.3422 52.1427 56.0021 54.3046C57.1385 55.7828 58.2888 57.254 59.4321 58.7253C59.2668 58.8979 59.0946 59.0706 58.9293 59.2433C57.2281 57.8964 55.5338 56.5495 53.8326 55.2026C53.6742 55.4443 53.5158 55.6792 53.3505 55.9209C56.0021 57.6754 57.3865 61.4122 61.3881 60.6455C61.6429 62.8489 61.8633 64.7414 62.0768 66.634C61.8013 66.8274 61.5327 67.0139 61.2572 67.2073C59.2048 65.1835 57.1454 63.1597 55.093 61.1359C54.8863 61.3638 54.6797 61.5987 54.4731 61.8266C56.7873 64.251 59.1015 66.6755 61.4088 69.093C61.5741 68.941 61.7325 68.7822 61.8978 68.6302V71.1928C59.7695 70.7231 57.8273 70.2949 56.1743 69.9288C55.9883 68.9065 55.8644 68.2434 55.7404 67.5803C53.8119 67.974 53.9015 65.7983 52.7444 65.218C52.524 60.8596 52.8339 56.3906 51.9523 52.1772C50.8159 46.7481 48.7221 41.5193 47.0416 36.2077C46.7592 35.3719 46.4148 34.55 46.2219 33.6866C46.1531 33.3688 46.4492 32.9682 46.5732 32.6021C46.828 32.5883 47.2688 32.6367 47.3033 32.5469C48.605 28.7893 51.1671 28.4094 54.6177 29.4317C56.1536 29.8876 58.2268 29.8807 57.7653 27.0625C58.5298 26.9175 59.2117 26.7931 59.8935 26.6619C59.0051 26.0264 57.8204 25.6051 57.3245 26.0126C55.1688 27.8016 53.502 26.1162 51.6699 25.5015C46.6214 21.9512 41.5592 18.4285 36.5382 14.8436C33.6455 12.7784 30.739 10.8305 26.9165 11.4522L26.8545 11.3762C29.3202 10.0362 31.3244 8.59951 34.775 9.78064C40.5398 11.7561 44.934 15.6656 50.0169 18.5735C55.2238 21.5506 60.7545 23.9681 65.8925 26.5099H62.9516C65.5137 29.3834 69.5015 29.5077 71.3405 28.216C75.8724 25.0456 80.5972 27.8707 84.8811 26.4961C87.9185 25.5222 90.522 25.9435 93.2976 26.9106C93.6833 27.0418 94.5649 26.8208 94.6613 26.5652C95.9906 22.9113 98.2703 25.9574 100.04 25.8468C101.859 25.7294 103.746 26.5238 105.537 26.3304C109.827 25.8676 112.458 27.6151 114.18 31.8631C115.654 35.5101 117.617 38.9568 119.367 42.4933L119.394 42.4795Z" fill="#DCCBA6"/>
<path d="M9.85629 129.296C8.68542 126.837 7.30794 124.448 6.41946 121.885C5.78582 120.068 5.82025 118.017 5.55164 116.069C5.83402 115.924 6.12329 115.779 6.40567 115.627C7.12885 116.401 7.84518 117.181 8.58902 117.941C9.6428 119.025 10.5313 119.536 12.0534 118.266C12.8799 117.575 14.526 117.879 15.5178 117.768C16.2272 119.847 16.7989 121.519 17.3774 123.197C17.5771 123.163 17.7837 123.121 17.9835 123.087C18.0454 122.721 18.2796 122.258 18.135 122.009C16.2478 118.715 17.2741 115.876 19.6296 113.43C24.189 108.692 24.2028 102.987 23.273 97.088C23.1628 96.4042 22.2606 95.8516 21.7234 95.2368C21.8267 94.705 21.9231 94.1731 22.0333 93.5929C25.7043 95.1816 32.3989 94.1593 34.6235 91.652H28.7485C28.5763 91.804 28.0185 92.2875 27.4675 92.7779C27.4055 92.5499 27.3435 92.3151 27.2815 92.0872C26.3724 92.0872 25.4357 91.9283 24.5679 92.1148C22.4466 92.5776 20.0842 91.058 18.748 91.4379C16.2892 92.1424 15.2216 90.7886 13.6513 89.9804C12.4391 88.2744 15.4902 89.5107 14.6775 87.9497C14.1196 87.8116 13.3276 87.6182 12.5355 87.4179C11.468 85.9881 10.4073 84.5514 9.33973 83.1216C9.14688 83.2252 8.96095 83.3219 8.7681 83.4255C8.71989 83.909 8.67166 84.3856 8.62345 84.8691C8.38239 84.876 8.14134 84.8898 7.90028 84.8967C7.79697 84.0402 7.70051 83.1837 7.56965 82.1062C6.38961 83.4784 6.48606 85.2789 7.85895 87.5077C7.82452 87.8254 7.79007 88.15 7.76252 88.4678C6.02 88.2951 5.26238 87.3004 5.22106 85.5805C5.20728 84.9658 4.91801 84.3649 4.75271 83.757C5.00066 82.8108 3.39588 81.5675 5.22106 80.8836C8.9265 81.1876 12.6388 81.45 16.3374 81.8299C16.9366 81.8921 17.6804 82.3618 18.0248 82.866C19.5952 85.2006 22.3088 84.9589 24.499 85.8775C24.5816 85.9121 24.8227 85.5529 24.9949 85.3733C25.6836 85.3319 26.3724 85.2905 27.068 85.249H26.9785C27.6466 85.6289 28.3215 86.0157 28.9896 86.3956C29.4993 86.7893 30.009 87.183 30.2913 87.3971C31.1385 86.2505 32.027 85.5115 32.268 84.5997C32.516 83.6465 32.1441 82.5345 31.9994 81.0563C31.2005 82.1477 30.7665 82.7279 30.3395 83.315C29.5543 81.2704 27.9358 80.6419 25.9109 80.6902C25.8834 80.5314 25.8903 80.3794 25.9385 80.2274C26.1933 80.2482 26.517 80.3794 26.6892 80.2689C30.801 77.7063 31.7721 78.0724 35.0919 81.5951C37.0617 83.6811 36.4831 85.8637 36.0699 87.9221C35.9252 88.6474 33.7144 88.9513 32.4264 89.4555C32.6124 89.5729 33.0188 90.0357 33.3907 90.0081C35.9735 89.8216 38.1292 89.9735 38.0328 93.4962C37.9984 94.7119 38.6182 95.9345 38.8386 97.1709C39.1692 99.022 39.92 100.486 41.7176 101.336C40.8842 98.4487 40.1197 95.7963 39.3552 93.137C39.0521 92.0871 39.1004 90.6435 38.4185 90.0564C37.041 88.8822 37.3165 87.7701 37.7298 86.4163C38.1223 85.1246 38.3221 83.7778 38.7698 82.5137C39.1692 81.3879 39.7822 80.3311 40.2988 79.2466C40.6982 85.2628 44.2522 89.2621 47.5857 93.4548C44.2177 86.8376 39.548 80.4968 43.5359 72.0493C45.0787 78.0033 52.0694 85.4355 53.7431 85.3802C52.1658 83.7708 51.3118 81.4707 49.7897 79.7716C46.0223 75.5927 44.3004 73.7554 46.4699 68.7476C47.1518 68.6717 47.8336 68.5888 48.5155 68.5128C48.3295 68.3056 48.1436 68.1053 47.9576 67.898C48.6188 67.0001 49.2869 66.1022 49.955 65.2042C50.6782 65.4045 51.4082 65.6048 52.1314 65.8052C53.0887 68.6647 56.56 71.8006 58.8948 71.9111C62.5934 72.0838 63.2821 72.8505 63.413 76.9327C60.4285 74.8836 58.7456 73.9695 58.3645 74.1905C61.6498 78.1276 65.3897 81.7678 68.3651 86.8239C66.2437 86.3956 65.004 86.14 63.7574 85.8914C63.6678 86.1538 63.5714 86.4232 63.4819 86.6857C64.8869 87.2383 66.2919 87.7978 67.7521 88.3711V95.4717C65.8718 94.7464 64.3566 94.1593 62.8413 93.5722C62.7518 93.8071 62.6623 94.0419 62.5728 94.2767C67.4077 96.342 68.1998 98.1517 66.4435 101.433C64.3635 100.231 62.1388 99.2223 60.2585 97.7787C58.3783 96.3282 56.8355 94.4425 55.1481 92.7433C54.9139 92.9644 54.6866 93.1854 54.4524 93.4064C56.133 95.2161 57.6345 97.2676 59.5561 98.7803C61.5396 100.341 63.9365 101.37 66.5744 102.869C65.3002 104.05 64.2051 105.052 63.1237 106.054C64.9902 107.249 64.9351 108.782 62.7587 110.067C59.2874 112.125 56.071 114.998 51.36 113.652C51.3944 113.949 51.4289 114.246 51.4564 114.549C52.7582 114.743 54.0599 114.929 55.3685 115.123C55.4029 115.33 55.4374 115.537 55.4649 115.737C51.1121 116.85 47.3239 120.469 42.2203 118.114C42.9642 118.825 43.7012 119.543 44.8514 120.649C43.1364 121.609 41.8416 122.362 40.5261 123.059C38.1706 124.309 37.9984 124.496 37.8331 126.278C36.6828 125.788 35.5258 125.297 34.3756 124.807C34.2998 124.917 34.2172 125.035 34.1414 125.145C34.6235 125.774 35.1125 126.402 35.5946 127.031C35.4707 127.259 35.3536 127.487 35.2296 127.715C33.0463 127.114 30.8561 126.506 28.7003 125.912C30.2638 128.668 30.0227 130.678 27.867 131.417C26.3517 131.935 24.74 132.184 23.149 132.418C21.4134 132.674 20.0015 132.135 19.051 130.498C18.7411 129.966 18.073 129.642 17.5633 129.22C17.4118 129.379 17.2603 129.531 17.1088 129.69C17.4807 130.491 17.8595 131.293 18.3967 132.446C17.1019 132.446 16.1032 132.446 15.1114 132.446C14.4089 131.603 13.7064 130.761 12.997 129.918C12.9419 129.234 12.8868 128.557 12.7697 127.141C11.6333 128.219 11.0203 128.799 10.4073 129.379C10.2282 129.345 10.056 129.31 9.87697 129.276L9.85629 129.296ZM30.002 104.575C30.5806 101.591 28.3766 100.134 27.0129 98.2139C26.7168 98.3796 26.4275 98.5523 26.1313 98.7181C27.433 100.659 28.7347 102.593 30.0365 104.534C30.0365 104.879 30.0365 105.225 30.0365 105.57L30.0227 105.584C28.7623 104.707 27.5019 103.829 26.2346 102.945C26.0762 103.104 25.9178 103.263 25.7594 103.422C26.3448 104.126 26.9509 104.81 27.5019 105.542C28.2595 106.544 29.2513 107.47 29.6715 108.609C30.925 111.973 31.8548 115.454 33.0945 118.825C33.6799 120.407 34.6855 121.837 35.5051 123.335C35.753 123.225 36.001 123.108 36.2421 122.997C35.3536 120.883 34.4651 118.777 33.5766 116.663C36.1387 118.487 37.4887 121.643 40.7878 122.009C38.8662 119.619 36.7655 117.561 35.3742 115.095C34.3342 113.265 34.1552 110.93 33.6937 108.796C33.2323 106.661 32.3713 104.969 29.9951 104.568L30.002 104.575ZM34.5547 98.2691C34.3067 98.5247 34.0519 98.7871 33.8039 99.0427C34.5615 99.5746 35.5464 99.9476 36.0285 100.666C37.0961 102.248 38.267 103.899 38.756 105.701C40.1335 110.73 42.0413 115.219 47.5168 117.147C47.3722 116.435 47.014 115.869 46.5457 115.427C45.2371 114.204 43.4325 113.279 42.6543 111.793C41.2217 109.072 40.3608 106.047 39.307 103.132C38.4254 100.707 36.7449 99.2154 34.5547 98.2691ZM49.404 89.2276C49.2249 89.3933 49.0527 89.5591 48.8736 89.718C49.6381 90.8646 50.444 91.9835 51.1672 93.1508C52.9786 96.0864 54.6798 99.098 56.5945 101.964C57.0973 102.724 58.2268 103.063 59.067 103.588C58.1303 101.64 56.9113 100.265 55.9264 98.7388C54.5489 96.5976 53.4194 94.2906 52.0281 92.1562C51.3187 91.0649 50.2787 90.1946 49.3902 89.2207L49.404 89.2276ZM63.6816 90.9544C63.6541 90.7817 63.6265 90.609 63.6059 90.4294C62.1251 88.8546 60.5272 87.3833 59.2048 85.6841C57.8617 83.9573 56.87 81.9543 55.5545 80.1929C55.1412 79.6403 54.1907 79.4953 53.4882 79.1568C55.3685 82.7279 57.3796 85.8983 59.742 88.7717C60.6305 89.8492 62.3455 90.2429 63.6816 90.9406V90.9544ZM48.605 111.42C49.032 111.262 49.459 111.096 49.8861 110.937C47.868 105.473 45.85 100.01 43.832 94.5461L42.7645 94.9537C44.7067 100.445 46.6559 105.936 48.5981 111.42H48.605ZM30.0296 123.059C30.2707 122.99 30.5048 122.921 30.7459 122.852C29.1824 117.623 27.6259 112.387 26.0624 107.159C25.7525 112.933 27.7636 118.038 30.0227 123.066L30.0296 123.059ZM24.01 89.2966C20.6213 87.3695 17.1708 85.4079 13.6995 83.4393C14.2367 86.6581 20.0428 90.7541 24.01 89.2966ZM35.6153 106.143C34.2103 100.072 32.0545 96.494 29.3959 96.5561C32.9499 98.8631 31.9994 103.491 35.6153 106.143ZM21.9506 117.112C21.6889 117.084 21.4272 117.057 21.1586 117.029C20.5112 119.916 21.3445 122.804 21.8198 125.677C21.9162 126.264 22.4672 126.775 22.8047 127.321C22.9562 127.21 23.1077 127.1 23.2593 126.982C22.8185 123.695 22.3845 120.407 21.9437 117.119L21.9506 117.112ZM15.38 128.171C14.7602 125.504 14.1403 122.831 13.5273 120.193C11.2544 121.609 12.2945 126.319 15.38 128.171ZM55.4787 76.0555C55.6233 75.8621 55.7748 75.6687 55.9195 75.4822C53.5433 73.5412 51.1671 71.5934 48.481 69.3969C49.466 73.5758 52.8959 74.3287 55.4787 76.0624V76.0555ZM50.2993 102.683C50.6575 102.51 51.0087 102.337 51.3669 102.165L48.9563 97.3435C48.6257 97.5093 48.2882 97.682 47.9576 97.8478C48.7359 99.4572 49.5211 101.067 50.2993 102.683Z" fill="#DCCBA6"/>
<path d="M49.9412 65.218C49.2731 66.116 48.6119 67.0139 47.9438 67.9119C48.1298 68.1191 48.3158 68.3194 48.5017 68.5266C47.8199 68.6026 47.138 68.6855 46.4561 68.7615C44.9547 69.9978 43.102 70.9856 42.0206 72.519C40.4159 74.7984 39.2381 77.4093 38.1155 79.9788C37.4267 81.5675 37.1581 82.0302 35.8495 80.3863C32.9636 76.76 28.6521 78.1208 24.8916 77.1745C25.3186 78.4385 25.6147 79.3433 25.9178 80.2413C25.8696 80.3932 25.8627 80.5452 25.8903 80.704L25.9178 80.8008C25.4219 81.3257 24.926 81.8507 24.2579 82.5483C25.5183 82.9006 26.393 83.1423 27.2677 83.391C27.192 84.0126 27.1162 84.6412 27.0404 85.2628C26.3517 85.3043 25.663 85.3457 24.9673 85.3872C23.7482 84.7172 22.5154 84.0679 21.317 83.3703C20.2426 82.7486 19.1957 82.0717 17.7768 81.1876C19.6709 80.3518 20.9657 80.0824 21.7922 79.3088C22.3088 78.8253 22.3363 77.5474 22.2055 76.691C21.8198 74.1836 19.4298 73.1475 15.6349 74.1215C16.3787 74.2872 17.1432 74.3908 17.8595 74.6326C18.6378 74.8951 19.7191 75.0885 20.0428 75.6687C20.5318 76.5528 20.6765 77.7685 20.5318 78.7769C20.4905 79.0808 19.0097 79.2604 18.1694 79.3502C17.336 79.44 16.482 79.3502 15.6418 79.3364C15.1872 78.8322 14.7257 78.328 14.6913 78.2865C12.8523 78.4523 11.3853 78.5904 9.92519 78.7217C7.80386 80.11 2.30076 78.7009 1.3503 76.4008C1.0748 75.7308 1.2883 74.6948 1.59824 73.9695C4.21546 67.8152 6.72941 61.6056 9.66346 55.6032C10.8894 53.0959 9.6359 51.4243 8.49259 49.9669C6.91536 47.9569 6.99112 46.0712 7.8796 44.0957C10.3109 38.6736 12.9556 33.3412 15.3731 27.9121C16.117 26.2406 16.8884 26.1577 18.259 27.0832C19.5469 27.9536 20.9313 28.6788 22.2744 29.4662C22.6325 29.487 22.9975 29.5077 23.3557 29.5353C23.948 30.0464 24.4921 30.6474 25.1533 31.048C27.3366 32.3535 29.6783 33.4172 31.7308 34.8884C33.3287 36.035 34.5753 37.6858 36.0217 39.0604C36.3867 39.4126 36.9239 39.5922 37.5232 39.9238C38.4943 35.2821 36.4763 32.3535 33.129 30.0326L33.1634 30.0603C34.348 29.8807 35.5326 29.6942 36.7173 29.5146C37.7711 29.5284 38.8249 29.5422 39.8786 29.556C40.9462 29.8876 42.0137 30.2537 43.0951 30.5438C44.4588 30.9098 46.4355 30.1915 46.587 32.6021C46.4561 32.9682 46.1669 33.3688 46.2357 33.6866C46.4217 34.5431 46.773 35.365 47.0553 36.2077C46.7867 36.5461 46.222 36.9675 46.2908 37.2231C47.0278 40.0205 47.6477 42.8732 48.7152 45.5463C50.7539 50.6714 50.7057 56.0729 51.1465 61.4053C51.2498 62.6416 50.3682 63.9609 49.9343 65.2388L49.9412 65.218ZM19.175 51.0859C26.5308 49.2554 32.633 53.5725 39.2588 55.2993C39.4034 55.0575 39.5411 54.8089 39.6858 54.5671C36.1181 52.4466 32.5504 50.333 28.9896 48.2125C24.8571 46.4718 20.7178 46.1127 16.544 48.0674C16.0206 48.3161 15.4351 48.5371 14.8704 48.5578C13.5411 48.5993 11.8399 49.4488 11.3922 47.1487C11.3647 47.0037 10.5244 47.0175 10.0629 46.9553C10.3591 48.6545 10.4899 50.4159 11.0341 52.0322C11.2338 52.6262 12.3771 53.1442 13.1485 53.2547C15.1596 53.531 17.2052 53.5586 18.748 53.6553C18.748 56.4873 18.6998 58.5111 18.7893 60.528C18.8031 60.8872 19.3128 61.3984 19.6985 61.5296C23.7483 62.9387 30.5875 60.2656 32.9843 56.5149C28.9207 51.6799 23.032 53.2202 17.7011 52.7022C17.7149 52.4259 17.7286 52.1565 17.7424 51.8802C18.2176 51.6108 18.6998 51.3483 19.175 51.079V51.0859ZM28.3766 39.6475C24.1477 38.0726 19.8913 37.8654 15.6349 39.6475H28.3766ZM9.45685 67.2488C11.4473 66.938 13.0383 63.3738 14.4227 56.508C14.0783 56.4873 13.4929 56.3699 13.4584 56.4597C12.1223 59.9755 10.8343 63.512 9.45685 67.2488ZM39.1141 42.1548C39.6583 45.7051 40.1059 48.6683 40.6638 52.3153C41.9036 50.409 41.4076 48.6131 41.3319 46.9968C41.2561 45.3183 41.511 43.3498 39.1141 42.1548Z" fill="#EDE2DA"/>
<path d="M63.0411 1.26402C65.1418 1.25021 67.2356 1.22948 69.3362 1.21567C70.4933 1.21567 71.6504 1.21567 72.8144 1.21567C77.4772 2.01 82.1469 2.81124 86.8097 3.60557C90.8732 5.50506 95.0746 7.17661 98.9384 9.41455C100.702 10.4368 101.817 12.5919 103.229 14.2358C103.043 14.3808 102.857 14.5259 102.671 14.6779C98.4632 12.7024 94.193 10.8443 90.0674 8.71692C86.1553 6.70001 82.7116 3.7299 78.4552 2.46587C78.283 2.81124 78.1177 3.16351 77.9455 3.50887C85.4735 7.34238 92.9945 11.169 100.516 15.0025C101.025 15.265 101.693 15.4653 101.969 15.9004C103.877 18.8636 105.695 21.889 107.685 25.1147C106.067 24.8798 104.414 24.6312 102.444 24.3411C102.038 21.3502 99.083 20.8322 96.5209 19.7409C95.3363 19.2366 94.0346 18.6357 93.2012 17.7032C88.5659 12.5366 83.1042 8.8896 76.2856 7.19733C72.5595 6.27176 68.9918 4.69001 65.3415 3.43289C64.818 3.2533 64.2326 3.23949 63.6816 3.14279C63.5714 3.40527 63.4612 3.66773 63.351 3.9233C65.7065 5.02155 68.0138 6.26486 70.4382 7.16971C72.4493 7.92259 74.5844 8.47517 76.7126 8.76527C82.9871 9.60795 87.154 13.7661 91.562 17.7101C93.456 19.4024 95.9355 20.4316 98.1119 21.813C99.3517 22.6005 100.529 23.4984 102.272 24.7279C95.2536 24.5966 90.4738 20.9151 85.3013 18.242C79.6192 15.2995 74.0679 12.0807 68.2824 9.35238C65.5137 8.04692 62.3523 7.59794 59.1566 7.30093C71.7881 10.6026 82.0642 18.5528 94.1172 24.3687C93.0152 24.8453 92.3403 25.4186 91.927 25.2666C89.1514 24.2858 86.603 24.272 83.6483 25.1976C81.0655 26.0057 78.0144 25.1976 75.1906 25.391C73.5582 25.5015 71.9741 26.1991 70.3556 26.579C69.839 26.6964 69.1916 26.8208 68.7508 26.6135C66.0509 25.3772 63.351 24.1131 60.72 22.7317C56.4705 20.4937 52.0625 18.463 48.116 15.7761C44.0249 12.9856 40.1335 10.0086 35.147 9.02774C34.8577 8.97248 34.6097 8.73764 33.9141 8.33702C35.264 7.86042 36.2696 7.50125 37.2821 7.14207C40.7258 6.22341 44.1695 5.28403 47.627 4.393C49.8723 3.81279 52.1245 3.21877 54.4042 2.78361C57.1179 2.26557 59.866 1.92021 62.5934 1.49887C62.7449 1.41598 62.8965 1.34 63.048 1.25711L63.0411 1.26402ZM40.6845 7.67393C40.6156 7.84661 40.5398 8.01929 40.471 8.19197C41.1528 8.57187 41.7933 9.06919 42.5234 9.31785C45.2921 10.2641 48.116 11.0723 50.8779 12.0531C54.2803 13.2619 57.6551 14.5466 61.0093 15.8866C64.3015 17.199 67.8898 18.1315 70.7206 20.1346C73.3102 21.965 76.0583 22.8353 78.9097 23.7056C79.7362 23.9612 80.7074 23.7471 81.6165 23.7471C78.5172 22.1722 75.4178 21.1914 72.4562 19.8928C69.5291 18.615 66.8085 16.8605 63.8745 15.5965C59.4803 13.697 55.0241 11.9081 50.506 10.3332C47.3102 9.22114 43.9629 8.54424 40.6845 7.68083V7.67393Z" fill="#DCCBA6"/>
<path d="M39.8924 29.5422C38.8387 29.5284 37.7849 29.5146 36.7311 29.5008C36.4762 29.1692 36.2352 28.5545 35.9528 28.5407C33.3976 28.368 31.1867 27.4769 29.3133 25.7156C26.2002 22.7869 22.3501 21.668 18.2245 21.2535C16.9504 21.1223 16.0825 20.4247 16.8815 19.2297C19.3403 15.5413 22.2537 12.3156 26.8889 11.3624L26.9509 11.4384C26.7856 12.958 27.8118 12.7784 28.8518 13.0616C30.987 13.6487 33.2254 14.298 35.0643 15.4791C40.533 18.988 45.8363 22.7593 51.2016 26.434C50.809 28.7064 49.2593 27.3112 48.2675 27.249C47.2206 27.1868 46.2013 26.6826 44.8238 26.2613C45.4161 27.6151 45.7812 28.444 46.1875 29.3764C44.8927 29.0034 43.9491 28.7341 43.0124 28.4578C42.5234 28.0088 42.0895 27.47 41.5385 27.1247C37.5231 24.6243 33.5215 22.0755 29.4235 19.7132C27.0956 18.3732 24.623 17.2681 22.1435 16.232C21.5374 15.9833 20.6489 16.4254 19.8844 16.5428C20.4078 17.2819 20.952 17.4131 21.4685 17.6272C24.1615 18.7393 26.9716 19.6441 29.5131 21.0394C33.7213 23.3602 37.7504 26.0057 41.8553 28.513C41.2079 28.8584 40.5536 29.1969 39.9062 29.5422H39.8924Z" fill="#DCCBA6"/>
<path d="M17.5633 24.5276C16.8884 23.9612 16.2134 23.3948 15.5384 22.8284C15.6142 22.5935 15.69 22.3656 15.7657 22.1308C17.8251 22.483 19.8775 22.9113 21.9437 23.1737C25.7387 23.6573 27.984 26.5445 30.739 28.665C31.4691 29.2314 32.3576 29.5906 33.1772 30.0395L33.1427 30.0119C33.8246 31.2621 34.5065 32.5192 35.1952 33.7694C35.8151 34.8953 36.4418 36.0212 37.0617 37.1471C35.3398 35.3097 33.5215 33.873 31.6619 32.4916C27.7636 29.6044 23.8447 26.731 19.8982 23.9128C19.7329 23.7954 19.1681 24.2236 18.7893 24.3963C18.3761 24.4378 17.9697 24.4792 17.5564 24.5207L17.5633 24.5276Z" fill="#DCCBA6"/>
<path d="M9.93893 78.7079C11.3991 78.5766 12.8661 78.4385 14.7051 78.2727C14.7395 78.3141 15.201 78.8184 15.6555 79.3226C15.9586 79.661 16.2547 79.9995 16.5578 80.338C16.4476 80.6004 16.3305 80.856 16.2203 81.1185C14.1265 80.3172 12.0327 79.516 9.93893 78.7079Z" fill="#7B94A4"/>
<path d="M17.5633 24.5276C17.9766 24.4861 18.383 24.4447 18.7893 24.4032C20.8624 25.909 22.9355 27.4148 25.5321 29.2936C24.3268 29.4179 23.8516 29.4731 23.3763 29.5215C23.0113 29.5008 22.6531 29.48 22.295 29.4524C22.1021 28.9344 22.047 28.2575 21.6889 27.9328C20.3734 26.7379 18.9546 25.6534 17.5702 24.5276H17.5633Z" fill="#7B94A4"/>
<path d="M108.567 22.711C105.681 21.1016 105.227 18.2213 103.47 16.3494C105.068 16.4323 107.148 18.9396 108.567 22.711Z" fill="#DCCBA6"/>
<path d="M6.75694 51.1618C6.6123 50.6852 6.46081 50.2017 6.31618 49.7251C6.84651 50.1948 7.3768 50.6714 7.91402 51.1411C7.81071 51.2447 7.71429 51.3483 7.61098 51.4519C7.32859 51.3552 7.03932 51.2585 6.75694 51.1618Z" fill="#7B94A4"/>
<path d="M69.7012 76.539C70.0732 77.2573 70.452 77.9688 70.8239 78.6871C71.2785 79.1914 71.6573 80.0271 72.1876 80.1446C73.813 80.4899 75.5074 80.7731 77.1535 80.6902C82.0917 80.4347 87.0231 79.9995 91.9614 79.6334C92.7053 79.5436 93.456 79.4746 94.1999 79.3709C96.8446 78.9841 99.4756 78.5076 102.134 78.252C102.706 78.1967 103.36 78.9013 103.973 79.2535C103.498 80.1307 102.658 80.9872 102.609 81.8852C102.403 85.8085 102.423 89.7456 102.355 93.6827C103.016 96.4042 103.567 99.1602 104.359 101.847C105.289 105.017 106.418 108.133 107.465 111.269C107.479 111.462 107.493 111.655 107.506 111.849C106.377 112.001 105.234 112.346 104.111 112.27C99.8751 112.001 96.0663 113.23 92.3816 115.171C84.2268 119.46 76.0928 123.791 67.8416 127.894C61.3399 131.127 54.5213 133.524 47.2757 134.518C46.4561 134.629 45.6159 135.174 44.8651 135.043C44.1557 134.919 43.3568 134.304 42.9573 133.676C42.3168 132.674 41.9724 131.479 41.4972 130.367C41.4421 129.946 41.4697 129.483 41.3112 129.103C39.5756 124.827 41.5729 122.196 46.8763 122.375C46.3459 125.193 45.8225 127.949 45.3128 130.664C47.8061 130.353 49.218 124.109 47.0209 120.911C48.3846 120.241 49.7001 119.619 51.0018 118.949C53.5157 117.651 56.0641 116.394 58.516 114.992C60.1966 114.031 61.7531 112.85 63.3579 111.752C64.0948 111.248 65.1349 110.875 65.4861 110.17C66.3953 108.333 67.3871 106.392 67.6557 104.403C68.3858 98.9529 68.7852 93.4617 69.2398 87.9843C69.3087 87.1899 69.0332 86.3403 68.8128 85.546C68.062 82.8176 67.2562 80.1031 66.4779 77.3886C67.8072 77.0432 68.7577 76.7945 69.7081 76.5528L69.7012 76.539Z" fill="#EDE2DA"/>
<path d="M69.7012 76.539C68.7508 76.7876 67.8003 77.0294 66.471 77.3748C67.2493 80.0893 68.0552 82.8038 68.8059 85.5322C69.0263 86.3265 69.3018 87.1761 69.2329 87.9705C68.7783 93.4548 68.3789 98.9461 67.6488 104.389C67.3802 106.378 66.3884 108.319 65.4792 110.156C65.128 110.861 64.0949 111.241 63.351 111.738C61.7463 112.83 60.1897 114.011 58.5092 114.978C56.0503 116.38 53.5089 117.637 50.995 118.936C49.7001 119.606 48.3777 120.227 47.014 120.897C49.2042 124.095 47.7992 130.346 45.306 130.65C45.8156 127.936 46.339 125.18 46.8694 122.362C41.566 122.175 39.5687 124.807 41.3043 129.089C41.4628 129.469 41.4352 129.932 41.4903 130.353C40.9668 130.374 40.4434 130.395 39.92 130.415C39.5067 128.896 40.1335 126.831 37.8055 126.299C37.9708 124.517 38.143 124.33 40.4985 123.08C41.814 122.382 43.1088 121.629 44.8238 120.669C43.6736 119.564 42.9298 118.853 42.1928 118.134C47.2964 120.497 51.0845 116.87 55.4373 115.758C55.4029 115.551 55.3685 115.344 55.341 115.144C54.0392 114.95 52.7375 114.764 51.4289 114.57C51.3945 114.273 51.36 113.976 51.3325 113.672C56.0435 115.019 59.2599 112.146 62.7312 110.087C64.9076 108.803 64.9627 107.269 63.0962 106.074C64.1775 105.073 65.2657 104.071 66.5468 102.89C63.9089 101.391 61.519 100.355 59.5285 98.801C57.6069 97.2952 56.1123 95.2438 54.4249 93.4272C54.6591 93.2061 54.8864 92.9851 55.1205 92.7641C56.808 94.4632 58.3507 96.3558 60.231 97.7994C62.1182 99.25 64.3428 100.252 66.4159 101.453C68.1791 98.1724 67.3802 96.3558 62.5452 94.2975C62.6347 94.0626 62.7243 93.8278 62.8138 93.5929C64.329 94.1801 65.8443 94.7672 67.7245 95.4924V88.3918C66.2644 87.8185 64.8594 87.259 63.4543 86.7064C63.5439 86.444 63.6403 86.1746 63.7298 85.9121C64.9696 86.1608 66.2162 86.4163 68.3375 86.8446C65.3622 81.7885 61.6292 78.1415 58.337 74.2113C58.7181 73.9856 60.4009 74.8997 63.3855 76.9534C63.2546 72.8713 62.5659 72.1046 58.8673 71.9319C56.5325 71.8214 53.0612 68.6924 52.1038 65.8259C52.3174 65.6187 52.5309 65.4114 52.7513 65.2042C53.9152 65.7844 53.8188 67.9602 55.7473 67.5665C55.8713 68.2296 55.9883 68.8858 56.1812 69.915C57.8342 70.2811 59.7696 70.7093 61.9047 71.179V68.6164C61.7394 68.7684 61.581 68.9272 61.4157 69.0792C59.1015 66.6548 56.7873 64.2303 54.48 61.8128C54.6866 61.5849 54.8932 61.35 55.0999 61.1221C57.1523 63.1459 59.2117 65.1697 61.2641 67.1935C61.5396 67.0001 61.8082 66.8136 62.0837 66.6202C61.8633 64.7276 61.6498 62.8351 61.395 60.6316C57.3934 61.3983 56.0021 57.6615 53.3574 55.9071C53.5158 55.6654 53.6742 55.4305 53.8395 55.1888C55.5407 56.5357 57.235 57.8826 58.9362 59.2295C59.1015 59.0568 59.2736 58.8841 59.4389 58.7114C58.2956 57.2402 57.1454 55.769 56.009 54.2908C54.3491 52.1289 54.3698 51.1411 56.6909 49.7735C59.4045 48.171 62.2559 46.7343 65.1624 45.5255C68.2273 44.2477 70.5277 45.3045 72.2014 48.1365C74.7911 52.5157 74.977 57.2816 75.0528 62.2134C75.1148 65.9019 74.1918 69.017 72.1945 71.9941C71.2371 73.4239 70.5208 75.0263 69.7012 76.5459V76.539ZM63.3442 59.7959C63.4406 63.0561 63.4957 66.413 63.6541 69.7561C63.7161 71.0961 63.8538 72.4775 64.2395 73.7485C64.453 74.4599 65.1762 75.3233 65.8236 75.4891C66.3402 75.6203 67.146 74.8606 67.7452 74.3909C68.5235 73.7761 69.3224 73.1337 69.9423 72.367C71.919 69.9357 73.7579 67.5182 73.9164 64.0853C74.1299 59.4851 73.1656 55.1473 71.8226 50.8372C70.7964 47.5563 66.9463 45.3874 64.639 46.9622C62.9447 48.1158 61.5052 49.6561 59.8315 51.1342C58.4058 50.4228 57.0352 50.5264 56.3465 52.5433C57.8479 54.3737 59.2461 56.1558 60.7545 57.8411C61.0575 58.1796 61.7807 58.2901 62.3041 58.2694C63.9089 58.2141 65.5206 57.8549 67.0978 57.9862C67.9312 58.0553 68.7095 58.8979 69.5084 59.3883C69.3913 59.5265 69.2811 59.6577 69.164 59.7959H63.3373H63.3442Z" fill="#262626"/>
<path d="M13.6444 89.9874C15.2216 90.7955 16.2823 92.1493 18.7411 91.4448C20.0841 91.058 22.4397 92.5776 24.561 92.1217C25.4288 91.9352 26.3655 92.0941 27.2746 92.0941C27.3366 92.322 27.3986 92.5569 27.4606 92.7848C28.0185 92.3013 28.5695 91.8109 28.7417 91.6589H34.6166C32.392 94.1663 25.6974 95.1885 22.0264 93.5999C21.9162 94.1801 21.8129 94.7119 21.7165 95.2438L21.5099 95.2023L21.2964 95.223C20.5938 95.527 19.8913 95.8309 19.1957 96.1348C19.0235 96.1417 18.8513 96.1486 18.6791 96.1555C16.606 96.7564 14.5329 97.3574 12.4598 97.9583C12.3771 97.4748 12.2876 96.9982 12.2049 96.5147C11.9914 96.5838 11.7779 96.6598 11.5644 96.7288L12.4184 98.0481C12.1085 98.4833 11.8054 98.9253 11.4955 99.3605C10.8274 99.4986 10.1525 99.6299 9.48438 99.768C9.67034 99.2914 9.84941 98.8217 10.0354 98.352C10.1731 97.6613 10.3109 96.9637 10.4486 96.2729C10.7723 95.4026 11.0891 94.5323 11.4129 93.662L11.585 93.7035C11.7159 93.5446 11.8537 93.3788 11.9845 93.2199C12.6595 93.4064 13.3276 93.5929 14.0025 93.7794C13.424 94.256 12.8386 94.7326 11.7985 95.5822C13.6926 95.7964 15.1183 96.0243 16.5509 96.0726C16.8884 96.0864 17.2603 95.4993 17.5771 95.1609C17.6735 95.0573 17.6391 94.8362 17.6667 94.6636C18.1419 94.4771 18.6171 94.2837 19.4574 93.9452C16.8333 93.0127 14.6706 92.253 12.508 91.4863C12.0878 90.3811 12.4046 89.8354 13.6375 89.9874H13.6444Z" fill="#0D0D0D"/>
<path d="M4.74582 83.7639C4.91112 84.3718 5.20039 84.9796 5.21416 85.5874C5.25549 87.3074 6.01311 88.302 7.75563 88.4747C8.98159 88.6681 10.2076 88.8615 11.4335 89.0618C11.4335 89.8837 11.4335 90.7057 11.4335 91.5208L9.9734 92.0733C9.33287 91.576 8.76122 90.8577 8.03804 90.6297C3.98822 89.3312 3.18925 87.7425 4.73893 83.7639H4.74582Z" fill="#0D0D0D"/>
<path d="M9.98026 92.0733L11.4404 91.5208C11.7985 91.5069 12.1567 91.4932 12.508 91.4863C14.6706 92.253 16.8333 93.0197 19.4574 93.9452C18.6171 94.2837 18.1419 94.4702 17.6667 94.6636C16.4407 94.3665 15.2216 94.0695 13.9956 93.7794C13.3207 93.5929 12.6526 93.4064 11.9776 93.2199C11.8468 93.3788 11.709 93.5446 11.5781 93.7034L11.406 93.662C10.9307 93.1301 10.4555 92.6052 9.9734 92.0733H9.98026Z" fill="#DCCBA6"/>
<path d="M15.0839 132.467H18.3692C17.8251 131.313 17.4531 130.512 17.0812 129.711C17.2327 129.552 17.3843 129.4 17.5358 129.241C18.0386 129.662 18.7135 129.987 19.0235 130.519C19.9739 132.156 21.3859 132.695 23.1215 132.439C24.7125 132.204 26.3311 131.956 27.8394 131.438C29.9952 130.699 30.2362 128.689 28.6728 125.933C30.8285 126.527 33.0187 127.128 35.202 127.735C35.326 127.507 35.4431 127.279 35.5671 127.052C35.085 126.423 34.596 125.794 34.1139 125.166C34.1896 125.055 34.2722 124.938 34.348 124.827C35.4982 125.318 36.6553 125.808 37.8055 126.299C37.0548 126.976 36.3523 128.157 35.5533 128.233C32.819 128.481 31.2693 130.277 29.4373 131.935C28.4317 132.847 26.7925 133.372 25.3943 133.475C22.4878 133.703 19.5538 133.586 16.6335 133.475C16.1032 133.455 15.6004 132.812 15.0839 132.46V132.467Z" fill="#262626"/>
<path d="M10.3866 129.4C10.9996 128.82 11.6126 128.24 12.749 127.162C12.8661 128.578 12.9212 129.255 12.9763 129.939C12.1154 129.759 11.2544 129.58 10.3866 129.4Z" fill="#7B94A4"/>
<path d="M11.4955 99.3605C11.8054 98.9253 12.1085 98.4833 12.4184 98.0481L12.4598 97.9514C14.5329 97.3505 16.606 96.7495 18.6791 96.1486C18.8513 96.1417 19.0235 96.1348 19.1957 96.1279C19.8982 95.824 20.6007 95.52 21.2964 95.2161C21.4479 96.6459 21.379 98.131 21.7784 99.4848C23.6174 105.729 20.7453 110.447 16.8402 114.722C16.1927 115.427 14.161 115.675 13.2863 115.199C10.979 113.928 11.0341 115.655 10.5313 117.361C9.13313 116.117 7.91402 115.095 6.79137 113.969C6.6123 113.79 6.73627 113.051 6.96355 112.747C7.55587 111.966 8.27219 111.289 9.05736 110.447C9.41551 110.64 9.87697 110.882 10.3935 111.151C10.5382 110.785 10.6828 110.557 10.7103 110.315C10.9376 108.354 11.1994 106.392 11.344 104.423C11.468 102.745 11.4473 101.046 11.4886 99.3605L11.4955 99.3605ZM16.2065 111.766C16.0826 111.745 16.296 111.856 16.3994 111.787C18.1143 110.654 19.9602 104.79 19.1543 103.007C19.0441 102.759 18.686 102.614 18.4449 102.427C18.1763 102.78 17.7355 103.104 17.6598 103.498C17.1432 106.199 16.6955 108.906 16.2065 111.766Z" fill="#DCCBA6"/>
<path d="M10.8894 101.889C9.6841 104.727 8.4719 107.566 7.2666 110.398C6.94289 110.274 6.6192 110.143 6.29549 110.018C6.26106 106.758 8.51326 104.327 9.79432 101.55L10.8894 101.889Z" fill="#DCCBA6"/>
<path d="M103.973 79.2397C103.36 78.8874 102.713 78.1829 102.134 78.2382C99.4756 78.5006 96.8446 78.9703 94.1999 79.3571C93.456 79.4676 92.7053 79.5367 91.9614 79.6196C91.7755 79.295 91.5895 78.9634 91.4036 78.6388C95.6807 77.4369 99.9371 76.2143 104.483 76.5528C105.344 76.615 106.411 76.1176 107.128 75.5513C109.111 73.9764 111.081 72.3463 112.817 70.509C113.746 69.5281 114.173 68.0707 114.828 66.8274C116.164 64.4099 117.507 61.9924 118.843 59.5748C118.988 59.5196 119.126 59.4643 119.27 59.4022C119.497 60.155 119.718 60.901 119.945 61.6539C118.085 64.7967 116.577 68.2365 114.27 70.9994C111.687 74.0938 108.374 76.5735 105.378 79.3226C104.917 79.2881 104.448 79.2604 103.987 79.2259L103.973 79.2397Z" fill="#262626"/>
<path d="M107.465 111.255C106.425 108.119 105.289 105.004 104.359 101.833C103.574 99.1463 103.016 96.3903 102.355 93.6689C102.816 93.6689 103.284 93.6689 103.746 93.6689C105.385 99.1118 106.969 104.569 108.684 109.991C109.159 111.496 109.187 112.111 107.458 111.262L107.465 111.255Z" fill="#262626"/>
<path d="M72.8144 1.21567C71.6573 1.21567 70.4933 1.21567 69.3362 1.21567C70.4933 1.21567 71.6504 1.21567 72.8144 1.21567Z" fill="#7B94A4"/>
<path d="M52.765 65.1973C52.5515 65.4045 52.338 65.6118 52.1176 65.819C51.3945 65.6187 50.6644 65.4184 49.9412 65.218C50.3682 63.9402 51.2567 62.6209 51.1534 61.3845C50.7057 56.0522 50.7539 50.6507 48.7221 45.5255C47.6614 42.8524 47.0347 39.9928 46.2977 37.2023C46.2289 36.9468 46.7936 36.5323 47.0622 36.187C48.7428 41.4986 50.8366 46.7274 51.973 52.1565C52.8546 56.3768 52.5446 60.8389 52.765 65.1973Z" fill="#0D0D0D"/>
<path d="M43.0124 28.4578C43.9491 28.7272 44.8927 28.9965 46.1875 29.3764C45.7812 28.444 45.4161 27.6151 44.8238 26.2613C46.2013 26.6826 47.2206 27.1868 48.2675 27.249C49.2593 27.3112 50.809 28.7064 51.2016 26.434C51.3669 26.1231 51.5391 25.8054 51.7044 25.4946C53.5364 26.1093 55.1963 27.7947 57.359 26.0057C57.8549 25.5982 59.0395 26.0195 59.928 26.655C59.2461 26.7862 58.5643 26.9106 57.7998 27.0556C58.2612 29.8738 56.1881 29.8807 54.6522 29.4248C51.2016 28.4025 48.6395 28.7755 47.3378 32.54C47.3033 32.6297 46.8625 32.5814 46.6077 32.5952C46.4493 30.1846 44.4795 30.9029 43.1157 30.5368C42.0344 30.2467 40.9737 29.8807 39.8993 29.5491C40.5467 29.2038 41.201 28.8653 41.8484 28.5199C42.2341 28.4992 42.6267 28.4854 43.0124 28.4647V28.4578Z" fill="#0D0D0D"/>
<path d="M51.7044 25.4877C51.5391 25.7985 51.3669 26.1162 51.2016 26.4271C45.8363 22.7593 40.5398 18.9811 35.0643 15.4722C33.2254 14.2911 30.987 13.6418 28.8518 13.0547C27.8118 12.7715 26.7856 12.9511 26.9509 11.4315C30.7734 10.8098 33.6731 12.7646 36.5727 14.8229C41.5936 18.4078 46.6559 21.9305 51.7044 25.4808V25.4877Z" fill="#262626"/>
<path d="M91.4036 78.6457C91.5895 78.9703 91.7755 79.3019 91.9614 79.6265C87.0231 79.9926 82.0917 80.4347 77.1535 80.6833C75.5074 80.7662 73.813 80.483 72.1876 80.1376C71.6504 80.0271 71.2716 79.1845 70.8239 78.6802C77.6838 78.6664 84.5437 78.6526 91.4036 78.6388V78.6457Z" fill="#0D0D0D"/>
<path d="M118.843 59.5817C117.507 61.9993 116.164 64.4168 114.828 66.8343C114.222 67.0623 113.616 67.2902 113.009 67.5112C112.858 67.4007 112.7 67.2902 112.548 67.1797C113.45 65.8742 114.504 64.6447 115.227 63.2426C117.004 59.8304 119.146 56.6116 117.982 52.2601C117.445 50.2639 118.299 47.8947 118.843 45.6775V59.5817Z" fill="#EDE2DA"/>
<path d="M25.9247 80.2413C25.6216 79.3433 25.3186 78.4385 24.8985 77.1745C28.659 78.1208 32.9705 76.76 35.8564 80.3863C37.165 82.0302 37.4336 81.5675 38.1224 79.9788C39.245 77.4093 40.4227 74.7984 42.0275 72.519C43.1088 70.9856 44.9547 69.9978 46.463 68.7615C44.2935 73.7692 46.0154 75.6065 49.7828 79.7854C51.3049 81.4777 52.1589 83.7778 53.7362 85.3941C52.0625 85.4424 45.0718 78.0102 43.529 72.0631C39.5411 80.5037 44.2108 86.8515 47.5788 93.4686C44.2453 89.2828 40.6913 85.2766 40.2919 79.2604C39.7753 80.3449 39.1624 81.4017 38.7629 82.5276C38.3152 83.7916 38.1155 85.1454 37.7229 86.4302C37.3096 87.784 37.0341 88.896 38.4116 90.0703C39.1004 90.6574 39.0521 92.0941 39.3483 93.1509C40.1059 95.8102 40.8773 98.4625 41.7107 101.35C39.9062 100.507 39.1554 99.0359 38.8317 97.1847C38.6113 95.9483 37.9915 94.7257 38.0259 93.5101C38.1223 89.9874 35.9666 89.8423 33.3838 90.0219C33.0119 90.0495 32.6055 89.5798 32.4195 89.4693C33.7075 88.9651 35.9183 88.6612 36.063 87.9359C36.4762 85.8776 37.0479 83.6949 35.085 81.6089C31.7652 78.0862 30.7941 77.7201 26.6823 80.2827C26.5101 80.3932 26.1864 80.262 25.9316 80.2413H25.9247Z" fill="#262626"/>
<path d="M30.002 104.575C32.3782 104.983 33.2391 106.675 33.7006 108.803C34.162 110.937 34.3411 113.272 35.3811 115.102C36.7793 117.561 38.8731 119.626 40.7947 122.016C37.4956 121.65 36.1456 118.493 33.5835 116.67C34.472 118.784 35.3605 120.89 36.249 123.004C36.001 123.114 35.753 123.232 35.512 123.342C34.6924 121.843 33.6868 120.414 33.1014 118.832C31.8616 115.461 30.925 111.98 29.6784 108.616C29.2582 107.483 28.2733 106.551 27.5088 105.549C26.9578 104.824 26.3517 104.133 25.7663 103.429C25.9247 103.27 26.0831 103.111 26.2415 102.952C27.5019 103.829 28.7623 104.707 30.0296 105.591C30.6357 107.49 31.2418 109.39 31.8479 111.289C32.8397 108.146 32.454 107.221 30.0434 105.577C30.0434 105.232 30.0434 104.886 30.0434 104.541L30.002 104.575Z" fill="#262626"/>
<path d="M34.5547 98.276C36.7449 99.2292 38.4323 100.714 39.307 103.139C40.3608 106.054 41.2217 109.079 42.6543 111.8C43.4325 113.285 45.244 114.211 46.5457 115.434C47.014 115.876 47.3722 116.435 47.5168 117.153C42.0413 115.226 40.1335 110.737 38.756 105.708C38.2601 103.912 37.0961 102.255 36.0285 100.673C35.5464 99.9545 34.5615 99.5815 33.8039 99.0496C34.0519 98.7941 34.3067 98.5316 34.5547 98.276Z" fill="#262626"/>
<path d="M49.3971 89.2345C50.2856 90.2084 51.3255 91.0787 52.0349 92.17C53.4262 94.3044 54.5489 96.6114 55.9333 98.7526C56.9182 100.279 58.1372 101.654 59.0739 103.601C58.2337 103.07 57.1041 102.731 56.6013 101.978C54.6866 99.1118 52.9854 96.1003 51.174 93.1647C50.4508 91.9904 49.645 90.8715 48.8805 89.7318C49.0596 89.566 49.2318 89.4002 49.4108 89.2414L49.3971 89.2345Z" fill="#262626"/>
<path d="M63.6747 90.9613C62.3386 90.2567 60.6167 89.8699 59.7351 88.7924C57.3659 85.919 55.3616 82.7486 53.4813 79.1776C54.1839 79.5091 55.1343 79.6611 55.5476 80.2136C56.8631 81.9681 57.848 83.9711 59.1979 85.7049C60.5203 87.404 62.1182 88.8753 63.599 90.4501C63.6265 90.6228 63.6541 90.7955 63.6747 90.9751V90.9613Z" fill="#262626"/>
<path d="M48.5981 111.427C46.6559 105.936 44.7067 100.445 42.7645 94.9606L43.832 94.553C45.85 100.017 47.868 105.48 49.8861 110.944C49.459 111.103 49.032 111.269 48.605 111.427H48.5981Z" fill="#262626"/>
<path d="M30.0227 123.073C27.7636 118.045 25.7456 112.947 26.0624 107.166C27.6259 112.394 29.1824 117.63 30.7459 122.859C30.5048 122.928 30.2707 122.997 30.0296 123.066L30.0227 123.073Z" fill="#262626"/>
<path d="M23.9962 89.3104C20.0359 90.7679 14.2229 86.6719 13.6857 83.4531C17.157 85.4217 20.6076 87.3833 23.9962 89.3104Z" fill="#262626"/>
<path d="M35.6015 106.157C31.9787 103.505 32.9361 98.877 29.3822 96.5699C32.0476 96.5078 34.2034 100.086 35.6015 106.157Z" fill="#262626"/>
<path d="M21.9369 117.119C22.3777 120.407 22.8116 123.695 23.2524 126.982C23.1008 127.093 22.9493 127.203 22.7978 127.321C22.4534 126.775 21.9093 126.264 21.8129 125.677C21.3377 122.811 20.5043 119.923 21.1517 117.029C21.4134 117.057 21.6751 117.084 21.9437 117.112L21.9369 117.119Z" fill="#262626"/>
<path d="M15.3662 128.177C12.2807 126.326 11.2475 121.616 13.5135 120.2C14.1265 122.838 14.7464 125.511 15.3662 128.177Z" fill="#262626"/>
<path d="M55.4649 76.0693C52.8821 74.3425 49.4522 73.5896 48.4673 69.4038C51.1534 71.6072 53.5296 73.5482 55.9057 75.4891C55.7611 75.6825 55.6096 75.8759 55.4649 76.0624V76.0693Z" fill="#262626"/>
<path d="M11.4404 89.0618C10.2144 88.8684 8.98848 88.675 7.76252 88.4747C7.79696 88.1569 7.83141 87.8323 7.85895 87.5146C8.66479 87.8461 9.46369 88.1707 10.4073 88.5575C9.44992 87.1692 8.67167 86.0364 7.90028 84.9036C8.14134 84.8967 8.38239 84.8829 8.62345 84.876C9.75988 85.9812 10.4762 87.7287 12.5355 87.4317C12.1705 87.9773 11.8123 88.523 11.4473 89.0687L11.4404 89.0618Z" fill="#7B94A4"/>
<path d="M30.3258 83.3219C30.7597 82.7348 31.1867 82.1545 31.9856 81.0632C32.1303 82.5344 32.5091 83.6534 32.2542 84.6066C32.0132 85.5184 31.1247 86.2575 30.2776 87.4041C29.9952 87.183 29.4855 86.7962 28.9758 86.4025C29.3271 85.5046 29.6715 84.6066 30.0227 83.7087C30.126 83.5775 30.2225 83.4531 30.3258 83.3219Z" fill="#7B94A4"/>
<path d="M7.89338 84.9036C8.67166 86.0364 9.44995 87.1692 10.4004 88.5575C9.45684 88.1707 8.65789 87.8461 7.85206 87.5146C6.47917 85.2812 6.38275 83.4808 7.5628 82.1131C7.68677 83.1907 7.79007 84.0471 7.89338 84.9036Z" fill="#262626"/>
<path d="M30.0434 104.541C28.7416 102.6 27.4399 100.666 26.1382 98.725C26.4344 98.5592 26.7236 98.3866 27.0198 98.2208C28.3766 100.141 30.5875 101.591 30.0089 104.582L30.0503 104.548L30.0434 104.541Z" fill="#262626"/>
<path d="M50.2856 102.697C49.5073 101.087 48.7221 99.4779 47.9438 97.8616C48.2744 97.6958 48.6119 97.5231 48.9425 97.3574L51.3531 102.179C50.9949 102.351 50.6437 102.524 50.2856 102.697Z" fill="#262626"/>
<path d="M27.0542 85.2559C27.13 84.6342 27.2057 84.0057 27.2815 83.384C26.8338 82.5206 26.3793 81.6572 25.9247 80.7938L25.8972 80.6971C27.9152 80.6488 29.5406 81.2704 30.3258 83.3219C30.2225 83.4531 30.126 83.5774 30.0227 83.7018C29.5613 83.4393 29.0929 83.1768 29.0723 83.163C28.1975 84.0333 27.5846 84.6481 26.9647 85.2559H27.0542Z" fill="#262626"/>
<path d="M11.4404 89.0618C11.8054 88.5161 12.1636 87.9704 12.5286 87.4248C13.3207 87.6251 14.1196 87.8185 14.6706 87.9566C15.4833 89.5177 12.4322 88.2813 13.6444 89.9874C12.4046 89.8354 12.0878 90.3742 12.5149 91.4862C12.1567 91.5 11.7985 91.5138 11.4473 91.5208C11.4473 90.6988 11.4473 89.8768 11.4473 89.0618H11.4404Z" fill="#262626"/>
<path d="M12.5217 87.4317C10.4693 87.7356 9.75298 85.9812 8.60966 84.876C8.65787 84.3925 8.7061 83.9159 8.75431 83.4324C8.94716 83.3288 9.13313 83.2321 9.32598 83.1285C10.3935 84.5583 11.4542 85.995 12.5217 87.4248V87.4317Z" fill="#262626"/>
<path d="M26.9647 85.2628C27.5846 84.6481 28.1975 84.0333 29.0723 83.1699C29.0929 83.1837 29.5613 83.4462 30.0227 83.7087C29.6715 84.6066 29.3271 85.5046 28.9758 86.4025C28.3077 86.0226 27.6328 85.6427 26.9647 85.2628Z" fill="#EDE2DA"/>
<path d="M19.175 51.0859C18.6998 51.3552 18.2176 51.6177 17.7424 51.8871C17.7286 52.1634 17.7149 52.4328 17.7011 52.7091C23.0251 53.2202 28.9207 51.6868 32.9843 56.5219C30.5875 60.2656 23.7483 62.9387 19.6985 61.5365C19.3128 61.4053 18.81 60.8872 18.7893 60.5349C18.6998 58.518 18.748 56.4942 18.748 53.6623C17.2052 53.5656 15.1596 53.5379 13.1485 53.2616C12.3771 53.158 11.2338 52.6331 11.0341 52.0391C10.4899 50.4228 10.3591 48.6683 10.0629 46.9622C10.5244 47.0244 11.3647 47.0106 11.3922 47.1557C11.8399 49.4558 13.5411 48.6131 14.8704 48.5647C15.4351 48.544 16.0206 48.323 16.544 48.0743C20.7247 46.1196 24.864 46.4718 28.9896 48.2194L28.5075 49.0897C24.988 47.874 21.4823 47.4181 17.8526 48.8203C16.4683 49.3591 14.8979 49.5525 13.4033 49.6353C11.6126 49.732 11.7021 50.5678 12.322 52.0874C14.6706 51.3622 16.971 50.6576 19.2645 49.9531C19.237 50.333 19.2026 50.706 19.175 51.0859ZM20.7729 59.0361C21.93 60.7698 23.9824 60.5488 25.0155 59.5334C25.8007 58.7598 25.8696 56.4597 25.3048 55.3062C24.3337 53.3169 22.4052 54.3599 20.6145 54.6362C21.682 55.7413 22.5361 56.6186 23.3832 57.4958C22.5636 57.9793 21.744 58.4697 20.7798 59.043L20.7729 59.0361ZM27.1644 58.8979C28.6383 58.2487 29.9056 57.6892 31.1729 57.1228C31.166 56.881 31.1592 56.6393 31.1523 56.3975C29.7128 55.7897 28.2733 55.1819 26.4964 54.429C26.7581 56.1903 26.9165 57.2402 27.1644 58.8979Z" fill="#0D0D0D"/>
<path d="M23.3763 29.5146C23.8516 29.4662 24.3268 29.411 25.5321 29.2866C22.9424 27.4079 20.8693 25.9021 18.7893 24.3963C19.1681 24.2236 19.7329 23.7885 19.8982 23.9128C23.8447 26.7379 27.7636 29.6044 31.6619 32.4916C33.5215 33.8661 35.3398 35.3097 37.0617 37.1471C36.4418 36.0212 35.8151 34.8953 35.1952 33.7694C34.5065 32.5192 33.8315 31.269 33.1427 30.0119C36.49 32.3327 38.508 35.2683 37.5369 39.9031C36.9377 39.5646 36.4074 39.3919 36.0354 39.0397C34.5891 37.6582 33.3494 36.0143 31.7446 34.8677C29.6921 33.3964 27.3504 32.3327 25.1671 31.0273C24.5059 30.6336 23.9686 30.0257 23.3694 29.5146H23.3763ZM36.979 37.8033C36.9239 37.8654 36.8206 37.9276 36.8275 37.9759C36.8482 38.0934 36.9171 38.197 36.9653 38.3075C37.0204 38.2522 37.1237 38.1901 37.1168 38.1486C37.0961 38.0312 37.0272 37.9276 36.979 37.8033Z" fill="#262626"/>
<path d="M28.5075 49.0828C28.6659 48.7927 28.8312 48.5026 28.9896 48.2125C32.5573 50.333 36.125 52.4466 39.6858 54.5671C39.5411 54.8089 39.4034 55.0575 39.2588 55.2993C32.6262 53.5725 26.5308 49.2554 19.175 51.0859C19.2026 50.706 19.237 50.333 19.2645 49.9531C21.8818 49.9393 24.499 49.9669 27.1093 49.8771C27.5845 49.8633 28.0391 49.366 28.5075 49.0897V49.0828Z" fill="#262626"/>
<path d="M15.6349 39.6475H28.3766C24.1477 38.0726 19.8982 37.8654 15.6349 39.6475Z" fill="#0D0D0D"/>
<path d="M9.45685 67.2488C10.8274 63.512 12.1154 59.9755 13.4584 56.4597C13.4929 56.3699 14.0783 56.4873 14.4227 56.508C13.0383 63.3738 11.4473 66.9449 9.45685 67.2488Z" fill="#262626"/>
<path d="M39.1073 42.1479C41.5041 43.3429 41.2423 45.3045 41.325 46.9899C41.4007 48.6062 41.8898 50.402 40.6569 52.3084C40.099 48.6683 39.6514 45.6982 39.1073 42.1479Z" fill="#262626"/>
<path d="M25.9247 80.8008C26.3793 81.6642 26.8269 82.5276 27.2815 83.391C26.4068 83.1492 25.5252 82.9006 24.2717 82.5483C24.9329 81.8506 25.4357 81.3257 25.9316 80.8008H25.9247Z" fill="#7B94A4"/>
<path d="M40.6845 7.67393C43.9629 8.54424 47.3102 9.22115 50.506 10.3263C55.0241 11.9012 59.4803 13.6901 63.8745 15.5896C66.8085 16.8536 69.5291 18.6012 72.4562 19.8859C75.4178 21.1845 78.5103 22.1653 81.6165 23.7401C80.7074 23.7401 79.7362 23.9543 78.9097 23.6987C76.0583 22.8284 73.3102 21.9581 70.7206 20.1277C67.8967 18.1315 64.3015 17.1921 61.0093 15.8797C57.6551 14.5397 54.2803 13.255 50.8779 12.0462C48.116 11.0654 45.299 10.2641 42.5234 9.31094C41.7933 9.06228 41.1528 8.56497 40.471 8.18507C40.5398 8.01239 40.6156 7.83971 40.6845 7.66703V7.67393Z" fill="#262626"/>
<path d="M43.0124 28.4578C42.6267 28.4785 42.2341 28.4923 41.8484 28.513C37.7435 26.0057 33.7144 23.3602 29.5062 21.0394C26.9716 19.6372 24.1615 18.7324 21.4616 17.6273C20.9451 17.4131 20.4009 17.2888 19.8775 16.5428C20.6351 16.4185 21.5305 15.9764 22.1366 16.232C24.6161 17.2681 27.0956 18.3663 29.4166 19.7132C33.5146 22.0755 37.5162 24.6174 41.5316 27.1247C42.0895 27.4701 42.5165 28.0088 43.0055 28.4578L43.0124 28.4578Z" fill="#262626"/>
<path d="M63.3373 59.7959H69.164C69.2811 59.6577 69.3913 59.5265 69.5084 59.3883C68.7095 58.8979 67.9312 58.0553 67.0978 57.9862C65.5206 57.8549 63.9089 58.2141 62.3041 58.2694C61.7807 58.2901 61.0644 58.1796 60.7545 57.8411C59.2461 56.1558 57.8548 54.3737 56.3465 52.5433C57.0352 50.5195 58.3989 50.4159 59.8315 51.1342C61.4983 49.663 62.9378 48.1227 64.639 46.9622C66.9463 45.3874 70.7964 47.5563 71.8226 50.8372C73.1656 55.1473 74.1299 59.4851 73.9164 64.0853C73.7579 67.5182 71.9121 69.9357 69.9423 72.367C69.3224 73.1337 68.5235 73.7761 67.7452 74.3909C67.146 74.8606 66.3402 75.6203 65.8236 75.4891C65.1693 75.3233 64.453 74.4599 64.2395 73.7485C63.8538 72.4775 63.7161 71.0961 63.6541 69.7561C63.4957 66.4061 63.4406 63.0561 63.3442 59.7959H63.3373ZM61.9253 53.1166C65.1487 53.0061 69.901 54.6707 70.204 56.7429C70.5484 59.1051 70.4588 61.5572 70.2935 63.954C70.1971 65.37 69.5979 66.7445 69.226 68.1398C70.08 68.1398 70.631 67.8773 70.7688 67.4698C71.3473 65.8121 72.0292 64.1474 72.2634 62.4275C73.1932 55.6377 69.0952 52.1841 63.4681 52.3084C62.9516 52.3223 62.4419 52.8334 61.9322 53.1097L61.9253 53.1166Z" fill="#EDE2DA"/>
<path d="M14.0025 93.7794C15.2285 94.0764 16.4476 94.3734 17.6736 94.6635C17.646 94.8293 17.6735 95.0573 17.584 95.1609C17.2672 95.5062 16.8953 96.0864 16.5578 96.0726C15.1252 96.0243 13.6995 95.7963 11.8054 95.5822C12.8454 94.7326 13.424 94.256 14.0094 93.7794L14.0025 93.7794Z" fill="#262626"/>
<path d="M12.4598 97.9514L12.4184 98.0481C12.1361 97.6061 11.8468 97.164 11.5644 96.7288C11.7779 96.6598 11.9914 96.5838 12.2049 96.5147C12.2876 96.9982 12.3771 97.4748 12.4598 97.9583V97.9514Z" fill="#262626"/>
<path d="M16.2065 111.773C16.7024 108.913 17.1432 106.206 17.6598 103.505C17.7355 103.111 18.1763 102.786 18.4449 102.434C18.686 102.628 19.0372 102.766 19.1543 103.014C19.9602 104.796 18.1143 110.661 16.3994 111.793C16.296 111.863 16.0826 111.752 16.2065 111.773Z" fill="#262626"/>
<path d="M30.0365 105.577C32.4402 107.221 32.8328 108.146 31.841 111.289C31.2349 109.39 30.6288 107.49 30.0227 105.591L30.0365 105.577Z" fill="#DCCBA6"/>
<path d="M28.5075 49.0828C28.046 49.3591 27.5845 49.8564 27.1093 49.8702C24.499 49.96 21.8818 49.9324 19.2645 49.9462C16.9641 50.6507 14.6706 51.3621 12.322 52.0805C11.7021 50.554 11.6126 49.7251 13.4033 49.6284C14.9048 49.5456 16.4683 49.3521 17.8526 48.8134C21.4823 47.4112 24.988 47.8671 28.5075 49.0828Z" fill="#DCCBA6"/>
<path d="M20.7798 59.0361C21.744 58.4628 22.5636 57.9793 23.3832 57.4888C22.5361 56.6116 21.682 55.7344 20.6145 54.6293C22.4052 54.3461 24.3337 53.3031 25.3048 55.2993C25.8696 56.4528 25.8007 58.7598 25.0155 59.5265C23.9824 60.5418 21.93 60.7698 20.7729 59.0292L20.7798 59.0361Z" fill="#7B94A4"/>
<path d="M36.979 37.8102C37.0341 37.9276 37.0961 38.0381 37.1168 38.1555C37.1237 38.197 37.0204 38.2591 36.9653 38.3144C36.9171 38.2039 36.8482 38.0934 36.8275 37.9828C36.8206 37.9414 36.9239 37.8723 36.979 37.8102Z" fill="#DCCBA6"/>
<path d="M61.9322 53.1235C62.4419 52.8472 62.9516 52.3292 63.4681 52.3223C69.102 52.191 73.1932 55.6515 72.2634 62.4413C72.0292 64.1612 71.3473 65.8259 70.7688 67.4836C70.6241 67.8911 70.0732 68.1536 69.226 68.1536C69.5979 66.7584 70.1971 65.3769 70.2935 63.9678C70.4588 61.571 70.5484 59.119 70.204 56.7567C69.901 54.6845 65.1487 53.0199 61.9253 53.1304L61.9322 53.1235Z" fill="#262626"/>
</svg>
