<svg width="141" height="156" viewBox="0 0 141 156" fill="none" xmlns="http://www.w3.org/2000/svg">
<path d="M55.7027 56.5498C56.1639 56.0394 56.5913 55.1207 57.0932 55.0867C60.946 54.8009 64.8124 54.6716 68.672 54.5151C71.2563 54.4062 73.6507 55.1207 76.1605 55.7332C79.8166 56.6178 83.7779 56.2095 87.6103 56.3797C88.6074 56.4273 89.8623 56.2436 90.5338 56.7744C91.8498 57.8019 92.7248 57.4481 93.7016 56.4954L93.8304 56.6655L94.0204 56.5634C93.8802 57.8382 94.7326 58.5845 96.5776 58.8023C97.0727 60.5171 96.6115 63.0554 99.7385 62.5314C101.95 62.5314 104.161 62.5314 105.938 62.5314C105.307 60.7961 104.71 59.1357 104.107 57.4753C104.521 57.101 104.934 56.7267 105.674 56.053C105.83 57.4072 105.925 58.2102 106.06 59.3262C107.152 58.4484 108.095 57.693 109.072 56.9037C109.167 58.6321 109.242 59.9591 109.316 61.2929C110.802 61.0887 112.287 60.9186 113.766 60.6805C116.445 60.2517 119.111 59.5508 121.804 59.3943C125.663 59.1697 129.55 59.3399 133.423 59.3399C133.104 54.1408 133.857 48.7376 128.261 45.7979C128.601 44.9812 128.946 44.1646 129.286 43.3548C129.482 38.1966 127.149 33.7734 125.223 29.2208C122.977 23.9129 118.765 20.4763 114.315 17.1827C111.371 15.0051 108.624 12.5621 105.687 10.3641C100.675 6.61449 94.7733 4.97447 88.8109 3.57944C80.0675 1.53793 71.1613 2.64034 62.3433 2.7152C59.4809 2.74242 56.6048 4.81796 53.7831 6.06328C49.4216 7.99591 45.1347 10.1123 40.746 11.97C38.5483 12.9023 37.2798 14.4811 36.1674 16.4818C35.3941 17.87 33.9426 18.8703 33.1489 20.2518C32.2807 21.7625 31.7788 23.4978 31.1886 25.165C30.7545 26.3831 30.7545 27.9006 30.0016 28.8397C27.0916 32.4804 28.0752 37.1282 26.5829 41.0752C24.609 46.281 24.9414 51.6842 24.5412 57.0534C24.1749 61.9054 24.9482 66.4715 26.6914 70.9697C27.4918 73.0316 27.8242 75.2772 28.6992 77.2915C30.0355 80.3606 31.4803 83.4092 33.2168 86.2606C35.6926 90.3436 37.8089 94.5014 37.7411 99.3943C37.6665 104.723 37.6597 110.071 37.1849 115.372C36.9814 117.639 35.0075 119.809 35.0211 122.021C35.0414 127.356 31.7788 131.194 29.5675 135.454C28.4008 137.7 25.9589 139.272 24.0053 141.232C24.4395 141.395 25.267 141.708 26.0877 142.014C26.1284 142.211 26.1691 142.409 26.2098 142.606C25.2195 142.804 24.1953 143.273 23.2389 143.157C18.6264 142.579 14.2513 144.348 10.7987 146.485C7.17651 148.724 3.91384 148.778 0 148.214C0.542647 147.894 1.12599 147.254 1.62794 147.315C4.95844 147.703 7.78698 146.757 10.412 144.695C11.3617 143.947 12.7251 143.715 13.8985 143.253C14.7464 142.912 15.5943 142.579 16.4422 142.239C20.8376 142.143 23.8832 139.537 26.4269 136.42C28.1159 134.345 29.174 131.766 30.6663 129.513C32.1993 127.193 33.427 124.9 33.2643 121.939C33.1896 120.626 33.99 119.285 34.3156 117.938C34.9532 115.298 35.7672 112.671 36.0792 109.983C36.3845 107.383 36.0182 104.716 36.1742 102.096C36.5337 96.053 34.1664 91.0173 31.0055 86.0768C29.3029 83.4229 28.299 80.3062 27.1052 77.346C26.1488 74.9914 25.3416 72.5756 24.5412 70.1667C23.9511 68.3769 23.483 66.5396 22.9607 64.7294C23.1168 57.7679 23.2795 50.7995 23.4356 43.838C24.1206 41.9666 24.799 40.102 25.4841 38.2307C25.5315 37.557 25.5858 36.8833 25.6333 36.2164C26.298 34.0115 26.5897 31.5821 27.7293 29.6631C28.8688 27.7509 29.6353 25.9748 29.7981 23.7427C29.8998 22.3001 30.5714 20.7758 31.3718 19.544C32.4638 17.87 34.241 16.5975 35.1432 14.8554C36.337 12.5485 38.0463 11.1398 40.3322 10.1735C44.0222 8.61517 47.8343 7.26777 51.3073 5.31473C55.2279 3.1167 59.2638 1.57876 63.6796 0.9527C66.074 0.877845 68.4617 0.796187 70.8561 0.721331C74.9056 0.626061 78.9551 0.537593 83.0046 0.442323C90.3914 2.76964 98.3751 3.32766 104.995 7.92105L105.131 8.03674C108.36 10.4865 111.704 12.8003 114.797 15.4134C118.853 18.8363 123.547 21.6944 125.833 26.8458C127.359 30.296 128.845 33.7598 130.351 37.2167C130.351 37.3868 130.351 37.557 130.351 37.7339C130.507 39.1153 130.588 40.5103 130.832 41.8781C131.083 43.3004 131.348 44.7499 131.856 46.0905C132.745 48.4246 134.088 50.609 134.76 52.9976C135.465 55.5086 135.35 58.2579 136.062 60.7689C136.666 62.8785 137.941 64.7975 138.918 66.7982C138.952 69.8536 138.992 72.9091 139.026 75.9645C138.829 77.1826 138.558 78.4007 138.456 79.6256C138.076 84.2054 137.975 88.8261 137.324 93.365C137.032 95.3793 135.696 97.2507 134.773 99.1629C134.719 99.2718 134.156 99.1357 133.83 99.1153C133.552 99.0608 133.267 99.0132 132.989 98.9587C132.833 96.1687 134.102 93.8346 135.316 91.4596C135.519 91.0649 135.044 90.3232 134.875 89.7379C134.882 89.5338 134.888 89.3364 134.895 89.1323C135.397 88.5402 136.272 87.9822 136.333 87.3494C136.516 85.3079 136.401 83.2391 136.401 81.0751H134.393C134.21 81.0751 134.027 81.0615 133.851 81.0615C131.666 81.429 129.482 81.7965 127.298 82.1639C126.247 82.1639 125.195 82.1639 124.137 82.1639C123.16 81.9938 122.177 81.8237 121.2 81.6603C120.284 81.7148 119.376 81.7692 118.46 81.8237C117.978 81.5719 117.524 81.2112 117.008 81.0955C115.197 80.6872 113.366 80.3606 111.541 80.0067C111.012 79.51 110.483 79.0064 109.954 78.5096C110.612 78.149 111.27 77.7951 111.934 77.4276V74.1952C111.697 74.2701 111.453 74.345 111.215 74.4198C110.781 73.576 110.347 72.739 109.913 71.8951C112.694 71.7795 113.196 71.1466 112.538 68.5675C111.704 69.1595 110.863 69.7516 110.028 70.3436C110.022 66.6621 109.771 66.349 105.979 65.267C105.443 65.1105 104.894 64.988 104.351 64.8519C103.334 65.0289 102.323 65.2126 101.305 65.3895C100.803 65.5052 100.308 65.6209 99.8063 65.7366C99.5961 65.9748 99.379 66.2061 99.1687 66.4443C98.8906 67.0704 98.6193 67.6896 98.3412 68.3157C98.3073 69.6699 98.2666 71.0309 98.2327 72.3851C97.9071 74.134 97.6629 75.9101 97.2152 77.6318C97.0388 78.3191 96.5301 79.2582 95.9603 79.4419C94.2306 80.0067 92.3992 80.2585 90.6017 80.626C88.0716 80.626 85.5415 80.626 83.0114 80.626C82.0007 80.6396 80.9968 80.6464 79.9861 80.66C78.9551 80.7893 77.9241 80.9118 76.8863 81.0411C76.3979 80.8914 75.9095 80.7349 75.4279 80.5852C75.2516 80.5579 75.0752 80.5375 74.8988 80.5103C74.5936 80.3878 74.2816 80.2721 73.9763 80.1496C73.7389 80.1428 73.5015 80.1292 73.2641 80.1224C71.8871 79.8911 70.5102 79.6529 69.1264 79.4215C68.9636 79.2854 68.7941 79.1493 68.6313 79.0132L68.672 79.0336L67.1051 78.7682C66.6709 78.6389 66.2368 78.5096 65.8095 78.3803C65.2668 76.8968 64.7242 75.4202 64.1816 73.9367C63.8356 73.0724 63.4965 72.215 63.1505 71.3507C63.4422 71.1942 63.7339 71.0377 64.0323 70.8812C63.8424 70.7859 63.6525 70.6906 63.4626 70.5954C63.3812 70.854 63.2998 71.1194 63.2184 71.378C62.947 70.7587 62.6757 70.1326 62.4044 69.5134C62.8385 69.2548 63.605 69.0506 63.6593 68.7308C63.9034 67.152 63.9577 65.5461 64.073 63.9469C63.9441 63.7223 63.8153 63.4909 63.6864 63.2664C63.5168 63.2664 63.354 63.2664 63.1844 63.2732H62.1602C61.3734 63.0962 60.6001 62.8172 59.8065 62.7356C54.6852 62.1912 49.564 61.7148 44.4428 61.1704C41.7431 60.8846 39.057 60.4423 36.3573 60.1837C34.6209 60.0204 33.5898 60.6192 33.6373 62.722C33.678 64.2871 32.7555 65.9203 34.9193 66.8866C35.2246 67.0227 34.96 68.4382 34.96 69.4453C30.707 67.5263 30.6731 67.4651 31.1344 63.2732C31.1818 62.8513 31.1411 62.4293 31.1479 62.0006C31.1683 59.0404 32.552 57.8359 35.5569 57.5705C40.8817 57.1078 45.9147 58.8975 51.1105 59.3058C55.6349 59.6597 60.1931 59.5576 64.731 59.6597C65.0701 58.9316 65.5721 58.2238 65.6535 57.4685C65.6806 57.2371 64.5682 56.6383 63.9577 56.6178C61.197 56.5226 58.4363 56.5702 55.6756 56.5702L55.7027 56.5498ZM126.674 78.9247C126.952 78.6185 127.23 78.3123 127.508 78.0061C127.936 77.938 128.356 77.87 128.784 77.8019C129.774 77.6658 130.568 77.0397 131.816 77.7611C132.738 78.2919 134.59 78.0061 135.54 77.3596C136.096 76.9785 135.838 75.1752 135.702 74.0387C135.546 72.6777 134.922 71.3575 134.875 70.0101C134.814 68.2476 135.065 66.4715 135.295 64.7158C135.567 62.6335 135.072 61.5379 132.643 61.7965C127.169 62.3817 121.682 62.8036 115.36 63.3684C116.445 64.4368 117.008 65.2943 117.795 65.6822C118.643 66.0973 119.708 66.0632 120.678 66.2265C121.343 66.7165 122.001 67.2133 122.665 67.7032C123.839 68.3361 125.005 68.9758 126.226 69.6359C126.023 70.1803 125.806 70.7655 125.589 71.3507C125.128 72.004 124.66 72.6573 124.198 73.3174C123.866 73.3242 123.54 73.331 123.208 73.3378C123.479 72.5212 123.751 71.7046 124.253 70.2007C122.129 69.3977 119.688 68.4722 117.246 67.5467C115.272 67.0363 115.184 68.7444 114.573 69.8332C114.505 69.874 114.383 69.9421 114.39 69.9625C114.431 70.085 114.505 70.2007 114.566 70.3164C114.919 70.7995 115.272 71.2895 115.624 71.7726C115.604 72.2966 115.577 72.8274 115.557 73.3514C115.374 74.2973 115.15 75.2364 115.014 76.1891C114.709 78.2715 115.821 79.0268 117.727 78.9724C118.392 78.952 119.057 78.9247 119.721 78.8975C120.691 78.8975 121.668 78.9111 122.638 78.9179C123.554 78.7274 124.463 78.5301 125.379 78.3395C125.819 78.5369 126.26 78.7342 126.694 78.9315L126.674 78.9247ZM67.3153 70.9356C66.8812 74.9642 67.6274 76.264 72.2941 76.019C72.4569 76.0122 72.6265 76.0666 72.7961 76.0938C72.7961 77.9312 74.0238 78.0673 75.394 77.9516C79.0636 77.6386 82.7401 77.3051 86.4097 76.9785C87.5493 78.3599 94.1017 78.3123 95.031 76.8968C95.1599 76.6995 95.2006 76.4205 95.2074 76.1755C95.3702 72.3102 95.5601 68.4518 95.6347 64.5865C95.6415 64.0694 95.0514 63.5386 94.7394 63.0146C94.3731 62.4021 94.0068 61.7897 93.6337 61.1772C92.5145 60.7961 91.4157 60.2041 90.2693 60.0816C89.0619 59.9523 87.0202 59.8638 86.7082 60.4695C85.2295 63.314 83.6558 61.7556 82.0279 60.939C81.6005 60.7213 81.2274 60.2449 80.7933 60.2041C76.988 59.7958 73.1759 59.3807 69.357 59.1765C68.6991 59.1425 67.9869 60.1224 67.295 60.6396C67.9801 61.15 68.6109 61.9122 69.3706 62.0891C70.0896 62.2524 70.9443 61.674 71.7515 61.6536C72.7893 61.6263 73.9628 61.5719 74.8581 61.9938C77.6256 63.3004 80.2439 64.9132 83.0114 66.2129C84.0085 66.6825 85.2634 66.6008 86.5182 66.7914C86.5454 67.1044 86.5929 67.6896 86.6404 68.2749C84.2256 69.1051 82.5094 67.1997 80.4542 66.6212C78.6431 66.1109 76.0248 64.0489 75.394 64.5865C73.6507 66.0836 72.8436 65.1105 71.6904 64.2803C70.8086 64.0762 69.859 64.0285 69.0722 63.6406C67.5188 62.8853 66.9287 64.0421 66.8609 64.9812C66.7591 66.526 67.1525 68.0979 67.3357 69.6563C67.3221 70.085 67.3086 70.5069 67.295 70.9356H67.3153Z" fill="#0D0D0D"/>
<path d="M129.286 144.239C126.776 143.872 124.273 143.273 121.756 143.185C117.029 143.028 112.287 143.334 107.566 143.11C104.9 142.98 102.269 142.15 99.6164 141.694C98.9652 141.579 98.2733 141.681 97.6561 141.681C97.3034 142.416 97.0049 143.035 96.7132 143.654C96.5369 143.647 96.3673 143.634 96.1909 143.627C96.096 142.987 95.9942 142.348 95.9264 141.878C92.7112 140.184 91.1104 143.974 88.4989 144.369C88.1191 143.001 87.7867 141.817 87.4611 140.64L86.5929 140.85C86.6878 141.599 86.776 142.348 86.8642 143.083C86.7489 143.117 86.525 143.246 86.4504 143.191C85.4533 142.375 84.5851 141.327 83.4659 140.748C82.3399 140.163 80.99 139.864 79.7216 139.789C79.1247 139.755 78.4735 140.544 77.6324 141.102C77.6324 140.333 77.7002 139.503 77.6053 138.686C77.5578 138.305 77.2119 137.958 76.9948 137.591C76.771 137.257 76.5471 136.924 76.3165 136.591C76.1808 136.461 76.052 136.332 75.9163 136.196C75.5839 136.141 75.2448 136.087 74.9124 136.033C74.2205 136.033 73.5354 136.033 72.8436 136.033L71.3648 136.005C72.016 135.182 72.674 134.358 73.5897 133.195C72.5451 132.644 71.5548 132.113 70.4423 131.528C70.0354 127.186 68.8958 126.131 66.3182 127.955C65.7824 127.159 65.2465 126.363 64.731 125.594C64.3376 125.798 63.8085 126.077 63.2794 126.356C63.666 124.879 64.0595 123.402 64.4461 121.926C65.1922 121.735 65.9384 121.538 66.6845 121.347C66.8337 121.708 66.9151 122.13 67.1525 122.422C69.3706 125.131 71.6226 127.819 73.861 130.507C74.9802 131.385 76.0994 132.263 77.2119 133.14C75.4008 134.808 77.9716 134.957 77.9716 136.625C78.833 135.332 79.4774 134.658 79.7555 133.855C80.0675 132.963 80.0472 131.956 80.1896 130.827C81.085 131.133 81.7701 131.364 82.4552 131.602C82.0753 132.848 81.6955 134.086 81.1393 135.903C83.7033 134.433 83.5812 134.474 84.1849 136.454C84.5986 137.795 84.931 139.551 87.0813 139.149C88.2751 139.054 89.7267 140.551 90.6085 138.571C90.7645 135.665 90.9273 135.481 92.7316 135.842C92.2974 136.985 91.8565 138.169 91.3207 139.578H97.0321C96.659 138.081 96.2995 136.645 95.8043 134.651C96.8082 135.175 97.5136 135.59 98.253 135.917C98.7346 136.128 99.3111 136.407 99.7724 136.312C102.241 135.808 104.575 135.617 106.128 138.108C107.166 137.251 108.102 136.563 108.93 135.767C109.54 135.175 110.001 134.433 110.524 133.76C110.354 133.583 110.191 133.406 110.022 133.222C112.152 132.596 113.562 131.419 113.264 128.942C114.729 128.438 116.194 127.935 117.653 127.431C117.334 128.996 116.649 130.691 118.996 131.671H115.624C115.726 132.303 115.828 132.909 115.93 133.515C115.224 133.603 114.519 133.685 113.718 133.787C114.071 134.597 114.288 135.107 114.512 135.611C113.956 135.529 113.406 135.44 112.742 135.345C112.823 136.291 112.904 137.189 112.979 138.088C112.667 138.033 112.355 137.972 112.043 137.924C111.27 137.809 110.212 137.339 109.777 137.673C109.099 138.203 108.577 139.258 108.523 140.129C108.502 140.483 109.866 141.225 110.632 141.266C114.078 141.456 117.551 141.32 120.99 141.558C124.3 141.79 127.746 141.864 130.846 142.878C133.444 143.729 135.913 144.328 138.606 144.239C139.399 144.212 140.2 144.369 141 144.437C140.973 144.75 140.946 145.056 140.919 145.369L131.802 144.906C130.954 144.682 130.106 144.457 129.265 144.233L129.286 144.239ZM66.7998 124.845C66.7116 124.736 66.6167 124.627 66.5285 124.512L66.3657 124.913C66.3928 125.206 66.42 125.498 66.4403 125.791C66.6574 125.743 66.8677 125.702 67.0847 125.655C66.9898 125.383 66.8948 125.11 66.7998 124.838V124.845ZM99.7114 137.162C99.5214 137.271 99.3315 137.373 99.1416 137.482C99.474 138.108 99.8131 138.734 100.145 139.36C100.349 139.251 100.546 139.136 100.749 139.027C100.403 138.407 100.057 137.788 99.7114 137.169V137.162Z" fill="#0D0D0D"/>
<path d="M49.503 98.4483C49.347 98.7614 49.1909 99.0744 49.0349 99.3942C48.8246 99.1152 48.3973 98.8022 48.4312 98.5572C48.5398 97.7679 48.8111 97.0057 49.1638 95.6923C48.0649 95.9849 47.251 96.2027 46.4438 96.4137C46.0978 96.3864 45.7519 96.366 45.406 96.3388C45.6162 95.8148 45.6976 94.9574 46.0572 94.8213C47.1085 94.413 48.2684 94.2837 49.5504 94.0115C48.5262 90.8063 48.1056 87.4446 43.812 86.5055C42.0687 86.1245 40.6103 84.4164 39.0231 83.314C39.1994 83.0214 39.3826 82.7355 39.559 82.4429C41.0444 83.28 42.4689 84.6137 44.0358 84.8111C45.6434 85.0152 47.3934 84.1033 49.1638 83.661C51.3344 87.1044 50.1745 91.0513 50.5543 94.7941C50.2016 96.019 49.8489 97.237 49.4962 98.462L49.503 98.4483Z" fill="#262626"/>
<path d="M76.425 155.998C75.8552 155.685 75.0141 155.509 74.7632 155.032C72.9249 151.439 69.6759 150.602 66.0876 150.323C65.8095 150.303 65.545 150.139 65.2736 150.037C65.3008 149.792 65.3279 149.547 65.355 149.302C66.8948 149.452 68.5702 149.268 69.9404 149.826C72.0024 150.663 74.1798 151.398 75.4686 153.651C76.3708 155.23 80.0336 154.433 81.4784 152.555C83.3099 150.173 86.8778 149.513 89.5707 151.194C87.8071 151.432 86.118 151.46 84.5715 151.936C83.6694 152.215 82.6315 153.052 82.2653 153.903C81.5802 155.495 80.522 156.033 78.9551 155.998C78.1072 155.998 77.2593 155.998 76.4182 155.998H76.425Z" fill="#262626"/>
<path d="M52.0195 131.419C52.5011 131.494 52.9827 131.568 54.1969 131.752C52.9013 132.569 52.1619 133.399 51.3547 133.474C48.533 133.719 47.2713 135.658 46.0572 137.795C45.3246 139.088 44.5649 140.374 43.7034 141.592C42.4757 143.328 40.7663 143.532 38.6568 142.919C38.8874 142.545 39.0163 142.096 39.213 142.055C42.4079 141.49 43.6898 139.061 44.8633 136.441C46.1453 133.576 48.7161 132.378 51.5243 131.548C51.6871 131.507 51.8499 131.466 52.0195 131.426V131.419Z" fill="#0D0D0D"/>
<path d="M63.7067 0.932286C65.0634 0.619254 66.42 0.306226 67.7766 0C68.8144 0.231371 69.8454 0.469546 70.8832 0.700917C68.4888 0.775773 66.1012 0.85743 63.7067 0.932286Z" fill="#EDE2DA"/>
<path d="M115.957 133.508C115.95 134.073 116.052 134.672 115.896 135.196C115.78 135.583 115.34 135.876 115.048 136.216L114.532 135.604C114.315 135.093 114.091 134.59 113.739 133.78C114.539 133.685 115.245 133.596 115.95 133.508H115.957Z" fill="#262626"/>
<path d="M66.6845 121.34C65.9384 121.531 65.1922 121.728 64.4461 121.919C63.7271 121.919 63.0013 121.919 62.1941 121.919C62.1059 121.34 61.9974 120.619 61.8278 119.49C63.1844 119.837 64.3443 120.129 65.6738 120.469C66.1961 115.127 66.6913 109.799 67.2407 104.478C67.5392 101.579 68.7601 98.496 68.1293 95.842C66.7727 90.1326 67.6274 84.4232 67.1254 78.741C67.6477 78.8295 68.17 78.9179 68.6923 79.0064L68.6177 79.0744L68.6584 78.986C68.8212 79.1221 68.9908 79.2582 69.1536 79.3943C69.4045 82.334 69.6487 85.267 69.8997 88.2068C69.5334 89.5678 69.1671 90.9288 68.8008 92.283C69.1129 92.3442 69.4181 92.4055 69.7301 92.4667C69.8997 91.0445 70.0761 89.629 70.2456 88.2068C71.2563 85.5052 72.2738 82.7968 73.2845 80.0952C73.5219 80.102 73.7593 80.1156 73.9967 80.1224C74.3019 80.2449 74.6139 80.3606 74.9192 80.4831C75.0955 80.5103 75.2719 80.5307 75.4483 80.5579C74.8378 82.824 74.2341 85.0833 73.6236 87.3493C73.7118 87.397 73.8 87.4378 73.8882 87.4854C74.892 85.3282 75.9027 83.1711 76.9066 81.0207C77.9377 80.8914 78.9687 80.7689 80.0065 80.6396C79.647 81.0479 79.2129 81.4154 78.9415 81.8781C78.1072 83.2799 77.334 84.7158 76.5335 86.1381C76.4657 86.2878 76.4182 86.4511 76.3911 86.6144C75.1837 87.7168 73.8678 88.724 72.8164 89.9557C72.1856 90.6906 71.7108 91.7454 71.5955 92.7049C71.2834 95.3384 71.2224 97.9924 71.0325 100.64C70.8222 103.559 70.5644 106.471 70.3949 109.398C70.3813 109.595 70.9511 109.826 71.2495 110.037C70.8832 111.636 70.517 113.242 70.0354 115.359C71.141 115.012 71.7311 114.835 72.3145 114.651C72.8028 116.72 73.2912 118.789 73.7796 120.857C74.2137 121.844 74.6546 122.831 75.0888 123.817L75.394 125.383C75.9027 126.397 76.4115 127.411 76.9202 128.424L77.3068 129.044C77.6867 129.67 78.053 130.303 78.4464 130.915C79.4367 132.453 78.9416 133.14 77.2051 133.14C76.0859 132.263 74.9667 131.385 73.8542 130.507C73.9017 129.568 74.2273 128.533 73.956 127.703C72.3891 122.994 70.673 118.339 68.8551 113.222C68.0547 116.216 67.3628 118.782 66.6777 121.347L66.6845 121.34Z" fill="#7B94A4"/>
<path d="M49.503 98.4483C49.8557 97.2234 50.2084 96.0053 50.5611 94.7804C51.7278 97.7678 52.9216 100.735 54.0408 103.736C54.9498 106.172 55.7773 108.635 56.7744 111.48C56.5913 111.834 56.1368 112.718 55.662 113.644C55.2822 113.467 54.9159 113.297 54.5564 113.127C54.0951 112.957 53.6339 112.787 53.1726 112.616C53.1387 111.861 53.1183 111.099 53.0709 110.344C52.8538 106.88 52.284 106.295 49.0281 105.975C48.5058 105.927 48.0107 105.641 47.061 105.315C48.8246 104.893 50.0795 104.586 51.6939 104.205C51.4565 102.538 51.2801 100.823 50.9003 99.1493C50.8257 98.8294 49.9846 98.6797 49.4962 98.4483H49.503Z" fill="#0D0D0D"/>
<path d="M108.421 35.0663C104.677 41.1024 104.059 47.5876 105.192 54.6852C104.595 53.6372 103.503 52.6029 103.476 51.5413C103.354 46.247 103.456 40.9254 106.298 36.1687C106.684 35.5154 107.39 35.0527 107.953 34.5083C108.109 34.6988 108.258 34.8826 108.414 35.0731L108.421 35.0663Z" fill="#262626"/>
<path d="M87.8817 50.0102C88.7092 48.5811 89.8895 47.2405 90.2829 45.7026C90.8662 43.4025 91.2461 40.9254 91.0562 38.5777C90.7645 34.9166 89.9234 31.3031 89.8555 27.2609C90.3982 28.0776 91.3478 28.8601 91.4157 29.7176C91.8159 34.6648 92.0126 39.6325 92.2432 44.6002C92.2568 44.9472 91.9108 45.3011 91.7548 45.6617C91.1782 47.0227 90.6831 48.4246 89.998 49.7243C89.7673 50.1735 89.0755 50.3776 88.5939 50.6975C88.3565 50.4729 88.1191 50.2415 87.8817 50.017V50.0102Z" fill="#262626"/>
<path d="M64.1002 63.9196C63.9781 65.5188 63.9238 67.1248 63.6864 68.7036C63.6389 69.0234 62.8724 69.2276 62.4315 69.4862C62.3026 69.4862 62.2145 69.4249 62.167 69.3092C61.9974 69.0915 61.8278 68.8737 61.6582 68.6559L61.6243 68.4926C61.7736 68.2476 61.9296 68.0095 62.0788 67.7645C61.448 67.9618 60.8171 68.1592 60.1931 68.3565C59.7658 68.8397 59.2367 69.7992 58.9382 69.7311C57.7648 69.4657 56.6659 68.8737 55.5467 68.3974C55.567 68.0707 55.5806 67.7509 55.6009 67.4242C57.6834 66.5328 59.7861 65.6889 61.821 64.709C62.1127 64.5661 62.072 63.7563 62.1873 63.2528C62.5333 63.2528 62.8724 63.2528 63.2184 63.246C63.3744 63.3821 63.5236 63.5181 63.6796 63.6542C63.8017 63.7699 63.9441 63.8584 64.1002 63.9196Z" fill="#EDE2DA"/>
<path d="M89.3332 53.5284C84.931 54.6988 79.2807 50.7383 75.6925 43.7699C76.2758 44.1238 76.9202 44.4096 77.4289 44.8451C80.427 47.4106 83.3573 50.0578 86.4097 52.5552C87.0812 53.0996 88.1462 53.1541 89.3265 53.5284H89.3332Z" fill="#262626"/>
<path d="M104.107 57.4685C104.71 59.1289 105.307 60.7825 105.938 62.5246C104.161 62.5246 101.95 62.5246 99.7385 62.5246C99.9149 61.2589 100.01 59.9659 100.322 58.7342C100.41 58.3871 101.129 58.1149 101.604 57.972C102.418 57.7339 103.272 57.625 104.107 57.4685Z" fill="#7B94A4"/>
<path d="M123.147 47.3086C120.875 51.9836 117.157 56.053 111.534 53.9435C116.622 53.8618 119.633 50.2007 123.147 47.3086Z" fill="#262626"/>
<path d="M58.8297 80.2109C57.9479 84.0693 57.0186 88.1319 56.1232 92.0584C54.0951 89.1323 56.4421 80.4627 58.8297 80.2109Z" fill="#262626"/>
<path d="M64.2019 73.9094C64.7446 75.3929 65.2872 76.8696 65.8298 78.3531C63.7949 78.1013 61.76 77.8563 59.7183 77.6114C59.7454 77.4344 59.7725 77.2575 59.7929 77.0806C60.6747 77.0057 61.5565 76.9377 62.6418 76.8492C62.3026 75.8625 62.011 75.005 61.6379 73.9162H64.2019V73.9094Z" fill="#7B94A4"/>
<path d="M55.7027 56.5498C58.4634 56.5498 61.2241 56.5022 63.9848 56.5974C64.5885 56.6179 65.701 57.2099 65.6806 57.4481C65.5992 58.2034 65.0973 58.9111 64.7581 59.6393V57.5501C62.479 57.5501 60.2338 57.6318 57.9954 57.5025C57.2153 57.4549 56.4624 56.8832 55.7027 56.5498Z" fill="#262626"/>
<path d="M53.1726 112.61C53.6339 112.78 54.0951 112.95 54.5564 113.12C54.224 114.603 53.7899 116.08 53.5864 117.577C53.3557 119.272 53.1319 120.871 51.0563 121.232C51.7617 118.353 52.4672 115.481 53.1726 112.603V112.61Z" fill="#262626"/>
<path d="M63.2862 126.342C63.8153 126.063 64.3443 125.784 64.7378 125.58C65.2533 126.349 65.7891 127.145 66.325 127.941C66.5014 128.254 66.6709 128.567 66.8473 128.887C66.1554 128.908 65.4636 128.928 64.7717 128.949C64.419 128.588 64.0595 128.234 63.7067 127.873C63.5643 127.363 63.4218 126.859 63.2862 126.349V126.342Z" fill="#DCCBA6"/>
<path d="M129.286 43.3548C128.946 44.1714 128.601 44.9881 128.261 45.7979C127.834 45.5597 127.407 45.3215 126.979 45.0833C127.495 44.1715 127.773 42.9397 129.279 43.3548L129.286 43.3548Z" fill="#DCCBA6"/>
<path d="M93.7016 56.4885C93.4777 56.2027 93.2606 55.9101 93.0368 55.6243C93.9389 55.4065 94.8343 55.182 95.7365 54.9642C95.8314 55.3317 95.9196 55.6923 96.0146 56.0598C95.3498 56.2231 94.6851 56.3933 94.0136 56.5566L93.8236 56.6587L93.6948 56.4885H93.7016Z" fill="#7B94A4"/>
<path d="M60.1931 68.3565C60.8239 68.1592 61.4548 67.9618 62.0788 67.7645C61.9296 68.0027 61.7736 68.2476 61.6243 68.4926C61.1495 68.4518 60.6679 68.4042 60.1863 68.3565L60.1931 68.3565Z" fill="#DCCBA6"/>
<path d="M113.284 128.935C112.81 128.411 112.335 127.887 111.86 127.363C111.982 127.22 112.104 127.07 112.226 126.927C112.742 127.07 113.257 127.213 114.268 127.499C116.106 123.287 118.311 118.979 119.877 114.454C121.539 109.656 122.204 104.559 121.566 99.4895C121.207 96.6246 120.095 93.8618 119.382 91.0445C119.179 90.2415 119.179 89.3841 119.104 88.547C118.894 86.3014 118.69 84.0557 118.48 81.8033C119.396 81.7488 120.305 81.6944 121.221 81.6399C120.603 86.1517 123.791 89.5814 124.205 93.8005L124.836 93.6644C124.612 89.8264 124.388 85.9815 124.158 82.1435C125.209 82.1435 126.26 82.1435 127.319 82.1435C127.488 84.8996 127.692 87.6556 127.814 90.4116C127.895 92.1809 127.678 93.9775 127.922 95.7127C128.356 98.8771 128.926 101.973 127.447 105.056C127.203 105.566 127.664 106.41 127.807 107.104C127.454 107.404 127.095 107.71 126.742 108.009C126.247 105.247 125.752 102.484 125.25 99.7141C124.504 103.083 124.13 106.431 123.642 109.765C123.486 110.827 123.011 111.847 122.706 112.889C121.526 116.91 120.352 120.932 119.179 124.954C119.077 125.539 118.975 126.124 118.88 126.703C119.369 126.798 119.755 126.873 120.149 126.955C119.328 127.111 118.507 127.274 117.687 127.431C116.221 127.935 114.756 128.438 113.298 128.942L113.284 128.935Z" fill="#7B94A4"/>
<path d="M86.6607 68.2681C85.1549 69.8604 84.3138 71.2895 86.4979 73.2221C87.1016 73.7529 86.4708 75.6855 86.4097 76.9717C82.7401 77.2983 79.0704 77.6318 75.394 77.9448C74.0306 78.0605 72.7961 77.9312 72.7961 76.087C73.61 75.9509 74.424 75.8216 75.238 75.6855C76.1944 75.6991 77.144 75.7196 78.1004 75.7332C79.7826 75.6175 81.492 75.6379 83.1267 75.3045C83.6761 75.1888 84.3612 74.1748 84.3816 73.5556C84.3951 73.086 83.5337 72.3443 82.9232 72.1401C81.3292 71.6093 79.6606 71.3167 78.019 70.922C76.7913 70.922 75.5704 70.9152 74.3426 70.9084C72.0024 70.9084 69.6623 70.922 67.3221 70.9288C67.3357 70.5001 67.3493 70.0782 67.3628 69.6495C69.4656 70.0918 70.3677 69.3501 70.3542 67.0908C70.3542 66.1517 71.236 65.2058 71.7108 64.2667C72.8639 65.0901 73.6643 66.0632 75.4143 64.5729C76.0452 64.0353 78.6634 66.1041 80.4745 66.6076C82.523 67.1793 84.2459 69.0915 86.6607 68.2613V68.2681Z" fill="#262626"/>
<path d="M115.55 73.3514C115.57 72.8274 115.597 72.2966 115.618 71.7726C116.228 71.9428 116.839 72.1129 117.7 72.3579C117.517 70.4661 117.375 69.003 117.239 67.5467C119.681 68.4722 122.123 69.3977 124.246 70.2007C123.744 71.6978 123.473 72.5144 123.201 73.3378C122.835 73.3922 122.469 73.4467 122.102 73.4943C120.651 73.5487 119.206 73.6032 117.754 73.6508C117.022 73.5488 116.282 73.4535 115.55 73.3514Z" fill="#262626"/>
<path d="M71.7108 64.2803C71.2292 65.2194 70.3474 66.1653 70.3542 67.1044C70.3609 69.3637 69.4588 70.1054 67.3628 69.6631C67.1797 68.1047 66.7795 66.526 66.888 64.988C66.9491 64.0489 67.546 62.8921 69.0993 63.6474C69.8929 64.0285 70.8426 64.083 71.7176 64.2871L71.7108 64.2803Z" fill="#DCCBA6"/>
<path d="M117.754 73.6508C118.406 75.3997 119.057 77.1486 119.708 78.8975C119.043 78.9247 118.378 78.9588 117.714 78.9724C115.814 79.02 114.702 78.2714 115 76.1891C115.136 75.2364 115.36 74.2973 115.543 73.3514C116.276 73.4535 117.015 73.5488 117.748 73.6508H117.754Z" fill="#7B94A4"/>
<path d="M109.974 78.4756C107.458 77.5433 108.014 75.6447 108.563 73.8005C108.774 73.1064 109.174 72.4668 109.493 71.8067C109.642 71.8271 109.791 71.8475 109.94 71.8679C110.374 72.7117 110.808 73.5488 111.243 74.3926C111.48 74.3177 111.724 74.2429 111.962 74.168V77.4004C111.29 77.7611 110.639 78.1217 109.981 78.4756H109.974Z" fill="#EDE2DA"/>
<path d="M122.625 78.9179C122.448 77.1078 122.279 75.3044 122.102 73.4943C122.469 73.4399 122.835 73.3854 123.201 73.3378C123.534 73.331 123.859 73.3242 124.192 73.3174C124.721 74.0387 125.25 74.76 125.779 75.4814C125.643 76.4341 125.501 77.3868 125.365 78.3463C124.449 78.5368 123.54 78.7342 122.625 78.9247V78.9179Z" fill="#7B94A4"/>
<path d="M129.869 105.029C130.914 102.994 131.951 100.959 132.996 98.9247C133.274 98.9791 133.559 99.0268 133.837 99.0812C133.362 101.558 132.915 104.042 132.385 106.512C132.304 106.893 131.877 107.2 131.605 107.547C131.348 107.24 131.083 106.934 130.825 106.628C130.507 106.097 130.188 105.566 129.869 105.029Z" fill="#7B94A4"/>
<path d="M125.779 75.4746C125.25 74.7532 124.721 74.0319 124.192 73.3106C124.653 72.6573 125.121 72.004 125.582 71.3439C126.281 71.9836 126.979 72.6301 127.678 73.2697C127.502 73.399 127.325 73.5283 127.142 73.6576C127.583 74.2905 128.085 74.8893 128.445 75.563C128.587 75.8352 128.424 76.2776 128.397 76.645C128.099 77.0942 127.807 77.5433 127.508 77.9924C127.251 77.7883 127 77.5841 126.742 77.38C126.416 76.7403 126.091 76.1006 125.772 75.4542L125.779 75.4746Z" fill="#262626"/>
<path d="M117.239 67.5467C117.381 69.003 117.517 70.4593 117.7 72.3579C116.839 72.1197 116.228 71.9428 115.618 71.7726C115.265 71.2895 114.912 70.7995 114.56 70.3164C114.56 70.153 114.56 69.9965 114.56 69.8332C115.177 68.7512 115.265 67.0363 117.232 67.5467H117.239Z" fill="#DCCBA6"/>
<path d="M94.7461 63.0146C92.7451 63.9469 90.7441 64.8792 88.7431 65.8183C88.5939 65.4576 88.4447 65.1037 88.2954 64.7431C89.2247 64.4572 90.1608 64.1714 91.1986 63.8584C91.0561 63.4025 90.9137 62.9533 90.8526 62.756C91.8158 62.2116 92.7316 61.6944 93.6405 61.184C94.0068 61.7965 94.3731 62.4089 94.7461 63.0214V63.0146Z" fill="#262626"/>
<path d="M120.671 66.2265C122.733 64.0625 124.727 63.7019 126.172 64.9336C125.033 65.8319 123.846 66.771 122.659 67.7032C121.994 67.2133 121.336 66.7165 120.671 66.2265Z" fill="#DCCBA6"/>
<path d="M83.1199 81.8577C83.0928 81.4358 83.0724 81.0207 83.0453 80.5988C85.5754 80.5988 88.1055 80.5988 90.6356 80.5988C90.6356 80.8982 90.6356 81.1976 90.6356 81.497C88.1326 81.6127 85.6297 81.7352 83.1199 81.8577Z" fill="#DCCBA6"/>
<path d="M76.927 81.0139C75.9231 83.1711 74.9124 85.3283 73.9085 87.4786C73.8203 87.431 73.7321 87.3902 73.644 87.3425C74.2544 85.0765 74.8581 82.8172 75.4686 80.5511C75.957 80.7008 76.4454 80.8574 76.9338 81.0071L76.927 81.0139Z" fill="#EDE2DA"/>
<path d="M134.407 81.0479C134.57 83.7359 134.739 86.4171 134.902 89.105C134.895 89.3092 134.888 89.5065 134.882 89.7107C133.647 90.7927 133.878 89.7243 133.878 89.0166C133.878 86.3558 133.864 83.6951 133.864 81.0343C134.047 81.0343 134.23 81.0479 134.407 81.0479Z" fill="#262626"/>
<path d="M109.94 71.8679C109.791 71.8543 109.642 71.8339 109.493 71.8067C109.682 71.3099 109.866 70.8131 110.056 70.3164C110.89 69.7243 111.724 69.1323 112.565 68.5403C113.23 71.1126 112.728 71.7522 109.94 71.8679Z" fill="#262626"/>
<path d="M125.779 75.4746C126.104 76.1142 126.43 76.7539 126.749 77.4004C126.722 77.9108 126.701 78.4212 126.674 78.9247C126.233 78.7274 125.792 78.53 125.358 78.3327C125.501 77.38 125.636 76.4273 125.772 75.4678L125.779 75.4746Z" fill="#DCCBA6"/>
<path d="M127.508 78.0061C127.807 77.5569 128.099 77.1078 128.397 76.6587C128.526 77.0397 128.655 77.4208 128.784 77.8087C128.356 77.8768 127.936 77.9448 127.508 78.0129V78.0061Z" fill="#DCCBA6"/>
<path d="M63.2455 71.3507C63.3269 71.0921 63.4083 70.8267 63.4897 70.5681C63.6796 70.6634 63.8695 70.7587 64.0595 70.854C63.7678 71.0105 63.4761 71.167 63.1777 71.3235L63.2455 71.3507Z" fill="#7B94A4"/>
<path d="M126.681 78.9247C126.701 78.4143 126.728 77.9108 126.756 77.4004C127.013 77.6046 127.264 77.8087 127.522 78.006C127.244 78.3123 126.966 78.6185 126.688 78.9247H126.681Z" fill="#7B94A4"/>
<path d="M114.56 69.8332C114.56 69.9965 114.56 70.153 114.56 70.3164C114.498 70.2007 114.424 70.085 114.383 69.9625C114.383 69.9421 114.505 69.8809 114.566 69.8332L114.56 69.8332Z" fill="#262626"/>
<path d="M63.7135 63.2391C63.8424 63.4637 63.9713 63.6951 64.1002 63.9196C63.9441 63.8584 63.8017 63.7699 63.6796 63.6542C63.7067 63.5181 63.7203 63.382 63.7203 63.2391H63.7135Z" fill="#EDE2DA"/>
<path d="M68.6652 78.986L68.6245 79.0744L68.6991 79.0064L68.6652 78.986Z" fill="#262626"/>
<path d="M77.3204 129.037C79.3689 129.221 81.3631 129.507 82.4688 131.589C81.7837 131.357 81.0986 131.119 80.2032 130.813C80.054 131.943 80.0811 132.95 79.7691 133.841C79.491 134.644 78.8466 135.311 77.9851 136.611C77.9851 134.951 75.4143 134.794 77.2254 133.127C78.9619 133.127 79.4571 132.446 78.4667 130.902C78.0733 130.289 77.707 129.656 77.3272 129.03L77.3204 129.037Z" fill="#EDE2DA"/>
<path d="M87.1016 139.142C86.9388 137.843 86.776 136.55 86.6132 135.209C89.1637 135.23 87.7528 139.285 90.6356 138.564C89.7538 140.544 88.2954 139.047 87.1084 139.142H87.1016Z" fill="#262626"/>
<path d="M99.7114 137.155C100.057 137.775 100.403 138.394 100.749 139.013C100.546 139.122 100.349 139.238 100.145 139.347C99.8131 138.721 99.474 138.094 99.1416 137.468C99.3315 137.36 99.5214 137.257 99.7114 137.149V137.155Z" fill="#7B94A4"/>
<path d="M66.7998 124.845C66.8948 125.117 66.9898 125.389 67.0847 125.662C66.8677 125.709 66.6574 125.75 66.4403 125.798C66.4132 125.505 66.3861 125.213 66.3657 124.92H66.5896L66.7998 124.845Z" fill="#DCCBA6"/>
<path d="M66.7998 124.845L66.5896 124.92H66.3657C66.42 124.784 66.4742 124.655 66.5285 124.518C66.6167 124.627 66.7116 124.736 66.7998 124.852V124.845Z" fill="#7B94A4"/>
<path d="M129.869 105.029C130.188 105.56 130.507 106.09 130.825 106.628C127.678 108.003 127.38 110.663 127.712 113.596C127.224 114.209 126.41 114.767 126.315 115.434C126.098 116.904 126.247 118.421 126.247 119.945C125.365 120.252 124.558 120.531 123.757 120.81C123.418 120.796 123.079 120.789 122.733 120.776C123.391 119.156 124.171 117.577 124.666 115.917C125.453 113.304 126.05 110.636 126.722 107.996C127.074 107.696 127.434 107.39 127.787 107.091C128.478 106.403 129.17 105.716 129.862 105.036L129.869 105.029Z" fill="#0D0D0D"/>
<path d="M122.733 120.776C123.072 120.789 123.411 120.796 123.757 120.81C123.737 121.653 123.642 122.497 123.703 123.334C123.866 125.566 122.835 125.757 121.051 124.886C120.746 125.573 120.447 126.254 120.142 126.941C119.749 126.866 119.362 126.784 118.874 126.689C118.975 126.111 119.07 125.526 119.172 124.94C120.359 123.552 121.546 122.164 122.733 120.776Z" fill="#262626"/>
<path d="M71.2631 110.037C73.1759 105.641 75.0888 101.252 76.9948 96.856C77.2865 96.3932 77.5781 95.9305 77.8698 95.4677C78.2361 95.0731 78.6092 94.6852 78.9755 94.2905C79.3146 93.9638 79.6538 93.6304 79.9929 93.3037L83.5947 88.6763C83.8796 88.3633 84.1577 88.0503 84.4426 87.744C85.1074 87.5059 85.7721 87.2677 86.4436 87.0295C86.6064 87.2405 86.7692 87.4514 86.932 87.6624C82.8147 93.12 77.7206 97.9584 75.6382 104.709C75.1566 105.634 74.5122 106.512 74.2137 107.492C73.5015 109.854 72.9453 112.263 72.328 114.651C71.7447 114.835 71.1613 115.012 70.0489 115.359C70.5305 113.242 70.8968 111.636 71.2631 110.037Z" fill="#0D0D0D"/>
<path d="M73.7932 120.857C75.5161 121.041 77.2526 122.137 78.9619 120.789C79.1247 121.633 79.2943 122.484 79.4571 123.328C78.2022 125.274 76.6624 124.614 75.1023 123.811C74.6682 122.824 74.2273 121.837 73.7932 120.851V120.857Z" fill="#EDE2DA"/>
<path d="M69.9065 88.2C70.0218 88.1592 70.1371 88.166 70.2524 88.2C70.0828 89.6222 69.9065 91.0377 69.7369 92.46C69.4249 92.3987 69.1196 92.3374 68.8076 92.2762C69.1739 90.9152 69.5402 89.5542 69.9065 88.2Z" fill="#DCCBA6"/>
<path d="M75.4076 125.376C77.7138 125.485 77.8766 126.669 76.9338 128.418C76.425 127.404 75.9163 126.39 75.4076 125.376Z" fill="#EDE2DA"/>
<path d="M114.553 91.7454C114.899 92.4123 115.713 93.433 115.523 93.6848C112.721 97.3187 115.618 100.374 116.472 103.586C117.185 106.267 118.283 108.846 119.084 111.507C119.267 112.113 118.921 112.875 118.704 114.331C115.102 109.69 115.272 104.471 113.271 100.122C111.263 102.341 110.157 102.463 106.922 100.769C106.739 100.497 106.555 100.224 106.372 99.9523C106.895 99.7345 107.424 99.5167 107.946 99.299C108.841 99.3942 109.737 99.4895 110.808 99.612C111.012 98.9791 111.27 98.1693 111.528 97.3595C112.206 96.1687 112.884 94.9846 113.562 93.7937C113.895 93.1132 114.22 92.4327 114.553 91.7522V91.7454Z" fill="#0D0D0D"/>
<path d="M90.1404 97.3391C91.4224 98.2986 92.6976 99.2581 93.9322 100.184C91.7005 102.062 89.9301 100.401 88.1598 98.7614C88.214 98.6049 88.1801 98.4756 88.0716 98.3599C87.0677 96.2231 86.213 94.0931 88.3632 92.1061C88.5532 91.9563 88.7499 91.8134 88.9398 91.6637C89.34 91.6637 89.747 91.6637 90.1472 91.6637C90.8255 91.6637 91.5038 91.6637 92.1754 91.6637C92.5145 91.6637 92.8536 91.6501 93.1928 91.6501C93.342 91.725 93.4913 91.759 93.6608 91.7522C93.6744 92.0856 93.6812 92.4191 93.6947 92.7525C93.2199 92.9499 92.7451 93.1472 92.2703 93.3514C91.3071 93.5623 90.3439 93.7733 88.8381 94.0999C89.2518 95.1411 89.6927 96.2435 90.1269 97.3527L90.1404 97.3391Z" fill="#0D0D0D"/>
<path d="M96.7607 103.532C97.9477 103.484 99.1348 103.436 100.315 103.389C100.478 103.443 100.634 103.491 100.797 103.545C102.506 104.185 104.209 104.825 105.918 105.464C105.775 106.158 105.626 106.846 105.484 107.54C104.812 107.268 104.141 106.995 103.381 106.689V110.031C103.035 109.874 102.594 109.806 102.37 109.547C101.984 109.112 101.74 108.554 101.434 108.05C101.421 105.628 99.9284 104.968 97.8392 105.008L96.7607 103.539V103.532Z" fill="#0D0D0D"/>
<path d="M106.956 81.5515C107.268 81.2112 107.566 80.8642 107.892 80.5307C107.926 80.4967 108.048 80.5443 107.722 80.905C109.214 82.7696 110.734 84.6137 112.199 86.4987C113.318 87.9414 115.197 89.0234 114.573 91.3303C112.382 89.248 110.198 87.1656 108.007 85.0833C107.654 84.2258 107.302 83.3616 106.949 82.5042C106.949 82.1843 106.949 81.8713 106.956 81.5515Z" fill="#262626"/>
<path d="M96.7607 103.532L97.8392 105.002V109.003H100.803C101.061 109.105 101.312 109.2 101.57 109.302C101.475 109.044 101.38 108.792 101.285 108.533C101.333 108.37 101.38 108.207 101.427 108.043C101.733 108.547 101.984 109.105 102.364 109.541C102.594 109.799 103.035 109.867 103.374 110.024C105.524 110.418 105.368 108.867 105.477 107.533C105.619 106.839 105.769 106.152 105.911 105.458C106.413 105.498 106.915 105.546 107.424 105.587C108.041 107.363 108.658 109.139 109.201 110.697C110.524 109.758 111.731 108.901 112.945 108.043C115.93 110.97 115.93 114.835 114.41 117.931C112.077 122.695 110.266 128.139 104.127 130.058C101.034 131.024 98.1784 132.793 94.7936 132.637C93.5862 132.582 92.3992 132.208 91.1986 131.977C90.7848 131.01 90.371 130.051 89.9573 129.085C88.6278 127.166 87.2983 125.24 85.9688 123.321C85.7992 122.81 85.6297 122.307 85.4601 121.796C84.9717 120.776 84.4765 119.755 83.9882 118.734C83.9746 118.224 83.9678 117.713 83.9542 117.21C83.9542 116.87 83.9542 116.529 83.9542 116.189C83.9542 115.338 83.9542 114.495 83.9542 113.644C84.4765 110.786 85.2566 108.098 88.4786 107.125C88.9941 108.2 89.3264 109.473 90.1269 110.255C90.4457 110.561 91.8226 109.772 92.718 109.479C93.8711 109.268 95.031 109.057 96.4622 108.799C96.1977 107.472 95.9535 106.233 95.7093 104.995C95.8857 104.512 96.0688 104.022 96.2452 103.539C96.4148 103.539 96.5844 103.539 96.7539 103.539L96.7607 103.532Z" fill="#040404"/>
<path d="M112.945 108.05C111.738 108.908 110.524 109.765 109.201 110.704C108.658 109.146 108.041 107.37 107.424 105.594C109.723 105.369 111.575 106.172 112.945 108.05Z" fill="#0D0D0D"/>
<path d="M78.019 70.9288C78.0462 72.5348 78.0733 74.134 78.1004 75.74C77.144 75.7264 76.1944 75.706 75.238 75.6923C74.9395 74.1 74.6411 72.5144 74.3426 70.922C75.5704 70.922 76.7913 70.9288 78.019 70.9356V70.9288Z" fill="#7B94A4"/>
<path d="M76.9541 112.576C76.9541 111.058 76.9609 109.541 76.9405 108.023C76.927 107.009 76.8727 106.002 76.832 104.988C77.958 102.763 79.9047 101.885 82.4755 102.552C82.1228 103.035 81.7972 103.47 81.4784 103.899C80.8001 104.069 80.1218 104.239 79.4367 104.403C76.771 105.029 78.3039 107.104 78.0123 108.554C78.0123 109.234 78.019 109.908 78.0258 110.589C77.9987 110.759 77.9716 110.929 77.9444 111.099C77.7749 111.575 77.6121 112.052 77.4425 112.528C77.2797 112.542 77.1101 112.562 76.9473 112.576H76.9541Z" fill="#262626"/>
<path d="M96.252 103.539C96.0756 104.022 95.8925 104.512 95.7161 104.995C92.9758 105.321 92.3246 107.05 92.7248 109.479C91.8294 109.772 90.4524 110.561 90.1336 110.255C89.3332 109.473 89.0009 108.2 88.4854 107.125C91.0765 105.927 93.6608 104.729 96.252 103.532V103.539Z" fill="#0D0D0D"/>
<path d="M92.7248 109.479C92.3246 107.043 92.9758 105.321 95.7161 104.995C95.9603 106.233 96.2045 107.472 96.469 108.799C95.0378 109.057 93.8847 109.268 92.7248 109.479Z" fill="#EDE2DA"/>
<path d="M100.803 109.003C100.966 108.846 101.129 108.69 101.285 108.533C101.38 108.792 101.475 109.044 101.57 109.302C101.312 109.2 101.061 109.105 100.803 109.003Z" fill="#0D0D0D"/>
<path d="M78.9483 116.148C78.4532 114.937 77.9512 113.732 77.456 112.521C77.6256 112.045 77.7884 111.568 77.958 111.092C78.3243 111.602 78.6838 112.113 79.0501 112.623C79.0162 113.794 78.9822 114.971 78.9483 116.141V116.148Z" fill="#0D0D0D"/>
</svg>
