<svg xmlns="http://www.w3.org/2000/svg" width="216" height="80" viewBox="0 0 216 80">
  <defs>
    <style>
      .cls-1 {
        fill-rule: evenodd;
        opacity: 0.05;
      }
    </style>
  </defs>
  <path id="shopping-tag" class="cls-1" d="M874,284a3,3,0,1,1,3-3A3,3,0,0,1,874,284Zm0-4a1,1,0,1,0,1,1A1,1,0,0,0,874,280Zm-7,19a1.986,1.986,0,0,1-1.414-.585l-9-9a2,2,0,0,1,0-2.829l11.013-10.6A3.736,3.736,0,0,1,870,275h8a2,2,0,0,1,2,2v8a3.747,3.747,0,0,1-1,2.414L868.428,298.4A2,2,0,0,1,867,299Zm3-22a1.836,1.836,0,0,0-1,.414l-11.014,10.6L867,297h0l10.568-10.985A1.834,1.834,0,0,0,878,285v-8h-8Z" transform="translate(-856 -274.906)"/>
  <path id="discount-star" class="cls-1" d="M919.5,288.008a3.022,3.022,0,1,1,2.476-2.972A2.728,2.728,0,0,1,919.5,288.008Zm0-3.962a1.239,1.239,0,1,0,.5.99A0.948,0.948,0,0,0,919.5,284.046Zm6.934,7.924A3.021,3.021,0,1,1,928.912,289,2.729,2.729,0,0,1,926.436,291.97Zm0-3.962a1.237,1.237,0,1,0,.5.99A0.947,0.947,0,0,0,926.436,288.008Zm-5.448,4.952a0.991,0.991,0,0,1-.92-1.358l3.962-9.9a0.991,0.991,0,0,1,1.84.736l-3.962,9.9A0.991,0.991,0,0,1,920.988,292.96Zm4.9,5.943a0.985,0.985,0,0,1-.45-0.109l-2.468-1.264-2.468,1.264a0.989,0.989,0,0,1-1.283-.344l-1.506-2.329-2.769-.139a0.99,0.99,0,0,1-.94-0.94l-0.139-2.769-2.329-1.505a0.988,0.988,0,0,1-.343-1.283l1.263-2.468-1.263-2.468a0.989,0.989,0,0,1,.343-1.283l2.329-1.5L914,278.992a0.99,0.99,0,0,1,.94-0.94l2.769-.139,1.506-2.329a0.989,0.989,0,0,1,1.283-.344l2.468,1.265,2.468-1.265a0.99,0.99,0,0,1,1.283.344l1.5,2.329,2.77,0.139a0.991,0.991,0,0,1,.94.94l0.138,2.769,2.33,1.5a0.992,0.992,0,0,1,.344,1.283l-1.264,2.468,1.264,2.468a0.992,0.992,0,0,1-.344,1.283l-2.33,1.505-0.138,2.769a0.991,0.991,0,0,1-.94.94l-2.77.139-1.5,2.329A0.991,0.991,0,0,1,925.885,298.9Zm-2.918-3.476a1,1,0,0,1,.452.108l2.122,1.087,1.294-2a0.992,0.992,0,0,1,.783-0.452l2.381-.119,0.119-2.381a1,1,0,0,1,.452-0.783l2-1.3-1.087-2.121a1,1,0,0,1,0-.9l1.087-2.122-2-1.3a1,1,0,0,1-.452-0.782L930,279.985l-2.381-.119a0.992,0.992,0,0,1-.783-0.452l-1.294-2-2.122,1.087a0.994,0.994,0,0,1-.9,0l-2.122-1.087-1.3,2a0.99,0.99,0,0,1-.782.452l-2.381.119-0.119,2.382a0.989,0.989,0,0,1-.451.782l-2,1.3,1.087,2.122a0.986,0.986,0,0,1,0,.9l-1.087,2.121,2,1.3a0.989,0.989,0,0,1,.451.783l0.119,2.381,2.381,0.119a0.99,0.99,0,0,1,.782.452l1.3,2,2.122-1.087A1,1,0,0,1,922.967,295.427Z" transform="translate(-856 -274.906)"/>
  <path id="USD-circle" class="cls-1" d="M977,299a12,12,0,1,1,12-12A12.014,12.014,0,0,1,977,299Zm0-22a10,10,0,1,0,10,10A10.011,10.011,0,0,0,977,277Zm0,11a3,3,0,1,1,0-6h2a1,1,0,0,1,0,2h-2a1,1,0,1,0,0,2A1,1,0,0,1,977,288Zm0,4h-2a1,1,0,0,1,0-2h2a1,1,0,0,0,0-2,1,1,0,0,1,0-2A3,3,0,0,1,977,292Zm0-8a1,1,0,0,1-1-1v-2a1,1,0,0,1,2,0v2A1,1,0,0,1,977,284Zm0,10a1,1,0,0,1-1-1v-2a1,1,0,0,1,2,0v2A1,1,0,0,1,977,294Z" transform="translate(-856 -274.906)"/>
  <path id="t-shirt" class="cls-1" d="M1039,299h-14a0.89,0.89,0,0,1-1.02-.84V283.942a1,1,0,1,1,1.99,0L1026,297h12V284a0.967,0.967,0,0,1,.88-1.073,1,1,0,0,1,.99,1.015V298.16A0.768,0.768,0,0,1,1039,299Zm2.4-14.042h-2.52a1.016,1.016,0,0,1,0-2.031h1.76l1.05-3.3-4.42-2.417c-0.91,1.023-2.86,2.808-5.34,2.808a7.712,7.712,0,0,1-5.34-2.727l-4.42,2.333,1.05,3.3h1.76a1.016,1.016,0,0,1,0,2.031h-2.52a1,1,0,0,1-.96-0.747l-1.46-4.842a1.03,1.03,0,0,1,.51-1.171l5.82-3.08a0.988,0.988,0,0,1,1.26.3c0.01,0.023,1.91,2.572,4.3,2.572,2.36,0,4.27-2.629,4.29-2.655a0.984,0.984,0,0,1,1.28-.3l5.82,3.191a1.029,1.029,0,0,1,.49,1.166l-1.46,4.825A0.988,0.988,0,0,1,1041.4,284.958Z" transform="translate(-856 -274.906)"/>
  <path id="controller-2" class="cls-1" d="M865.245,341.332a2.41,2.41,0,0,1-1.716-.71l-6.718-6.718a2.433,2.433,0,0,1,0-3.432l12.214-12.212a2.431,2.431,0,0,1,3.433,0l6.717,6.716a2.431,2.431,0,0,1,0,3.435l-1.122,1.123a4.389,4.389,0,0,1-3.233,1.1l-3.317-.2a0.99,0.99,0,0,1-.9-1.072,0.974,0.974,0,0,1,1.072-.9l3.317,0.2a2.493,2.493,0,0,0,1.661-.606l1.124-1.042a0.45,0.45,0,0,0,0-.631l-6.717-6.717a0.45,0.45,0,0,0-.631,0l-12.213,12.211a0.454,0.454,0,0,0,0,.632l6.717,6.717a0.445,0.445,0,0,0,.315.128h0a0.444,0.444,0,0,0,.314-0.128l1.843-1.842a1.752,1.752,0,0,0,.375-1.433l-0.739-2.645a0.991,0.991,0,0,1,1.908-.534l0.74,2.645a3.7,3.7,0,0,1-.883,3.368l-1.841,1.841a2.418,2.418,0,0,1-1.717.711h0Zm-3.2-6.937a0.991,0.991,0,0,1-.7-1.691l2.973-2.973a0.991,0.991,0,1,1,1.4,1.4l-2.973,2.972A0.986,0.986,0,0,1,862.047,334.4Zm2.973,0a0.982,0.982,0,0,1-.7-0.29l-2.973-2.972a0.991,0.991,0,0,1,1.4-1.4l2.973,2.973A0.991,0.991,0,0,1,865.02,334.4Zm2.973-.331a0.991,0.991,0,0,1-.7-1.691l3.634-3.632a0.991,0.991,0,1,1,1.4,1.4l-3.633,3.632A0.986,0.986,0,0,1,867.993,334.064Zm1.982-9.577h-1.982v-1.981h1.982v1.981Zm2.973,0h-1.982v-1.981h1.982v1.981Zm-2.973,2.973h-1.982v-1.982h1.982v1.982Zm2.973,0h-1.982v-1.982h1.982v1.982Z" transform="translate(-856 -274.906)"/>
  <path id="theatre-masks" class="cls-1" d="M919,338.066c-4.506,0-8-5.32-8-9.9v-7.626a1,1,0,0,1,.326-0.74,11.91,11.91,0,0,1,15.348,0,1,1,0,0,1,.326.74v7.626C927,332.841,923.579,338.066,919,338.066Zm-6-17.048v7.15c0,3.578,2.677,7.9,6,7.9s6-4.32,6-7.9v-7.146A9.921,9.921,0,0,0,913,321.018ZM922.112,327a0.408,0.408,0,0,0-.112-0.011c-0.044,0,.01-0.057.022-0.093l-2.006.061a2,2,0,0,1,4,0h-1.973A0.485,0.485,0,0,0,922.112,327Zm7.9,1.973A1.886,1.886,0,0,1,928,327h1.973a0.355,0.355,0,0,0-.07-0.043,0.376,0.376,0,0,0,.112.012c0.044,0-.009.056-0.022,0.093L932,327A1.892,1.892,0,0,1,930.015,328.969ZM916.1,327a0.421,0.421,0,0,0-.113-0.011c-0.044,0,.01-0.057.023-0.093l-2.007.061a2,2,0,0,1,4,0h-1.974A0.558,0.558,0,0,0,916.1,327Zm3.269,6h-0.733a1.008,1.008,0,0,1-.235-0.028,3.3,3.3,0,0,1-2.793-1.525A1,1,0,0,1,916.5,330h5a1,1,0,0,1,.894,1.447,3.3,3.3,0,0,1-2.793,1.525A1.008,1.008,0,0,1,919.366,333ZM930,335h-2a1,1,0,0,1-.67-1.744,1.038,1.038,0,0,1-.024-0.327,1,1,0,0,1,1.089-.9c2.308,0.215,2.573,1.673,2.6,1.839A1,1,0,0,1,930,335Zm-2.991,6a6.289,6.289,0,0,1-3.576-1.166,1,1,0,0,1,1.127-1.653,4.327,4.327,0,0,0,2.449.819c3.318,0,5.991-4.321,5.991-7.9v-7.149a10.5,10.5,0,0,0-4.106-1.831,1,1,0,0,1,.395-1.961,12.082,12.082,0,0,1,5.386,2.577,1,1,0,0,1,.325.737V331.1C935,335.774,931.582,341,927.009,341Z" transform="translate(-856 -274.906)"/>
  <path id="hamburger" class="cls-1" d="M988.5,329h-22a1,1,0,0,1-1-1.01c0.056-5.965,4.094-8.99,12-8.99s11.943,3.025,12,8.99A1,1,0,0,1,988.5,329Zm-20.945-2h19.89c-0.3-2.822-2.009-6-9.945-6S967.852,324.178,967.555,327ZM985.5,339h-16c-3.164,0-4-3.271-4-5a1,1,0,0,1,1-1h12.656a1,1,0,0,1,0,2h-11.54a2.109,2.109,0,0,0,1.884,2h16a2.11,2.11,0,0,0,1.884-2h-4.447a1,1,0,1,1,0-2H988.5a1,1,0,0,1,1,1C989.5,335.729,988.664,339,985.5,339Zm-4.323-3.043h-0.065a3.4,3.4,0,0,1-2.776-2.088,4.074,4.074,0,0,0-.458-0.754c-0.165.1-.414,0.286-0.523,0.369a3.437,3.437,0,0,1-4.523-.784l-0.078-.1a1.268,1.268,0,0,0-1.254-.6h-5a1,1,0,0,1,0-2h5a3.206,3.206,0,0,1,2.809,1.346l0.068,0.083a1.493,1.493,0,0,0,1.767.463,2.641,2.641,0,0,1,2.171-.786,3.069,3.069,0,0,1,1.806,1.86,1.586,1.586,0,0,0,1.048.991,0.876,0.876,0,0,0,.653-0.562c0.138-.238.265-0.464,0.383-0.676,0.818-1.459,1.524-2.719,3.295-2.719h3a1,1,0,0,1,0,2h-3c-0.521,0-.724.222-1.55,1.7-0.123.219-.254,0.453-0.4,0.7A2.718,2.718,0,0,1,981.177,335.957Z" transform="translate(-856 -274.906)"/>
  <path id="diamond-2" class="cls-1" d="M1031.96,340.8a0.974,0.974,0,0,1-.79-0.4l-10.95-14.728a1,1,0,0,1-.07-1.077l3.98-7.158A0.94,0.94,0,0,1,1025,317h14a0.832,0.832,0,0,1,.8.437l3.98,7.158a1,1,0,0,1-.07,1.077L1032.76,340.4A0.979,0.979,0,0,1,1031.96,340.8ZM1022.2,325l9.76,13.138L1041.73,325l-3.39-6.085h-12.76Zm20.71,0.879h-21.89a1,1,0,0,1-1-1A0.894,0.894,0,0,1,1021,324h22a0.829,0.829,0,0,1,.9.885A0.991,0.991,0,0,1,1042.91,325.88ZM1031.96,340.8a0.987,0.987,0,0,1-.94-0.694l-6.97-21.886a1,1,0,0,1,1.9-.6l6.01,18.906,6.02-18.906a1,1,0,0,1,1.9.6l-6.97,21.886A0.99,0.99,0,0,1,1031.96,340.8Zm-4.74-14.922a0.973,0.973,0,0,1-.56-0.174,0.99,0.99,0,0,1-.27-1.382l4.75-6.964a1,1,0,0,1,1.65,1.121l-4.75,6.964A1,1,0,0,1,1027.22,325.88Zm9.49,0a1,1,0,0,1-.82-0.435l-4.75-6.964a1,1,0,0,1,1.65-1.121l4.75,6.964a0.99,0.99,0,0,1-.27,1.382A0.973,0.973,0,0,1,1036.71,325.88Z" transform="translate(-856 -274.906)"/>
</svg>
