<svg width="480px" height="70px" preserveAspectRatio="none" viewBox="0 0 480 70" version="1.1" xmlns="http://www.w3.org/2000/svg" xmlns:xlink="http://www.w3.org/1999/xlink">
  <g stroke="none" fill="#e8e9e9">
    <path d="M 0,15 a 15,15 0 0 1 15,-15
             h 450 a 15,15 0 0 1 15,15
             v 8 a 12,12 0 0 0 -12,12 a 12,12 0 0 0 12,12
             v 8 a 15,15 0 0 1 -15,15
             h -450 a 15,15 0 0 1 -15,-15
             v -8 a 12,12 0 0 0 12,-12 a 12,12 0 0 0 -12,-12" />
  </g>
</svg>
