<svg width="33" height="33" viewBox="0 0 33 33" fill="none" xmlns="http://www.w3.org/2000/svg">
<path d="M15.3669 0.0883382C15.5846 0.0694086 15.8464 0.0410141 15.9506 0.0283944C16.0547 0.0157747 16.4901 0.00315493 16.9192 0C17.3514 0 17.8342 0.0094648 17.9919 0.0283944C18.1528 0.0441691 18.4967 0.0820283 18.7586 0.107268C19.0173 0.135662 19.4369 0.192451 19.6894 0.23662C19.9418 0.280789 20.3393 0.359663 20.5728 0.413296C20.8063 0.463775 21.2322 0.577353 21.5193 0.662536C21.8064 0.744565 22.245 0.889692 22.4974 0.98434C22.7498 1.07899 23.0969 1.21465 23.2704 1.29037C23.4439 1.36293 23.7847 1.52068 24.0276 1.64057C24.2706 1.7573 24.6618 1.96237 24.8953 2.09488C25.1288 2.23054 25.561 2.49871 25.8576 2.69747C26.1542 2.89307 26.5517 3.17702 26.741 3.3253C26.9303 3.47358 27.2521 3.73544 27.4509 3.90581C27.6497 4.07933 28.0504 4.45792 28.3407 4.75133C28.6309 5.04159 28.9748 5.41071 29.1105 5.5653C29.243 5.7199 29.467 5.99753 29.6122 6.18052C29.7541 6.3635 29.9908 6.68215 30.1359 6.89038C30.281 7.0986 30.5366 7.49612 30.7038 7.77376C30.871 8.05139 31.1361 8.5341 31.2938 8.84644C31.4484 9.15878 31.6567 9.60678 31.7576 9.84024C31.8554 10.0737 32.0353 10.5564 32.1552 10.9129C32.2719 11.2694 32.4265 11.7805 32.4959 12.0487C32.5653 12.3169 32.6631 12.7649 32.7168 13.0425C32.7673 13.3201 32.8304 13.724 32.8588 13.9417C32.8872 14.1593 32.925 14.4906 32.9439 14.6831C32.9629 14.8755 32.985 15.3772 32.9944 15.8031C33.007 16.4372 32.9976 16.7085 32.9439 17.3017C32.9061 17.6992 32.8461 18.2134 32.8114 18.4374C32.7799 18.6614 32.7073 19.0527 32.6568 19.305C32.6032 19.5574 32.5054 19.9676 32.436 20.22C32.3697 20.4724 32.2246 20.933 32.1173 21.2453C32.0132 21.5577 31.8397 22.012 31.7355 22.2549C31.6314 22.4978 31.42 22.9458 31.2686 23.2487C31.114 23.5516 30.8647 24.0059 30.7164 24.2583C30.565 24.5107 30.3031 24.9145 30.1327 25.1574C29.9624 25.4004 29.6847 25.7758 29.5112 25.9935C29.3377 26.2112 29.06 26.5362 28.896 26.7191C28.7319 26.9021 28.4006 27.246 28.1577 27.4826C27.9179 27.7193 27.5897 28.0253 27.432 28.1609C27.2742 28.2966 26.9966 28.5206 26.8167 28.6626C26.6369 28.8046 26.3088 29.0443 26.0879 29.1989C25.8671 29.3535 25.5042 29.5901 25.2834 29.7226C25.0593 29.8551 24.7028 30.0571 24.4851 30.1738C24.2674 30.2905 23.914 30.4672 23.6963 30.5682C23.4786 30.666 23.1032 30.8269 22.8602 30.9247C22.6173 31.0193 22.2418 31.1581 22.0241 31.2275C21.8064 31.3001 21.4247 31.4168 21.1723 31.4862C20.9198 31.5557 20.475 31.6598 20.1784 31.7197C19.8818 31.7797 19.4275 31.8554 19.1688 31.8901C18.9069 31.9279 18.5314 31.9721 18.3327 31.991C18.1339 32.01 17.6133 32.0352 17.1811 32.0415C16.6857 32.0541 16.244 32.0447 15.9979 32.0226C15.7802 32.0005 15.4047 31.9626 15.1618 31.9374C14.9188 31.909 14.5213 31.8554 14.2784 31.8144C14.0354 31.7702 13.6726 31.7008 13.4738 31.6566C13.275 31.6124 12.9248 31.5241 12.7008 31.4642C12.4768 31.4011 12.0509 31.2686 11.7543 31.1676C11.4577 31.0666 11.0128 30.8963 10.7604 30.789C10.508 30.6817 10.0821 30.483 9.81388 30.3473C9.5457 30.2148 9.18286 30.0224 9.00933 29.9214C8.8358 29.8204 8.54553 29.6438 8.36254 29.527C8.17954 29.4135 7.87665 29.2052 7.68419 29.0696C7.49173 28.9339 7.16675 28.6878 6.95852 28.5206C6.75343 28.3534 6.44108 28.0884 6.26439 27.9306C6.09086 27.7729 5.75327 27.4448 5.51663 27.205C5.28 26.9652 4.97711 26.6403 4.8446 26.4825C4.70893 26.3248 4.48492 26.0503 4.33978 25.8673C4.1978 25.6843 3.96117 25.3657 3.81603 25.1574C3.6709 24.9492 3.40903 24.5454 3.23865 24.2583C3.06512 23.9712 2.8064 23.5043 2.66442 23.2172C2.52244 22.9301 2.32998 22.5262 2.24164 22.318C2.15329 22.1098 2.01447 21.7627 1.93559 21.545C1.85671 21.3274 1.74313 20.9929 1.68318 20.8036C1.62324 20.6143 1.51912 20.2452 1.45286 19.9834C1.3866 19.7247 1.2888 19.283 1.23516 19.0053C1.18468 18.7277 1.12158 18.3239 1.09318 18.1062C1.06478 17.8885 1.02692 17.5541 1.00799 17.3648C0.989061 17.1755 0.966975 16.677 0.95751 16.2605C0.944889 15.7116 0.954355 15.3424 0.992216 14.9197C1.02061 14.5979 1.06478 14.1593 1.09318 13.9417C1.11842 13.724 1.17837 13.3548 1.21938 13.1214C1.26355 12.8879 1.3519 12.4683 1.42131 12.1907C1.49072 11.913 1.60115 11.5092 1.67056 11.2915C1.73682 11.0738 1.85671 10.7205 1.93559 10.5028C2.01447 10.2851 2.15329 9.93804 2.24164 9.72982C2.32998 9.52159 2.51929 9.11776 2.66442 8.83066C2.8064 8.54356 3.06512 8.07663 3.23865 7.78953C3.40903 7.50243 3.6709 7.0986 3.81603 6.89038C3.96117 6.68215 4.19465 6.3635 4.33663 6.18367C4.47861 6.00384 4.74363 5.68204 4.92663 5.47381C5.10963 5.26243 5.47877 4.87753 5.74696 4.61251C6.01514 4.35065 6.35274 4.03201 6.50103 3.90581C6.64932 3.77961 6.89857 3.57454 7.05317 3.4515C7.20777 3.3253 7.50119 3.10761 7.69997 2.96564C7.89874 2.82051 8.2458 2.5902 8.47297 2.44823C8.70013 2.30941 9.06928 2.09172 9.29329 1.96868C9.51731 1.84564 9.91485 1.64372 10.1767 1.52068C10.4354 1.39764 10.8488 1.2178 11.0917 1.12316C11.3346 1.02851 11.7322 0.886537 11.9751 0.804508C12.2181 0.725635 12.603 0.612057 12.827 0.548959C13.051 0.489015 13.4359 0.397522 13.6789 0.347043C13.9218 0.296564 14.3131 0.224 14.5465 0.189296C14.78 0.154592 15.1492 0.110423 15.3669 0.0883382Z" fill="white"/>
<path d="M12.9527 6.59069C13.2492 6.57176 13.6026 6.55283 13.7414 6.54652C13.8803 6.54337 15.4988 6.54021 17.3383 6.54652C19.4112 6.54968 20.8373 6.56545 21.0928 6.58754C21.3168 6.60647 21.6608 6.64433 21.8501 6.67272C22.0394 6.70111 22.3612 6.76421 22.56 6.81785C22.7587 6.86833 23.0805 6.97559 23.2699 7.05131C23.4592 7.13019 23.6958 7.23745 23.7904 7.29424C23.8851 7.34788 24.0618 7.4583 24.1848 7.54033C24.3079 7.62235 24.5193 7.78641 24.6581 7.9063C24.7969 8.02619 25.0115 8.24703 25.1345 8.39216C25.2576 8.53729 25.4437 8.78653 25.5447 8.94112C25.6456 9.09571 25.7813 9.33864 25.8444 9.47746C25.9075 9.61627 26.0116 9.88129 26.0747 10.0706C26.1378 10.2567 26.223 10.5817 26.264 10.7962C26.3082 11.0076 26.3587 11.3168 26.3745 11.4808C26.3934 11.6449 26.425 12.115 26.4439 12.522C26.466 13.0141 26.4723 14.3708 26.4628 16.5603C26.4534 18.5668 26.4344 19.9992 26.4123 20.22C26.3934 20.4188 26.3555 20.7311 26.3272 20.9141C26.3019 21.0971 26.2514 21.3589 26.2167 21.4978C26.182 21.6366 26.1189 21.8637 26.0716 22.0025C26.0274 22.1414 25.9107 22.4253 25.8097 22.6335C25.7087 22.8418 25.5384 23.1383 25.4279 23.2961C25.3175 23.4538 25.062 23.7441 24.8632 23.9428C24.6549 24.1511 24.3804 24.3877 24.2164 24.4981C24.0586 24.6054 23.8188 24.7505 23.68 24.8199C23.5412 24.8893 23.314 24.9934 23.1752 25.0471C23.0364 25.1038 22.7366 25.1953 22.5126 25.2521C22.2886 25.3089 21.9163 25.3783 21.6923 25.4067C21.4683 25.4351 20.9919 25.473 20.6353 25.4919C20.2315 25.514 18.8622 25.5298 16.9754 25.5298C15.0824 25.5298 13.7225 25.514 13.3155 25.4919C12.959 25.473 12.5393 25.4414 12.3847 25.4225C12.2301 25.4036 11.9809 25.3689 11.8326 25.3405C11.6843 25.3152 11.4445 25.2584 11.2962 25.2174C11.1479 25.1733 10.9302 25.1007 10.8072 25.0565C10.6841 25.0124 10.4728 24.9177 10.3339 24.8483C10.1951 24.7789 9.98371 24.659 9.86066 24.5801C9.73762 24.5044 9.542 24.3593 9.41895 24.2583C9.2959 24.1605 9.0782 23.9523 8.93306 23.7977C8.78793 23.6431 8.57969 23.3813 8.46926 23.2172C8.36199 23.0531 8.20108 22.7692 8.11589 22.5862C8.02755 22.4032 7.90766 22.0909 7.84455 21.8921C7.78145 21.6934 7.70257 21.3873 7.66787 21.2138C7.63632 21.0403 7.5953 20.7563 7.57637 20.5828C7.55744 20.4093 7.52904 19.9834 7.51011 19.6363C7.49434 19.2893 7.47856 17.6929 7.47856 16.087C7.47856 14.4812 7.49434 12.8564 7.51011 12.4746C7.52904 12.0929 7.55744 11.6386 7.57637 11.4651C7.59215 11.2915 7.64263 10.9792 7.6868 10.771C7.72781 10.5628 7.813 10.2441 7.8761 10.0611C7.93921 9.87813 8.06541 9.57526 8.16006 9.38281C8.25472 9.19036 8.42825 8.9001 8.54499 8.7392C8.66173 8.57515 8.89205 8.30382 9.05611 8.13661C9.22018 7.9694 9.45366 7.76117 9.57671 7.66968C9.69975 7.58134 9.91115 7.43937 10.05 7.35734C10.1888 7.27531 10.4664 7.1428 10.6652 7.06078C10.864 6.9819 11.1637 6.87779 11.3278 6.83362C11.4919 6.7863 11.8042 6.72004 12.0219 6.68534C12.2396 6.65063 12.6561 6.60962 12.9527 6.59069Z" fill="black"/>
<path d="M13.0949 8.29433C13.3821 8.2754 13.7449 8.25647 13.8995 8.25016C14.0541 8.247 15.5969 8.24385 17.3228 8.25016C19.1811 8.25331 20.6483 8.27224 20.9196 8.29117C21.172 8.3101 21.5128 8.34796 21.6768 8.37635C21.8409 8.40475 22.0964 8.46154 22.2447 8.50571C22.393 8.54672 22.6391 8.64137 22.7969 8.71709C22.9546 8.78965 23.1534 8.89692 23.2386 8.95686C23.3269 9.01681 23.4942 9.15878 23.6141 9.27236C23.7308 9.38593 23.8949 9.56261 23.9737 9.66672C24.0526 9.77083 24.1851 9.99799 24.2672 10.1715C24.3492 10.345 24.4533 10.6069 24.4943 10.7552C24.5385 10.9035 24.5953 11.159 24.6237 11.3231C24.6521 11.4871 24.6931 11.8626 24.712 12.1591C24.7404 12.5314 24.753 13.7177 24.753 16.0239C24.753 18.3302 24.7404 19.5164 24.712 19.8887C24.6931 20.1821 24.6521 20.5607 24.6237 20.7248C24.5953 20.8888 24.5385 21.1444 24.4943 21.2927C24.4533 21.4409 24.3492 21.7028 24.2672 21.8763C24.1851 22.0498 24.0463 22.2833 23.9611 22.3937C23.8759 22.5073 23.6992 22.6966 23.5636 22.8196C23.4311 22.9427 23.226 23.1004 23.1061 23.173C22.9893 23.2424 22.7653 23.3528 22.6076 23.4159C22.4498 23.479 22.2037 23.5579 22.0554 23.5958C21.9071 23.6305 21.6295 23.6809 21.4402 23.7062C21.2509 23.7314 20.6167 23.7661 20.0362 23.7882C19.342 23.8103 18.039 23.8198 16.2343 23.8071C14.723 23.7977 13.2842 23.7756 13.0318 23.7567C12.7794 23.7377 12.4387 23.6999 12.2746 23.6715C12.1105 23.6431 11.855 23.5863 11.7067 23.5421C11.5584 23.5011 11.3092 23.4065 11.1546 23.3307C11 23.2582 10.8012 23.1509 10.7128 23.091C10.6276 23.031 10.4573 22.8891 10.3374 22.7755C10.2206 22.6619 10.0566 22.4852 9.9777 22.3811C9.89882 22.277 9.76631 22.0498 9.68427 21.8763C9.60224 21.7028 9.49812 21.4409 9.45711 21.2927C9.41293 21.1444 9.35614 20.8888 9.32775 20.7248C9.29935 20.5607 9.25833 20.1853 9.2394 19.8887C9.21101 19.5164 9.19839 18.3302 9.19839 16.0239C9.19839 13.7177 9.21101 12.5314 9.2394 12.1591C9.25833 11.8626 9.29935 11.4871 9.32775 11.3231C9.35614 11.159 9.41293 10.9035 9.45711 10.7552C9.49812 10.6069 9.60224 10.345 9.68427 10.1715C9.76631 9.99799 9.89882 9.77083 9.9777 9.66672C10.0566 9.56261 10.2206 9.38593 10.3374 9.27236C10.4573 9.15878 10.6245 9.01681 10.7128 8.95686C10.798 8.89692 11 8.78965 11.1546 8.71709C11.3092 8.64137 11.5584 8.54672 11.7067 8.50571C11.855 8.46154 12.1105 8.40475 12.2746 8.37635C12.4387 8.34796 12.8078 8.3101 13.0949 8.29433Z" fill="white"/>
<path d="M21.3776 10.0327C21.4628 9.97274 21.6143 9.89702 21.7089 9.86547C21.8288 9.82446 21.9487 9.81184 22.1033 9.8213C22.2485 9.82761 22.3841 9.85916 22.4977 9.90964C22.5924 9.95066 22.7407 10.0485 22.8227 10.1242C22.911 10.2062 23.0151 10.3482 23.0688 10.4554C23.135 10.588 23.1666 10.711 23.1792 10.8656C23.1918 11.0328 23.1824 11.1338 23.1382 11.2757C23.1066 11.3798 23.0278 11.5344 22.9678 11.6228C22.9047 11.708 22.7848 11.8278 22.6996 11.8846C22.6144 11.9414 22.4756 12.0108 22.3873 12.0392C22.2737 12.0739 22.157 12.0834 21.9771 12.0739C21.8004 12.0645 21.6774 12.0361 21.567 11.9824C21.4818 11.9414 21.3366 11.8373 21.2514 11.749C21.1631 11.6638 21.059 11.5187 21.018 11.4335C20.9643 11.3231 20.9359 11.2 20.9265 11.0233C20.917 10.8435 20.9265 10.7268 20.9612 10.6132C20.9896 10.5249 21.059 10.386 21.1158 10.3009C21.1726 10.2157 21.2893 10.0958 21.3776 10.0327Z" fill="black"/>
<path d="M15.9982 11.2442C16.1276 11.2158 16.3705 11.1811 16.5346 11.1685C16.6986 11.1527 16.97 11.1464 17.134 11.1527C17.2981 11.1622 17.5474 11.1842 17.6862 11.2C17.825 11.2189 18.0743 11.2694 18.2383 11.3104C18.4024 11.3546 18.6863 11.4524 18.8693 11.5313C19.0523 11.607 19.3205 11.7427 19.4688 11.831C19.6171 11.9193 19.8506 12.0802 19.9894 12.1907C20.1282 12.2979 20.3491 12.4998 20.4816 12.6355C20.611 12.7743 20.7845 12.9699 20.8634 13.074C20.9422 13.1782 21.0684 13.3611 21.141 13.4842C21.2167 13.6072 21.3303 13.8186 21.3934 13.9574C21.4597 14.0962 21.5512 14.3234 21.5985 14.4622C21.6458 14.601 21.7089 14.844 21.7436 14.9986C21.7752 15.1531 21.8162 15.4497 21.8351 15.6516C21.8572 15.904 21.8572 16.1406 21.8351 16.3867C21.8194 16.5855 21.7815 16.86 21.7563 16.9925C21.7279 17.1281 21.6616 17.3742 21.608 17.5383C21.5543 17.7023 21.4565 17.9579 21.3871 18.1062C21.3209 18.2544 21.1599 18.5321 21.0337 18.7214C20.9044 18.9107 20.6741 19.2009 20.5226 19.365C20.368 19.529 20.1282 19.7499 19.9894 19.8572C19.8506 19.9644 19.6392 20.1159 19.5161 20.1884C19.3931 20.2641 19.1817 20.3777 19.0429 20.4408C18.904 20.5039 18.6548 20.6017 18.4907 20.6585C18.3267 20.7121 18.0774 20.7784 17.9386 20.8036C17.7998 20.832 17.5253 20.8667 17.3328 20.8825C17.0993 20.9046 16.8532 20.9046 16.6134 20.8825C16.4147 20.8667 16.1402 20.8289 16.0077 20.8036C15.872 20.7752 15.6259 20.709 15.4618 20.6553C15.2978 20.6017 15.0422 20.5039 14.8939 20.4345C14.7456 20.3682 14.4617 20.2042 14.2629 20.0717C14.0073 19.9013 13.7928 19.7215 13.5341 19.4659C13.2785 19.2072 13.0987 18.9927 12.9283 18.7371C12.7958 18.5384 12.6349 18.2608 12.5718 18.1219C12.5087 17.9831 12.414 17.7528 12.3667 17.6077C12.3162 17.4657 12.2468 17.2259 12.2152 17.0713C12.1805 16.9199 12.1364 16.6233 12.1206 16.4088C12.0953 16.1375 12.0953 15.9103 12.1206 15.6358C12.1364 15.4245 12.1805 15.1279 12.2152 14.9733C12.2468 14.8219 12.3162 14.5821 12.3667 14.437C12.414 14.295 12.5087 14.0647 12.5718 13.9259C12.6349 13.7871 12.7926 13.5189 12.9188 13.3264C13.0482 13.134 13.2722 12.85 13.4173 12.6954C13.5656 12.5409 13.7991 12.3232 13.9348 12.2159C14.0704 12.1055 14.2913 11.9509 14.4206 11.8689C14.55 11.79 14.7709 11.6701 14.9097 11.607C15.0485 11.5407 15.2978 11.4461 15.4618 11.3925C15.6259 11.3388 15.8688 11.2726 15.9982 11.2442Z" fill="black"/>
<path d="M15.9662 13.0267C16.0798 12.9888 16.2628 12.9384 16.3764 12.9131C16.5152 12.8847 16.7361 12.8753 17.0547 12.8816C17.4112 12.891 17.5911 12.91 17.7804 12.9604C17.9192 12.9983 18.1685 13.0929 18.3325 13.1718C18.4966 13.2507 18.7175 13.3769 18.8216 13.4526C18.9257 13.5252 19.1182 13.6987 19.2507 13.8344C19.38 13.9732 19.5378 14.1562 19.5946 14.2413C19.6545 14.3297 19.7618 14.5284 19.8375 14.683C19.9101 14.8408 20.0016 15.0806 20.0394 15.2194C20.0994 15.4339 20.112 15.5569 20.112 16.0081C20.1152 16.475 20.1057 16.5791 20.0426 16.8126C20.0016 16.9609 19.9101 17.207 19.8344 17.3647C19.7618 17.5225 19.6545 17.7212 19.5946 17.8064C19.5346 17.8948 19.38 18.0746 19.2475 18.2134C19.1182 18.3491 18.9257 18.5226 18.8216 18.5951C18.7175 18.6709 18.4966 18.7971 18.3325 18.8759C18.1685 18.9548 17.9192 19.0526 17.7804 19.0905C17.569 19.1473 17.4396 19.1599 16.9916 19.1599C16.5247 19.163 16.4205 19.1536 16.1871 19.0905C16.0388 19.0495 15.7832 18.9517 15.6191 18.8759C15.4551 18.7971 15.2279 18.6646 15.1143 18.5794C15.0007 18.4973 14.8083 18.3238 14.6852 18.1945C14.5622 18.0683 14.4139 17.8948 14.3571 17.8064C14.2972 17.7212 14.1899 17.5225 14.1142 17.3647C14.0416 17.207 13.9501 16.9672 13.9091 16.8284C13.8491 16.6107 13.8397 16.4971 13.8397 16.0239C13.8397 15.5506 13.8491 15.4371 13.9091 15.2194C13.9501 15.0806 14.0447 14.8313 14.1236 14.6673C14.2025 14.5032 14.3287 14.2824 14.4013 14.1782C14.477 14.0741 14.6505 13.8817 14.7862 13.7523C14.925 13.6198 15.0986 13.4715 15.1774 13.4179C15.2563 13.3643 15.4172 13.2696 15.5403 13.2065C15.6633 13.1466 15.8526 13.0645 15.9662 13.0267Z" fill="white"/>
</svg>
