<svg width="37" height="31" viewBox="0 0 37 31" fill="none" xmlns="http://www.w3.org/2000/svg">
<path d="M11.962 30.0471C25.4582 30.0471 32.8421 18.8634 32.8421 9.16785C32.8421 8.85345 32.8351 8.53205 32.8211 8.21765C34.2575 7.17891 35.4971 5.89229 36.4816 4.41824C35.1438 5.01341 33.7235 5.40211 32.2691 5.57106C33.8005 4.65316 34.9471 3.21119 35.4964 1.51245C34.0558 2.3662 32.4803 2.96844 30.8375 3.29337C29.7306 2.11729 28.2671 1.33858 26.6732 1.07764C25.0793 0.816703 23.4439 1.08807 22.0197 1.84979C20.5956 2.61151 19.462 3.82116 18.7943 5.2917C18.1266 6.76225 17.962 8.41179 18.3258 9.9853C15.4087 9.83892 12.5549 9.08117 9.94949 7.76116C7.34405 6.44116 5.0451 4.58837 3.20168 2.32291C2.26475 3.93822 1.97805 5.84965 2.39985 7.66874C2.82164 9.48783 3.92027 11.0781 5.47246 12.1163C4.30717 12.0793 3.16741 11.7655 2.14734 11.201V11.2918C2.14629 12.987 2.73234 14.6302 3.80587 15.9421C4.87939 17.254 6.37413 18.1537 8.036 18.4882C6.95654 18.7835 5.8236 18.8266 4.72485 18.614C5.1938 20.0718 6.1062 21.3469 7.33472 22.2612C8.56324 23.1755 10.0466 23.6835 11.5777 23.7143C8.9783 25.7561 5.76725 26.8636 2.46175 26.8584C1.87555 26.8575 1.28992 26.8215 0.708008 26.7508C4.06604 28.905 7.97233 30.0492 11.962 30.0471Z" fill="white"/>
</svg>
