<svg width="33" height="33" viewBox="0 0 33 33" fill="none" xmlns="http://www.w3.org/2000/svg">
<path fill-rule="evenodd" clip-rule="evenodd" d="M16.2669 0.00902748C17.2307 0.0219805 18.0068 0.0737927 18.466 0.145034C18.8541 0.203323 19.5268 0.33933 19.9537 0.442955C20.3806 0.546579 21.0791 0.747351 21.506 0.896311C21.9329 1.04527 22.722 1.37557 23.2523 1.63463C23.7892 1.8937 24.6171 2.37296 25.0957 2.69678C25.5743 3.02061 26.2599 3.52578 26.6157 3.83018C26.9714 4.1281 27.4953 4.62031 27.7799 4.91823C28.0645 5.21615 28.5237 5.74075 28.7954 6.07753C29.067 6.41431 29.4939 7.01015 29.7462 7.40522C30.0049 7.79381 30.4253 8.55804 30.6905 9.08911C30.9622 9.63962 31.3114 10.4816 31.4925 11.0321C31.6672 11.5696 31.8741 12.2885 31.9453 12.6382C32.0229 12.9815 32.1393 13.668 32.2105 14.1602C32.301 14.769 32.3398 15.3908 32.3398 16.1485C32.3398 16.8868 32.301 17.5475 32.2169 18.1562C32.1458 18.6549 32.0294 19.3414 31.9582 19.6782C31.8806 20.015 31.7318 20.5849 31.6219 20.9411C31.5119 21.2974 31.305 21.8802 31.1627 22.2365C31.0204 22.5927 30.7293 23.2209 30.5159 23.6289C30.3024 24.0369 29.9467 24.6522 29.7332 24.989C29.5133 25.3258 29.0994 25.8957 28.8148 26.2519C28.5367 26.6081 28.071 27.1457 27.7799 27.4436C27.4953 27.7415 26.9714 28.2337 26.6157 28.5316C26.2599 28.8296 25.5743 29.3412 25.0957 29.665C24.6171 29.9824 23.7827 30.4616 23.2523 30.7272C22.7155 30.9862 21.9329 31.3165 21.506 31.4655C21.0791 31.608 20.3806 31.8152 19.9537 31.9189C19.5268 32.0225 18.8283 32.1585 18.4014 32.2233C17.8322 32.3074 17.2371 32.3398 16.1699 32.3398C15.3097 32.3398 14.4882 32.3074 14.1648 32.2556C13.8609 32.2103 13.3111 32.1132 12.9359 32.0419C12.5608 31.9642 11.9269 31.8088 11.5259 31.6857C11.1314 31.5627 10.504 31.3489 10.1418 31.2C9.7731 31.0575 9.13924 30.766 8.73175 30.5523C8.32427 30.3386 7.62573 29.9176 7.17944 29.6197C6.73315 29.3218 6.07989 28.8296 5.72415 28.5316C5.36841 28.2337 4.8057 27.6962 4.46937 27.3464C4.1395 26.9967 3.68027 26.4721 3.46036 26.1871C3.24045 25.9022 2.84591 25.3452 2.59365 24.9566C2.33494 24.5615 1.91452 23.8103 1.64933 23.2727C1.39061 22.7416 1.04134 21.9191 0.886111 21.4593C0.724412 20.993 0.523905 20.2805 0.426886 19.8725C0.336334 19.4645 0.200507 18.7197 0.129359 18.221C0.0388078 17.5928 0 16.9775 0 16.2133C0 15.462 0.0388078 14.8144 0.129359 14.1732C0.200507 13.6551 0.336334 12.8973 0.426886 12.4893C0.523905 12.0813 0.724412 11.3624 0.886111 10.9025C1.04134 10.4362 1.38414 9.62666 1.64933 9.08911C1.90805 8.55804 2.33494 7.79381 2.58719 7.40522C2.84591 7.01015 3.24692 6.44669 3.48623 6.1423C3.71908 5.8379 4.28826 5.20968 4.75396 4.74984C5.21318 4.28353 5.84057 3.7136 6.14457 3.48044C6.44856 3.24081 6.9854 2.8587 7.34114 2.62554C7.69688 2.39239 8.32427 2.0297 8.73175 1.81598C9.13924 1.59578 9.76663 1.31081 10.1224 1.16833C10.4781 1.02584 11.0473 0.825069 11.3836 0.714969C11.72 0.604868 12.3473 0.449431 12.7742 0.35876C13.2011 0.268088 13.8091 0.164464 14.1325 0.119128C14.4494 0.0802692 14.7276 0.028457 14.747 0.015504C14.7599 -0.00392557 15.4455 -0.00392557 16.2669 0.00902748ZM11.1896 7.80028C10.8856 7.8521 10.3035 8.00106 9.89599 8.12411C9.48851 8.25364 8.82877 8.50623 8.4407 8.69405C8.04615 8.88186 7.45757 9.20569 7.13417 9.41942L6.53265 9.80153C5.78883 11.3106 5.41369 12.1525 5.21965 12.6512C5.02561 13.1499 4.72808 13.9789 4.55992 14.497C4.39175 15.0151 4.1589 15.8441 4.04248 16.3428C3.91959 16.8415 3.78376 17.4956 3.72555 17.8C3.6738 18.1044 3.58325 18.7132 3.52504 19.1601C3.4733 19.607 3.40862 20.3647 3.38275 20.844L3.34394 21.7183C4.06835 22.4178 4.4629 22.7611 4.68281 22.923C4.89625 23.0849 5.3102 23.3569 5.59479 23.5188C5.87938 23.6807 6.34508 23.9074 6.62967 24.024C6.91426 24.1341 7.46403 24.3089 7.85858 24.4061C8.24666 24.5097 8.93226 24.6263 9.37855 24.6652L10.187 24.7493C10.4652 24.4061 10.7821 24.0175 11.0732 23.6613L11.5971 23.0136C10.7562 22.7351 10.2776 22.5409 9.99301 22.3984C9.70842 22.2624 9.2686 22.0033 9.02281 21.8284C8.77056 21.6536 8.40189 21.3621 8.19491 21.1808C7.99441 20.993 7.83918 20.8116 7.85858 20.7792C7.87798 20.7404 8.00734 20.7922 8.16904 20.8893C8.31781 20.98 8.77703 21.2261 9.18451 21.4334C9.59199 21.6406 10.2647 21.9385 10.6721 22.094C11.0796 22.2494 11.6941 22.4567 12.0304 22.5473C12.3668 22.6445 12.9941 22.7805 13.421 22.8582C13.9837 22.9553 14.5917 23.0007 15.6525 23.0266C16.5451 23.0525 17.4053 23.0331 17.8839 22.9877C18.3108 22.9489 19.0094 22.8388 19.4362 22.7546C19.8631 22.6704 20.5293 22.4955 20.9239 22.366C21.312 22.2365 21.9717 21.9839 22.3792 21.8025C22.7866 21.6212 23.4076 21.3168 23.7568 21.129C24.0996 20.9347 24.4166 20.7857 24.4619 20.7987C24.5007 20.8051 24.3454 20.98 24.119 21.1937C23.8927 21.401 23.4723 21.7313 23.1877 21.9191C22.9031 22.1069 22.4633 22.353 22.2175 22.4696C21.9652 22.5797 21.5319 22.7546 21.2537 22.8452L20.7428 23.0136C21.4284 23.8685 21.7453 24.2571 21.8876 24.4255L22.1528 24.7364C23.0066 24.6716 23.4981 24.6133 23.8021 24.5615C24.1061 24.5097 24.643 24.3802 24.9987 24.2701C25.3544 24.16 25.9624 23.9139 26.357 23.7196C26.745 23.5253 27.2884 23.2015 27.5665 22.9942C27.8381 22.7934 28.2715 22.4178 28.5302 22.1717L28.9959 21.7183C28.9312 20.3647 28.8665 19.607 28.8148 19.1601C28.7566 18.7132 28.666 18.1044 28.6143 17.8C28.5561 17.4956 28.4202 16.8415 28.2974 16.3428C28.1809 15.8441 27.9481 15.0151 27.7799 14.497C27.6117 13.9789 27.3142 13.1499 27.1202 12.6512C26.9261 12.1525 26.551 11.3106 26.2858 10.773L25.8072 9.80153C24.8823 9.20569 24.2872 8.88186 23.8991 8.69405C23.5046 8.5127 22.9095 8.26659 22.5732 8.15649C22.2369 8.04639 21.6677 7.89743 21.312 7.83267C20.9562 7.76143 20.4517 7.69018 20.193 7.66428C19.7532 7.62542 19.7079 7.63837 19.5462 7.78086L19.3716 7.94277C20.2706 8.21478 20.8721 8.42203 21.2796 8.58394C21.6871 8.74586 22.3274 9.03082 22.7026 9.22512C23.0777 9.41294 23.6404 9.73676 23.9638 9.94401C24.2807 10.1448 24.5136 10.3261 24.4813 10.3391C24.4424 10.3456 24.0544 10.2096 23.6081 10.0282C23.1618 9.84687 22.4956 9.60076 22.1204 9.4777C21.7453 9.36113 21.1373 9.18626 20.7622 9.08911C20.387 8.99197 19.6756 8.84948 19.1775 8.76529C18.6795 8.68109 17.8063 8.57747 17.2371 8.53213C16.4351 8.47384 15.9629 8.47384 15.135 8.53213C14.5465 8.57747 13.6603 8.68109 13.1623 8.76529C12.6643 8.84948 12.011 8.97901 11.707 9.05673C11.403 9.12797 10.8209 9.29636 10.4134 9.42589C10.0059 9.54895 9.27506 9.81448 8.79644 10.0023C8.31781 10.1966 7.89739 10.3456 7.86505 10.3391C7.83918 10.3261 8.02675 10.1772 8.28547 10.0023C8.55065 9.82744 9.08103 9.51656 9.47557 9.30931C9.86365 9.10207 10.504 8.80415 10.8985 8.64871C11.2866 8.4868 11.9075 8.26012 12.2762 8.13706L12.9424 7.92334C12.6578 7.69666 12.4961 7.63837 12.3862 7.64485C12.2762 7.65132 12.0886 7.66428 11.9657 7.67723C11.8428 7.69018 11.4936 7.742 11.1896 7.80028ZM12.3215 15.1706C12.6319 15.1835 12.8842 15.2483 13.13 15.3584C13.324 15.4491 13.6151 15.6498 13.7703 15.8053C13.9191 15.9607 14.1131 16.2133 14.1972 16.3752C14.2813 16.5371 14.3783 16.8415 14.4171 17.0552C14.4688 17.3272 14.4688 17.5475 14.4236 17.8C14.3848 17.9943 14.2877 18.3052 14.2037 18.4801C14.1131 18.6614 13.8997 18.9399 13.6992 19.1148C13.5116 19.2896 13.2076 19.4839 13.02 19.5552C12.8001 19.6329 12.5155 19.6782 12.2245 19.6782C11.914 19.6782 11.6553 19.6329 11.403 19.5357C11.1572 19.4386 10.9179 19.2832 10.698 19.063C10.5234 18.8881 10.3035 18.5966 10.2129 18.4153C10.0771 18.1368 10.0577 18.0008 10.0577 17.4114C10.0577 16.7962 10.0771 16.699 10.2388 16.3946C10.3358 16.2068 10.5363 15.9283 10.6915 15.7858C10.8403 15.6369 11.0473 15.475 11.1572 15.4167C11.2607 15.3649 11.4677 15.2807 11.61 15.2289C11.7652 15.177 12.0498 15.1576 12.3215 15.1706ZM20.2447 15.1706C20.5229 15.1835 20.7816 15.2418 21.0209 15.3519C21.2149 15.4426 21.506 15.6434 21.6612 15.7988C21.8165 15.9542 22.017 16.2327 22.114 16.4076C22.2627 16.699 22.2821 16.8027 22.2821 17.4114C22.2821 18.0008 22.2627 18.1368 22.1204 18.4153C22.0364 18.5966 21.8165 18.8881 21.6353 19.0694C21.4219 19.2896 21.1891 19.4451 20.9433 19.5357C20.6846 19.6329 20.4258 19.6782 20.1154 19.6782C19.8243 19.6782 19.5397 19.6329 19.3263 19.5552C19.1322 19.4839 18.8283 19.2896 18.6407 19.1148C18.4466 18.9399 18.2267 18.6614 18.1362 18.4801C18.0521 18.3052 17.9486 17.9814 17.9163 17.7677C17.8645 17.4827 17.8645 17.2819 17.9227 17.0229C17.9615 16.8286 18.065 16.5371 18.1426 16.3752C18.2267 16.2133 18.4208 15.9607 18.5695 15.8053C18.7248 15.6563 18.9835 15.4685 19.1452 15.3908C19.3069 15.3131 19.5203 15.2289 19.6303 15.203C19.7338 15.1706 20.0119 15.1576 20.2447 15.1706Z" fill="white"/>
</svg>
