<svg width="390" height="480" viewBox="0 0 390 480" fill="none" xmlns="http://www.w3.org/2000/svg">
<path d="M182.459 279.725C184.715 278.248 186.549 276.173 189.501 276.255C189.534 275.823 189.609 275.491 189.575 275.17C189.442 273.933 189.498 272.721 189.792 271.507C189.873 271.179 189.771 270.747 189.614 270.432C188.398 267.989 186.31 266.547 183.765 265.908C182.091 265.488 181.541 264.322 181.174 262.971C180.807 261.618 181.379 260.436 182.434 259.594C183.047 259.105 183.804 258.675 184.561 258.512C186.958 257.995 189.298 258.237 191.42 259.573C194.237 261.348 195.54 263.299 196.372 266.941C199.932 266.448 203.259 267.089 206.057 269.378C206.584 269.186 207.028 268.902 207.485 268.877C209.984 268.749 212.486 268.676 214.988 268.61C215.361 268.6 215.737 268.725 216.197 268.8C217.546 267.496 219.103 266.383 220.979 265.874C221.815 265.647 222.75 265.535 223.599 265.657C225.761 265.968 226.564 267.906 225.388 269.745C225.207 270.026 225.01 270.297 224.787 270.623C225.238 270.797 225.645 270.922 226.021 271.109C226.51 271.354 227.025 271.588 227.44 271.934C228.483 272.804 228.58 273.723 227.588 274.639C226.791 275.375 225.816 275.926 224.889 276.51C224.428 276.801 223.896 276.979 223.262 277.269C223.563 277.739 223.849 278.182 224.133 278.627C224.744 279.587 224.965 280.573 224.312 281.608C223.636 282.679 222.779 283.323 221.395 283.255C219.15 283.143 216.898 283.204 214.651 283.13C214.015 283.11 213.639 283.325 213.272 283.807C212.708 284.548 212.08 285.244 211.458 285.937C211.096 286.341 210.64 286.559 210.088 286.336C207.271 285.199 204.261 285.329 201.325 284.967C200.195 284.828 199.051 284.635 197.97 284.289C197.185 284.038 196.472 283.527 195.764 283.073C195.307 282.779 194.918 282.376 194.427 281.961C192.009 283.292 190.205 285.375 187.928 286.773C188.464 288.047 189.018 289.193 189.426 290.389C189.738 291.303 189.899 292.274 190.056 293.233C190.103 293.519 190.006 293.992 189.805 294.131C188.137 295.275 186.562 296.602 184.516 297.118C184.503 297.165 184.44 297.263 184.466 297.314C185.134 298.616 185.079 298.772 183.727 299.744C178.526 303.485 173.33 307.232 168.133 310.979C167.727 311.272 167.342 311.595 166.721 312.082C208.022 311.904 249.047 312.069 290.217 312.25C290.019 312.918 289.671 312.918 289.356 312.934C287.831 313.006 286.304 313.121 284.778 313.126C263.347 313.186 241.914 313.253 220.483 313.27C202.914 313.284 185.344 313.265 167.776 313.16C165.95 313.15 164.568 313.588 163.186 314.73C160.537 316.918 157.76 318.95 155.041 321.05C154.309 321.616 153.589 322.198 152.61 322.973C173.463 322.973 194.011 322.951 214.558 322.979C235.087 323.006 255.618 322.804 276.196 323.011C276.237 323.864 275.721 323.86 275.281 323.885C273.841 323.965 272.398 324.076 270.958 324.076C260.646 324.078 250.333 324.05 240.021 324.043C212.139 324.022 184.256 324.008 156.375 323.99C155.442 323.99 154.506 324.007 153.575 323.965C153.008 323.939 152.445 323.813 151.742 323.714C149.959 325.092 148.055 326.578 146.135 328.043C143.503 330.05 140.846 332.024 138.23 334.051C137.675 334.482 137.273 335.106 136.761 335.601C135.302 337.013 133.873 338.463 132.33 339.778C131.564 340.433 130.553 340.215 129.654 339.859C128.708 339.483 127.782 339.059 126.838 338.681C123.551 337.367 120.129 336.509 116.643 336.024C112.835 335.493 109.527 333.872 106.355 331.859C104.421 330.631 102.511 329.361 100.902 327.702C100.756 327.55 100.582 327.423 100.408 327.303C100.351 327.264 100.25 327.287 100.034 327.273C100.165 331.833 100.787 336.384 100.157 341.083C100.563 341.231 100.984 341.393 101.409 341.539C107.063 343.478 112.726 345.397 118.372 347.364C120.493 348.104 122.59 348.92 124.673 349.763C126.601 350.543 128.46 351.451 129.952 352.977C130.581 353.62 130.614 353.578 130.212 354.451C128.795 357.531 127.358 360.603 125.991 363.705C123.517 369.315 121.966 375.226 120.39 381.126C118.651 387.64 117.062 394.196 115.176 400.667C112.878 408.549 109.545 416.027 105.71 423.282C104.897 424.82 104.095 426.363 103.249 427.882C102.491 429.242 101.867 429.434 100.417 428.786C98.2843 427.835 96.1134 426.997 93.6739 426.428C93.5772 427.075 93.4664 427.678 93.4002 428.288C92.9762 432.209 92.6171 436.139 92.1282 440.051C91.6202 444.109 90.3775 447.994 89.0878 451.859C88.8051 452.705 88.3226 453.197 87.3906 453.341C86.7361 453.442 86.1199 453.786 85.4858 454.022C84.8797 453.391 83.5721 453.159 81.7718 453.4C81.6712 455.019 81.5121 456.66 81.4802 458.304C81.4102 461.952 81.4191 465.6 81.3695 469.248C81.3465 470.902 81.2905 472.555 81.1887 474.207C81.1377 475.032 80.9951 475.863 80.2796 476.655C79.5157 472.623 79.6442 468.694 79.4647 464.787C79.2852 460.889 79.3349 456.995 79.8658 453.045C76.2498 452.416 72.6784 451.794 69.009 451.155C68.8689 451.346 68.6652 451.611 68.4755 451.885C68.2845 452.161 68.1317 452.361 67.695 452.372C67.0431 452.388 66.7235 452.827 66.6217 453.536C66.2168 456.37 66.4014 459.21 66.3925 462.051C66.3849 464.635 66.2499 467.219 66.0818 469.798C66.0169 470.791 65.8055 471.799 65.1244 472.847C65.0098 472.473 64.8965 472.269 64.8914 472.063C64.8634 470.919 64.8506 469.775 64.8544 468.63C64.8608 466.383 64.8875 464.137 64.8939 461.89C64.9016 459.225 64.8952 456.56 64.8952 453.862C64.773 453.862 64.638 453.826 64.5349 453.867C59.3121 455.954 53.8601 457.198 48.3598 458.267C40.3003 459.833 32.1669 460.664 23.9571 460.73C23.3625 460.735 22.7616 460.777 22.1759 460.702C20.4838 460.485 18.9241 460.849 17.3631 461.501C14.4296 462.725 11.3917 463.696 8.62367 465.303C8.19078 465.555 7.6853 465.683 7.1289 465.9C6.9201 470.558 7.71841 475.367 6.18799 479.972C6.08231 479.981 5.97664 479.991 5.87096 480C5.77292 479.804 5.62268 479.618 5.58575 479.412C5.47244 478.787 5.36294 478.155 5.32347 477.522C4.94914 471.637 4.585 465.751 4.23359 459.865C4.18393 459.026 4.22722 458.182 4.22722 457.371C2.09839 456.483 0.121064 455.62 -1.88681 454.841C-2.72969 454.514 -3.65532 454.311 -4.08185 455.872C-4.8216 454.757 -5.59954 454.105 -5.29906 452.94C-5.22776 452.663 -5.25068 452.353 -5.26595 452.062C-5.57407 446.172 -5.86437 440.282 -6.20687 434.394C-6.65887 426.601 -7.18216 418.811 -7.62015 411.018C-7.9461 405.216 -8.38663 399.412 -7.80222 393.598C-7.6558 392.133 -7.59087 390.66 -7.4801 389.067C-7.59469 389.018 -7.85188 388.89 -8.11925 388.798C-11.3634 387.669 -14.6089 386.545 -17.8556 385.425C-19.4331 384.881 -21.0527 384.623 -22.7283 384.639C-24.4738 384.656 -26.1914 384.537 -27.7957 383.675C-28.99 383.034 -29.8545 382.235 -30.0238 380.813C-30.1881 379.432 -30.5191 378.063 -30.5981 376.679C-30.7903 373.292 -30.9227 369.9 -30.9953 366.51C-31.0462 364.171 -30.6745 361.866 -30.2416 359.567C-29.8418 357.443 -29.5158 355.303 -29.2625 353.157C-29.139 352.116 -29.2077 351.043 -29.2739 349.988C-29.4802 346.67 -29.4254 343.354 -28.7417 340.102C-27.5729 334.543 -26.4257 328.971 -24.9742 323.484C-23.3929 317.502 -21.5442 311.588 -19.6852 305.685C-18.0326 300.438 -15.4823 295.591 -12.5896 290.927C-11.0833 288.499 -9.8814 285.954 -8.98123 283.233C-8.2504 281.025 -7.26874 278.902 -6.38003 276.747C-5.88602 275.549 -4.97821 274.748 -3.82339 274.205C-3.47835 274.042 -3.14349 273.849 -2.78571 273.723C-0.206154 272.81 1.87939 271.153 3.86308 269.342C4.55189 268.713 5.21015 268.049 5.88496 267.404C6.1307 267.17 6.36242 266.912 6.64126 266.726C8.50017 265.483 10.3018 264.135 12.2536 263.061C14.217 261.983 16.3165 261.14 18.3931 260.286C19.1545 259.973 19.5174 259.61 19.6053 258.753C19.7504 257.334 20.1617 256.975 21.58 256.674C22.3643 256.507 23.1626 256.401 24.1303 256.239C23.9291 255.659 23.8056 255.044 23.5166 254.519C22.6419 252.933 21.6933 251.387 20.7944 249.815C20.48 249.265 20.2202 248.682 19.9414 248.111C19.4996 247.207 19.0412 246.31 18.63 245.392C18.3626 244.794 17.9793 244.382 17.4268 243.992C16.6106 243.418 15.7334 242.75 15.2546 241.909C13.0558 238.045 11.7265 233.925 12.148 229.395C12.2027 228.805 12.2549 228.2 12.4243 227.639C13.2009 225.076 13.1716 222.437 13.122 219.815C12.9667 211.559 15.5691 204.329 20.9345 198.062C23.0646 195.574 25.3246 193.253 28.1906 191.596C28.4784 191.43 28.7177 191.176 28.7967 191.113C28.8654 181.26 28.9291 171.589 29.0119 161.918C29.0169 161.324 28.8654 160.625 29.5632 160.189C30.0597 160.488 29.9056 160.958 29.9133 161.338C29.977 164.605 30.0572 167.872 30.0584 171.14C30.061 177.037 30.0126 182.936 29.9846 188.834C29.9821 189.287 29.9846 189.739 29.9846 190.305C31.9581 189.415 33.7393 188.432 35.6377 187.805C37.5094 187.186 39.4994 186.925 41.5977 186.473C41.5977 185.878 41.5977 185.297 41.5977 184.713C41.585 170.88 41.5684 157.045 41.5659 143.211C41.5659 142.152 41.6919 141.094 41.725 140.035C41.753 139.15 42.1987 138.564 43.0466 138C43.5928 154.115 43.3127 170.084 43.1816 186.099C43.6514 186.099 43.9761 186.11 44.3007 186.097C46.1622 186.022 48.0249 185.868 49.8864 185.882C51.7937 185.898 53.6997 186.08 55.607 186.18C57.7167 186.292 59.6597 187.048 61.6179 187.739C64.3362 188.697 67.0444 189.685 69.7678 190.625C71.9374 191.374 73.7072 192.651 75.384 194.223C77.3168 196.035 78.8396 198.054 79.8441 200.484C80.6666 202.471 81.4217 204.489 82.3078 206.449C83.3684 208.793 83.9783 211.256 84.3017 213.777C84.5385 215.621 84.5054 217.499 84.6086 219.362C84.685 220.747 84.7906 222.131 84.8772 223.516C84.9039 223.938 84.9409 224.362 84.9179 224.781C84.7499 228.001 84.4392 231.221 84.4341 234.441C84.4316 236.622 83.5059 238.637 83.6002 240.805C83.6167 241.184 83.4894 241.565 83.4996 241.945C83.5543 244.206 82.6414 246.099 81.1161 247.654C80.0313 248.76 79.4991 250.133 78.944 251.475C77.4492 255.096 76.125 258.786 74.6506 262.416C74.1757 263.586 73.4373 264.65 72.8299 265.767C72.425 266.511 72.0367 267.263 71.6637 267.967C71.7197 268.117 71.726 268.227 71.7821 268.268C74.9664 270.584 78.1469 272.908 81.3516 275.196C82.1067 275.736 82.9152 276.228 83.758 276.614C86.5655 277.902 89.0789 279.602 91.2777 281.768C91.4572 281.945 91.652 282.108 91.829 282.267C92.2925 282.038 92.7215 281.661 93.157 281.653C93.6701 281.644 94.2252 281.887 94.6976 282.141C96.6405 283.186 98.5542 284.282 100.486 285.348C101.936 286.147 103.072 287.255 103.866 288.712C105.509 291.72 107.84 294.085 110.689 295.959C114.694 298.593 118.702 301.223 122.7 303.868C123.548 304.43 124.351 305.055 125.091 305.59C125.833 305.59 126.499 305.59 127.165 305.59C127.334 305.59 127.571 305.655 127.66 305.568C128.489 304.765 129.124 305.4 129.896 305.927C131.12 305.27 132.407 304.636 133.638 303.906C137.659 301.523 141.482 298.858 145.07 295.851C150.763 291.08 156.534 286.405 162.191 281.594C163.915 280.128 165.791 279.421 167.987 279.424C168.695 279.424 169.25 279.243 169.813 278.773C170.656 278.069 171.588 277.463 172.529 276.89C173.785 276.123 174.989 275.761 176.579 276.384C178.503 277.141 180.299 278 181.895 279.299C182.057 279.431 182.229 279.555 182.464 279.732L182.459 279.725ZM19.0412 262.145C16.0453 263.687 12.9526 264.603 10.2458 266.495C11.5712 268.358 12.4905 270.303 13.0214 272.414C13.5192 274.394 13.9037 276.396 13.509 278.452C13.4136 278.947 13.3677 279.584 12.7044 279.566C11.9888 279.548 12.0996 278.879 12.0423 278.394C11.8997 277.174 11.8513 275.935 11.6119 274.736C11.1867 272.607 10.5042 270.55 9.34814 268.69C8.74336 267.718 8.25953 267.646 7.40392 268.389C6.79532 268.916 6.23383 269.498 5.66597 270.07C3.40599 272.348 0.98686 274.388 -2.14782 275.381C-2.4674 275.483 -2.75515 275.682 -3.06327 275.823C-3.78647 276.155 -4.34669 276.653 -4.63698 277.406C-5.41492 279.419 -6.30491 281.4 -6.9237 283.461C-7.80986 286.417 -9.07545 289.163 -10.7587 291.74C-13.836 296.452 -16.3137 301.458 -17.9702 306.848C-19.2523 311.023 -20.4084 315.237 -21.7504 319.391C-22.9778 323.189 -24.0639 327.018 -24.8991 330.919C-25.4581 333.531 -25.9877 336.15 -26.5823 338.755C-27.4379 342.507 -27.7282 346.293 -27.4188 350.13C-27.3717 350.719 -27.3539 351.324 -27.4277 351.907C-27.6696 353.799 -27.8836 355.7 -28.2502 357.57C-29.0218 361.505 -29.4292 365.443 -29.0498 369.459C-28.9021 371.014 -29.0193 372.593 -29.0091 374.163C-29.0065 374.629 -29.0167 375.099 -28.9569 375.56C-28.715 377.4 -28.4489 379.236 -28.1891 381.087C-26.2729 382.104 -24.2408 382.733 -22.0165 382.681C-20.5192 382.645 -19.069 382.962 -17.6519 383.446C-13.4388 384.884 -9.22824 386.327 -5.00622 387.739C0.034485 389.425 5.19615 390.6 10.4635 391.31C14.8014 391.894 19.1622 392.128 23.5344 392.219C24.6701 392.242 25.8046 392.327 26.8945 392.38C27.8303 390.98 28.3587 387.782 27.9805 385.914H26.9556C26.9556 386.679 26.9887 387.356 26.9454 388.029C26.9072 388.618 26.8372 389.215 26.6844 389.783C26.3521 391.021 25.4735 391.289 24.5021 390.462C24.185 390.192 23.8693 389.862 23.6923 389.494C23.2008 388.467 22.6559 387.439 22.3605 386.349C21.333 382.571 22.0677 378.924 23.5332 375.42C24.9681 371.99 27.0956 368.964 29.4969 366.14C30.4353 365.037 31.5838 364.276 33.1231 364.334C33.1638 364.335 33.2097 364.227 33.2708 364.147C32.9117 363.544 32.307 363.514 31.7187 363.544C30.406 363.612 29.0908 363.678 27.787 363.827C24.6714 364.184 21.5826 364.821 18.4237 364.72C15.6251 364.63 12.824 364.583 10.0293 364.424C6.87681 364.243 4.0235 363.024 1.21986 361.68C0.827704 361.492 0.42664 361.32 -0.206153 361.032C-0.0839235 361.894 -0.0164426 362.472 0.0841422 363.047C0.263667 364.065 0.0230262 364.986 -0.553745 365.82C-0.788019 366.158 -1.17253 366.387 -1.53031 366.118C-1.74803 365.953 -1.90846 365.541 -1.88172 365.261C-1.83079 364.72 -1.64745 364.187 -1.48575 363.662C-1.18272 362.675 -1.18908 361.745 -1.85625 360.887C-2.03705 360.654 -2.16183 360.379 -2.31207 360.122C-2.72842 359.409 -3.25808 359.306 -3.77883 359.941C-4.96165 361.382 -6.15721 362.822 -7.228 364.347C-9.62675 367.765 -11.4806 371.479 -12.9677 375.379C-13.0441 375.581 -13.1943 375.755 -13.3102 375.942C-13.393 375.926 -13.4757 375.91 -13.5585 375.895C-13.5801 375.282 -13.7113 374.648 -13.5992 374.061C-13.3459 372.735 -13.1383 371.361 -12.615 370.133C-11.1623 366.722 -9.22824 363.585 -6.7429 360.809C-6.35966 360.382 -5.97896 359.95 -5.5537 359.473C-7.37569 358.817 -7.99321 358.991 -9.09328 360.195C-10.2659 361.478 -11.4793 362.724 -12.7016 363.961C-13.0581 364.321 -13.5088 364.588 -13.9163 364.899C-14.0028 364.548 -13.9519 364.35 -13.845 364.189C-12.6736 362.423 -11.5213 360.641 -10.3054 358.906C-9.38866 357.597 -8.05942 357.169 -6.50608 357.405C-6.05408 357.474 -5.60973 357.584 -5.11571 357.686C-4.95911 357.284 -4.80887 356.982 -4.72356 356.664C-3.76482 353.061 -2.82263 349.452 -1.86262 345.849C-0.902609 342.243 0.0293929 338.63 1.05434 335.043C2.05382 331.548 3.78287 328.391 5.69271 325.312C8.32701 321.068 10.4164 316.587 11.2898 311.615C11.3777 311.113 11.4171 310.593 11.5852 310.121C11.6781 309.859 11.9939 309.677 12.2104 309.458C12.4306 309.682 12.8113 309.886 12.8419 310.133C12.9246 310.798 12.9285 311.491 12.8381 312.157C12.4841 314.77 11.9213 317.334 10.8467 319.762C10.7449 319.991 10.7207 320.256 10.6214 320.666C11.9926 319.687 13.1831 318.803 14.4092 317.976C14.8956 317.647 15.4443 317.373 16.0033 317.209C16.2401 317.139 16.6666 317.344 16.8411 317.559C16.962 317.708 16.8474 318.105 16.7494 318.358C16.6807 318.537 16.4808 318.684 16.3114 318.807C14.7364 319.959 13.1245 321.062 11.5916 322.265C10.8187 322.872 9.63971 322.688 9.0884 323.621C8.59312 324.46 8.20733 325.368 7.67639 326.183C4.95933 330.351 3.12588 334.883 1.9265 339.699C0.708025 344.595 -0.562659 349.479 -1.84352 354.359C-2.1631 355.577 -2.61001 356.759 -2.93595 357.764C-2.24968 358.15 -1.65381 358.487 -1.05412 358.818C-0.907701 358.898 -0.753642 358.968 -0.597035 359.027C0.991952 359.611 2.57712 360.207 4.17375 360.77C5.33111 361.177 6.47829 361.677 7.67385 361.901C12.5745 362.82 17.5286 363.027 22.5006 362.766C25.5932 362.605 28.6821 362.388 31.7722 362.193C32.7551 362.131 33.6731 362.334 34.2868 363.138C34.7923 363.803 35.2927 364.53 35.5473 365.309C35.7803 366.021 35.6797 366.841 35.7307 367.684C36.7696 367.877 37.9461 367.936 38.9952 368.332C40.2468 368.805 41.0782 368.458 41.9198 367.569C43.9914 365.383 46.1049 363.235 48.1994 361.071C50.5281 358.663 52.7843 356.179 55.5917 354.287C55.8973 354.082 56.1188 353.635 56.2169 353.258C56.9452 350.47 57.5932 347.66 58.3534 344.88C58.6678 343.73 58.5291 342.762 57.9217 341.749C54.5477 336.136 50.8082 330.779 46.4576 325.886C42.8633 321.844 38.7699 318.345 34.1824 315.446C32.992 314.693 32.941 314.502 33.3383 313.148C33.3854 312.985 33.4516 312.828 33.5025 312.666C34.0767 310.843 34.9247 309.151 36.1725 307.404C35.0075 307.543 34.0475 307.591 33.1167 307.782C31.5418 308.106 29.9871 308.527 28.4211 308.891C27.801 309.035 27.1364 309.22 26.636 308.648C26.1802 308.128 26.3775 307.536 26.5864 306.965C26.7812 306.429 26.9594 305.886 27.1657 305.288C26.4819 305.094 25.9536 304.952 25.4303 304.796C24.6803 304.575 24.2971 304.147 24.1201 303.3C22.5961 296.039 21.0758 288.777 19.4066 281.549C18.0112 275.505 17.7336 269.475 18.9699 263.386C19.0348 263.065 19.0132 262.728 19.0463 262.148L19.0412 262.145ZM41.4704 411.211C42.7614 411.633 44.0206 411.994 45.2429 412.452C52.8912 415.307 60.7801 417.286 68.7582 418.936C75.4413 420.319 82.1538 421.568 88.8217 423.018C93.129 423.955 97.393 425.107 101.294 427.281C101.346 427.31 101.443 427.257 101.41 427.263C102.362 425.301 103.268 423.391 104.21 421.502C107.832 414.243 111.059 406.818 113.312 399.013C115.076 392.905 116.695 386.755 118.339 380.613C120.316 373.227 122.683 365.983 125.981 359.069C126.764 357.427 127.668 355.84 128.52 354.231C128.671 353.944 128.843 353.667 129.073 353.268C127.459 352.522 125.965 351.694 124.38 351.125C119.074 349.223 113.734 347.414 108.406 345.57C100.076 342.686 91.7017 339.922 83.4295 336.878C78.4016 335.028 73.3736 333.29 68.0757 332.42C66.6204 332.181 65.1587 331.979 63.5634 331.739C61.7108 339.342 59.8901 346.812 58.0389 354.405C62.4824 356.666 66.2092 360.08 69.9601 363.457C71.0933 364.476 72.1933 365.551 73.1737 366.713C73.958 367.643 74.6672 368.684 75.1829 369.782C76.0665 371.664 75.6221 373.204 74.0484 374.522C73.9593 374.597 73.9033 374.713 73.8078 374.844C74.5157 375.958 75.2631 377.041 75.9111 378.18C76.74 379.635 77.3193 381.134 76.8673 382.904C76.423 384.642 75.3102 385.005 73.6588 384.409C72.6122 384.032 71.7299 383.353 71.0169 382.476C70.216 381.488 69.4011 380.51 68.5952 379.525C66.544 377.016 63.9632 375.185 61.1226 373.695C60.621 373.431 60.0735 373.258 59.3108 372.946C61.255 377.033 64.293 379.916 66.7083 382.957C67.322 383.083 67.7319 383.169 68.1432 383.253C68.035 383.7 67.928 384.146 67.8032 384.667C68.012 385.11 68.296 385.635 68.5099 386.186C69.0599 387.606 69.2725 389.056 68.7212 390.532C68.2501 391.792 67.3729 392.387 66.0258 392.456C65.1473 392.501 64.2611 392.555 63.3966 392.706C60.9482 393.137 58.9696 392.494 57.5232 390.38C56.758 389.261 55.9431 388.169 55.0659 387.136C54.3325 386.271 53.4883 385.497 52.6722 384.705C51.8281 383.888 50.8642 383.673 49.7031 384.264C47.7359 393.424 44.9679 402.399 41.4742 411.214L41.4704 411.211ZM71.0334 421.77C70.831 421.694 70.6425 421.584 70.4414 421.551C67.7243 421.092 65.0187 420.539 62.2863 420.212C57.4774 419.636 52.6378 419.593 47.7983 419.624C46.1902 419.634 44.577 419.592 42.9728 419.478C41.6957 419.388 41.3812 419.026 41.2183 417.742C41.1164 416.943 41.0337 416.136 41.0298 415.333C41.0235 414.214 40.863 413.138 40.3117 412.16C39.9922 411.593 39.959 411.029 40.15 410.449C40.4403 409.564 40.7663 408.69 41.0922 407.817C41.5226 406.666 42.0026 405.532 42.3986 404.369C44.5185 398.143 46.1686 391.785 47.6799 385.388C47.7525 385.078 47.7639 384.755 47.8098 384.385C47.4494 384.368 47.1986 384.34 46.9491 384.346C44.9985 384.399 43.0453 384.418 41.0973 384.528C39.6878 384.607 38.738 384.047 38.1434 382.79C37.8951 382.265 37.5998 381.762 37.2649 381.135C36.7403 382.178 36.296 383.088 35.8287 383.987C34.8305 385.906 33.8654 386.42 31.7251 386.218C31.0235 386.152 30.3182 386.12 29.4524 386.061C29.4524 386.922 29.4842 387.636 29.4447 388.346C29.3938 389.233 29.3531 390.131 29.1837 391C28.8158 392.895 27.5795 393.918 25.6645 393.978C24.6052 394.011 23.5433 394.019 22.4827 393.999C19.0488 393.934 15.615 393.84 12.1811 393.777C7.21931 393.687 2.25627 393.61 -2.7055 393.534C-3.74445 393.519 -4.78468 393.531 -5.84527 393.531C-5.87201 393.773 -5.89365 393.938 -5.90639 394.103C-6.30363 399.369 -5.844 404.617 -5.56262 409.868C-5.19848 416.646 -4.68537 423.415 -4.38234 430.194C-4.07422 437.102 -3.94307 444.019 -3.73044 450.931C-3.71644 451.382 -3.6706 451.831 -3.63368 452.363C-1.77859 452.25 -0.296554 452.972 1.19694 453.714C2.25754 454.241 3.37161 454.667 4.47932 455.092C4.98352 455.285 5.54374 455.329 6.05176 455.512C6.68328 455.74 7.26259 456.138 7.90557 456.3C13.1806 457.623 18.5039 458.676 23.9699 458.684C33.682 458.696 43.2682 457.519 52.7397 455.434C56.7529 454.552 60.7648 453.624 64.5731 452.008C65.6197 451.564 66.6815 451.155 67.5868 450.79C68.1585 449.614 68.697 448.521 69.2216 447.422C69.4024 447.043 69.6329 446.659 69.6978 446.254C70.0798 443.871 70.612 441.49 70.7317 439.09C70.9608 434.473 70.9519 429.845 71.0309 425.222C71.05 424.084 71.0334 422.944 71.0334 421.77ZM79.5373 240.376C79.48 239.616 79.3068 238.819 79.3807 238.045C79.6595 235.133 79.1273 232.313 78.5493 229.491C78.2513 228.036 78.0107 226.581 78.0807 225.078C78.1724 223.097 78.1864 221.151 77.7459 219.154C77.2569 216.937 77.276 214.607 77.08 212.326C76.8763 209.953 76.5618 207.603 75.6196 205.387C74.8722 203.63 74.163 201.846 72.8325 200.422C72.5295 200.098 72.1258 199.816 71.7146 199.651C70.4961 199.161 69.2382 198.771 68.0197 198.282C66.7312 197.765 65.393 197.614 64.0294 197.615C63.1038 197.615 62.1794 197.667 61.255 197.717C60.4096 197.763 59.5515 197.755 58.7251 197.91C55.6376 198.491 52.6888 199.513 49.8291 200.808C48.7952 201.276 47.7576 201.758 46.6779 202.092C44.9947 202.611 43.7762 203.477 43.2312 205.273C42.4711 207.783 41.1686 210.021 39.2753 211.862C38.2733 212.836 37.2318 213.78 36.1406 214.653C35.0826 215.5 33.9469 216.25 32.8277 217.018C32.4457 217.28 32.2624 217.573 32.2458 218.055C32.2051 219.199 32.088 220.338 32.0141 221.48C31.8168 224.534 31.4055 227.556 30.7294 230.539C30.1616 233.045 29.2792 235.427 27.6851 237.473C27.2586 238.021 26.6806 238.498 26.0783 238.848C25.3106 239.294 24.5963 239.015 24.1596 238.244C24.0157 237.988 23.9444 237.692 23.8285 237.419C22.5731 234.442 21.1026 231.572 19.3048 228.889C18.6287 227.88 17.8087 226.928 16.9047 226.116C15.9969 225.3 15.14 225.511 14.6779 226.631C14.2475 227.675 13.9076 228.795 13.7637 229.912C13.4708 232.178 13.9012 234.383 14.7059 236.515C15.0929 237.541 15.4354 238.587 15.8913 239.583C16.7634 241.49 17.8838 243.135 20.2406 243.403C20.7257 243.457 21.1751 243.791 21.6513 243.967C22.1644 244.157 22.6801 244.347 23.2098 244.476C23.9775 244.663 24.0577 244.794 24.073 245.586C24.0908 246.55 24.1901 247.513 24.2602 248.475C24.2818 248.769 24.3658 249.064 24.3506 249.354C24.2207 251.796 25.1743 253.889 26.347 255.948C27.2051 257.453 27.908 259.047 28.6986 260.59C29.1226 261.416 29.497 262.289 30.047 263.026C33.8094 268.065 38.4121 272.25 43.4159 276.018C45.2315 277.385 47.2495 278.362 49.4178 279.012C50.0557 279.203 50.7535 279.336 51.4117 279.296C53.1038 279.196 54.7845 278.979 56.3926 278.374C58.1904 277.697 59.8774 276.859 61.3467 275.578C63.7416 273.493 66.3747 271.693 68.4615 269.243C69.8009 267.67 70.6909 265.851 71.7681 264.13C73.7708 260.93 75.0135 257.424 76.1174 253.852C76.4128 252.897 76.5108 251.944 76.0945 250.992C75.8309 250.389 76.0537 250.087 76.6636 249.85C77.2328 249.63 77.8083 249.305 78.2424 248.883C78.9376 248.207 79.4902 247.388 80.151 246.672C81.3415 245.383 82.15 243.958 82.1258 242.132C82.1143 241.245 82.2442 240.355 82.2875 239.465C82.3002 239.192 82.2391 238.917 82.1869 238.402C81.6699 238.904 81.3083 239.239 80.9671 239.595C80.6017 239.975 80.3636 240.549 79.5335 240.371L79.5373 240.376ZM132.077 306.934C133.107 308.286 134.09 309.509 134.995 310.786C135.879 312.033 136.701 313.328 136.863 314.908C135.347 312.999 133.829 311.089 132.313 309.179C132.236 309.225 132.16 309.271 132.083 309.316C132.209 309.655 132.332 309.995 132.463 310.331C133.14 312.069 133.889 313.783 134.476 315.55C134.874 316.75 135.097 318.014 135.306 319.265C135.471 320.26 135.363 321.25 134.797 322.194C134.572 321.036 134.444 319.947 134.145 318.905C133.178 315.553 131.816 312.354 130.167 309.282C129.807 308.611 129.347 307.995 128.949 307.344C128.508 306.625 127.914 306.399 127.043 306.738C127.893 309.157 128.153 311.678 128.311 314.209C128.372 315.178 128.326 316.163 128.228 317.13C128.159 317.806 128.013 318.508 127.328 319.185C127.3 318.811 127.279 318.659 127.278 318.507C127.248 315.35 126.754 312.259 126.011 309.199C125.857 308.565 125.64 308.024 125.055 307.636C123.893 306.863 122.798 305.987 121.625 305.232C117.417 302.524 113.147 299.91 108.979 297.139C106.122 295.24 103.76 292.81 102.157 289.718C101.534 288.514 100.596 287.627 99.4047 286.978C97.5802 285.983 95.7773 284.947 93.9617 283.936C93.8063 283.849 93.6166 283.824 93.3798 283.751C93.7032 285.533 94.0444 287.183 94.2914 288.848C94.5333 290.483 94.7027 292.129 94.8478 293.775C94.8975 294.339 94.9484 294.986 94.2787 295.311C93.6523 295.163 93.6867 294.648 93.5988 294.201C93.0984 291.62 92.593 289.04 92.0977 286.458C91.9271 285.568 91.6851 284.705 90.9836 284.084C89.5258 282.79 88.1456 281.375 86.549 280.28C83.7695 278.376 80.4973 277.279 77.8324 275.104C78.1393 275.831 78.5416 276.456 78.93 277.09C81.0562 280.561 83.2577 283.989 85.2757 287.523C86.7679 290.134 88.0628 292.861 89.3628 295.576C90.2948 297.524 91.1453 299.516 91.9271 301.531C92.4465 302.87 92.8183 304.272 93.1786 305.666C93.3951 306.504 93.0322 306.812 92.1893 306.85C90.5036 306.925 88.8178 307.042 87.1359 307.194C86.7654 307.227 86.2968 307.232 85.9951 307.706C87.3523 308.859 88.651 310.013 90.0083 311.09C90.58 311.543 90.8283 312.033 90.6946 312.727C90.622 313.102 90.5392 313.475 90.4399 313.843C89.4965 317.363 88.5683 320.889 87.5981 324.402C86.5668 328.136 86.1224 331.958 85.757 335.924C89.9052 337.579 94.1412 338.975 98.5198 340.518C98.558 339.603 98.6344 338.89 98.6089 338.18C98.4867 334.747 98.3836 331.31 98.1862 327.88C97.8552 322.121 97.5687 316.354 96.27 310.699C96.1274 310.08 96.0078 309.446 95.9887 308.816C95.9797 308.541 96.1822 308.131 96.4114 308.006C96.8137 307.787 97.1396 308.108 97.3179 308.468C97.486 308.808 97.5878 309.18 97.71 309.54C99.0953 313.644 99.5129 317.911 99.7026 322.195C99.7676 323.655 100.228 324.626 101.334 325.639C103.218 327.368 105.137 329.011 107.3 330.369C109.936 332.024 112.665 333.45 115.754 334.078C118.453 334.627 121.173 335.112 123.832 335.82C125.87 336.362 127.838 337.18 129.814 337.933C130.664 338.257 131.443 338.471 132.151 337.714C133.276 336.513 134.727 335.623 135.549 334.125C135.703 333.844 136.01 333.634 136.276 333.429C141.193 329.663 146.151 325.951 151.024 322.128C155.229 318.827 159.301 315.357 163.495 312.041C169.885 306.989 176.309 301.976 183.277 297.72C183.341 297.68 183.371 297.585 183.439 297.484C183.329 297.188 183.231 296.862 183.091 296.556C180.568 291.042 176.9 286.444 171.98 282.889C170.957 282.151 169.768 281.644 168.648 281.044C168.429 280.927 168.165 280.787 167.939 280.813C166.601 280.96 165.293 281.042 164.147 282.015C158.486 286.821 152.744 291.529 147.079 296.332C142.764 299.991 138.271 303.386 133.327 306.158C132.924 306.384 132.539 306.643 132.073 306.932L132.077 306.934ZM65.5191 391.175C67.3385 390.757 67.5295 389.578 67.3665 388.428C67.2507 387.606 66.9986 386.753 66.5949 386.031C65.9367 384.852 65.1613 383.726 64.3375 382.653C62.4022 380.128 60.3663 377.676 58.8894 374.835C58.5392 374.162 58.2273 373.456 58.0019 372.733C57.7422 371.899 58.0643 371.452 58.9263 371.559C59.7959 371.668 60.6744 371.909 61.4842 372.247C64.9983 373.711 67.9611 375.92 70.2771 378.967C71.2015 380.183 72.1284 381.396 73.0909 382.582C73.4487 383.023 73.9109 383.38 74.3031 383.754C75.6743 382.74 75.9048 381.997 75.2758 380.604C74.9104 379.796 74.5004 378.992 73.9975 378.264C73.0833 376.94 72.164 375.602 71.1034 374.397C69.1147 372.139 67.0393 369.955 64.9678 367.77C63.7136 366.447 62.3946 365.186 61.1099 363.891C60.8374 363.616 60.5267 363.291 60.826 362.899C61.1926 362.419 61.5988 362.747 61.9298 362.993C62.3716 363.322 62.7931 363.681 63.1916 364.061C66.3505 367.075 69.7716 369.82 72.5345 373.239C72.6351 373.363 72.7854 373.45 72.9038 373.547C73.9109 372.827 74.0981 372.424 73.9784 371.297C73.7925 369.549 72.8096 368.211 71.6522 367.015C68.8142 364.088 65.8132 361.329 62.4952 358.951C60.7457 357.696 58.883 356.601 57.0037 355.391C56.2716 355.962 55.5943 356.4 55.0239 356.952C52.9192 358.985 50.84 361.045 48.7723 363.115C47.1833 364.706 45.6402 366.342 44.0461 367.928C43.4171 368.555 42.7207 369.119 42.0319 369.681C41.4003 370.197 40.6924 370.354 39.8865 370.077C39.246 369.858 38.5916 369.641 37.9257 369.548C36.7289 369.38 35.6033 369.088 34.7325 368.259C32.1389 368.935 31.091 372.36 31.4794 375.581C31.594 375.609 31.7124 375.657 31.8333 375.664C35.0151 375.86 37.1809 377.572 38.6896 380.258C38.9799 380.775 39.2562 381.303 39.5032 381.842C39.8228 382.537 40.2977 382.871 41.1011 382.796C41.944 382.717 42.7983 382.768 43.6438 382.715C45.2506 382.615 46.8714 382.589 48.4553 382.335C50.4122 382.019 52.2546 381.981 53.8079 383.422C54.6419 384.196 55.486 384.979 56.1965 385.863C57.1782 387.083 58.0427 388.399 58.9518 389.679C60.1804 391.408 61.9566 391.658 64.0969 391.623C63.6372 390.847 63.3113 390.217 62.9128 389.635C60.4898 386.103 58.0503 382.584 55.6197 379.057C55.332 378.64 55.029 378.223 54.8125 377.768C54.7272 377.589 54.7807 377.19 54.9144 377.098C55.1143 376.96 55.4835 376.902 55.7012 376.996C55.9941 377.123 56.2462 377.4 56.4537 377.659C56.9299 378.255 57.401 378.86 57.8186 379.497C60.0035 382.831 62.1667 386.18 64.3464 389.517C64.7144 390.08 65.1231 390.616 65.5191 391.175ZM59.186 340.382C59.7348 338.289 60.2441 336.412 60.7024 334.524C60.7623 334.279 60.6121 333.944 60.4758 333.697C59.7972 332.476 59.0804 331.276 58.3966 330.057C57.6111 328.655 56.7402 327.288 56.101 325.82C55.472 324.376 54.8596 322.94 53.906 321.679C52.5767 319.924 51.1813 318.215 49.9106 316.418C48.0517 313.788 46.2488 311.117 44.4815 308.423C43.0861 306.296 41.8332 304.076 40.4251 301.958C37.4737 297.517 35.1806 292.761 33.3599 287.759C31.7786 283.418 30.1005 279.129 27.8163 275.077C25.6416 271.216 24.3086 267.002 23.4899 262.636C23.2989 261.62 23.4606 260.698 24.0132 259.839C24.2423 259.482 24.5123 259.151 24.73 258.788C25.0852 258.196 24.907 257.805 24.2092 257.766C23.7114 257.738 23.1919 257.799 22.7043 257.915C21.4463 258.212 21.4782 258.237 21.3292 259.509C21.1229 261.276 20.8683 263.038 20.6366 264.803C20.1616 268.427 19.8039 272.078 20.2635 275.708C20.6238 278.557 21.3572 281.359 21.9633 284.173C23.0506 289.227 24.1812 294.272 25.2571 299.328C25.5181 300.557 25.6353 301.816 25.8173 303.052C27.1122 303.316 28.2645 303.609 29.4346 303.773C30.5652 303.932 31.72 303.919 32.8557 304.05C34.4103 304.23 35.9649 304.434 37.5043 304.71C38.2045 304.835 38.901 305.093 39.5452 305.404C40.4874 305.858 40.5345 306.812 39.6942 307.422C39.4905 307.571 39.2231 307.641 39.0372 307.805C38.2835 308.475 37.3757 309.055 36.8498 309.877C36.1088 311.035 35.6555 312.379 35.0711 313.659C35.299 313.835 35.4187 313.95 35.5575 314.032C39.6407 316.444 43.3064 319.394 46.4767 322.903C50.9521 327.856 54.8125 333.28 58.2833 338.98C58.5405 339.403 58.8181 339.813 59.186 340.384V340.382ZM87.1728 451.83C90.7391 443.463 91.0141 434.672 91.9029 425.925C85.5495 424.248 79.2368 423.201 72.928 422.192C72.8669 422.427 72.8287 422.507 72.8287 422.586C72.8847 427.078 72.9509 431.57 73.0018 436.062C73.0426 439.648 72.4149 443.153 71.6649 446.636C71.5351 447.241 71.1849 447.8 70.9125 448.369C70.7749 448.657 70.584 448.919 70.3229 449.346C75.9506 450.92 81.5401 451.627 87.1728 451.83ZM73.0999 284.738C73.119 284.627 73.1635 284.539 73.1419 284.472C72.0545 281.084 70.9634 277.697 69.8659 274.312C69.7615 273.989 69.5807 273.692 69.4903 273.367C69.3731 272.945 69.3273 272.477 69.8213 272.267C70.3446 272.044 70.7215 272.333 70.9621 272.79C71.1187 273.089 71.2499 273.405 71.3606 273.725C72.3919 276.685 73.4538 279.636 74.4367 282.614C76.2855 288.219 77.6949 293.943 78.6307 299.767C79.1681 303.113 79.5118 306.495 79.8098 309.873C80.0848 312.996 80.3572 316.137 80.3152 319.267C80.2643 323.079 79.8963 326.887 79.6341 330.695C79.5742 331.567 79.3858 332.431 79.2559 333.303C80.9022 333.942 82.4734 334.553 84.1795 335.215C84.2762 334.356 84.3539 333.61 84.443 332.866C84.5895 331.646 84.648 330.406 84.9116 329.212C86.0244 324.163 87.0455 319.093 88.6409 314.162C89.3373 312.009 89.4252 312.46 87.7165 310.978C86.0193 309.505 84.2495 308.116 82.5115 306.69C81.7489 306.065 81.7081 305.727 82.4008 305.051C84.0852 303.406 86.0982 302.542 88.4741 302.586C88.8471 302.594 89.2189 302.619 89.6862 302.641C89.6162 302.321 89.5831 302.081 89.5092 301.853C87.677 296.186 85.3394 290.735 82.3231 285.6C80.4986 282.493 78.4729 279.505 76.5974 276.428C75.1001 273.97 73.1419 271.928 71.078 269.966C70.9341 269.829 70.7457 269.738 70.5127 269.583C67.5028 272.597 64.3834 275.421 60.6694 277.968C61.3747 278.252 61.8356 278.537 62.3309 278.62C64.2433 278.942 65.9978 279.625 67.6288 280.673C69.4495 281.843 71.3097 282.953 72.7815 284.583C72.8528 284.662 72.9878 284.686 73.1011 284.738H73.0999ZM59.9016 289.441C60.3791 290.035 60.7687 290.529 61.1697 291.015C63.8932 294.311 66.0475 297.939 67.5537 301.946C68.0604 303.294 68.585 304.637 69.0548 305.998C69.969 308.639 70.9901 311.254 71.7171 313.947C73.2972 319.799 74.494 325.731 74.727 331.925C75.6196 332.178 76.5274 332.436 77.5141 332.716C77.5842 332.124 77.6555 331.709 77.6784 331.29C77.8121 328.877 77.9407 326.464 78.0578 324.051C78.2271 320.537 78.4805 317.025 78.096 313.505C77.8286 311.061 77.6224 308.611 77.3613 306.166C76.8215 301.107 76.139 296.074 74.8607 291.132C74.4902 289.697 73.8612 288.442 72.9776 287.287C70.817 284.459 67.9331 282.538 64.8557 280.875C64.2102 280.526 63.5061 280.24 62.6479 280.296C62.8033 280.703 62.9421 281.01 63.0388 281.331C63.5838 283.147 63.5876 284.87 62.2685 286.423C61.4524 287.383 60.7088 288.406 59.9016 289.441ZM187.195 285.503C188.49 284.466 189.763 283.429 191.057 282.417C191.79 281.843 192.526 281.263 193.314 280.772C194.497 280.033 194.801 280.096 195.881 281.041C196.776 281.825 197.662 282.639 198.873 282.894C199.907 283.113 200.952 283.293 201.999 283.439C204.344 283.767 206.733 283.739 209.031 284.457C210.5 284.915 210.552 284.87 211.486 283.551C215.052 278.509 219.017 273.833 223.814 269.904C224.106 269.664 224.377 269.379 224.588 269.067C225.077 268.345 224.947 267.811 224.191 267.385C223.421 266.951 222.603 266.862 221.734 267.073C220.001 267.493 218.491 268.325 217.201 269.533C216.056 270.605 214.955 271.724 213.861 272.85C213.518 273.204 213.239 273.628 212.974 274.048C212.611 274.621 212.325 274.718 211.739 274.326C211.141 273.926 210.568 273.487 209.986 273.06C209.147 272.444 208.218 272.086 207.171 272.031C206.879 272.016 206.584 271.947 206.302 271.862C203.524 271.013 201.132 271.665 199.039 273.646C198.178 274.461 197.246 275.202 196.327 275.953C196.053 276.176 195.756 276.523 195.211 276.065C195.97 275.121 196.829 274.267 197.705 273.445C198.598 272.607 199.508 271.741 200.552 271.126C201.554 270.535 202.737 270.251 203.879 269.817C200.627 268.094 197.33 268.046 193.976 269.209C191.959 269.908 191.227 270.935 191.148 273.094C191.127 273.685 191.198 274.28 191.218 274.872C191.234 275.295 191.276 275.721 191.24 276.141C191.143 277.265 190.673 277.703 189.545 277.804C189.042 277.849 188.496 277.812 188.049 278C186.444 278.675 185.103 279.772 183.682 280.755C184.888 282.385 186.013 283.907 187.196 285.506L187.195 285.503ZM48.0237 280.366C47.1757 280.741 46.3188 281.084 45.4963 281.491C43.4935 282.484 41.9262 284.061 40.2544 285.493C40.0864 285.637 40.0545 285.982 40.0291 286.24C39.9552 286.984 39.5707 287.208 38.9405 286.81C38.6578 286.631 38.4108 286.386 38.1702 286.149C36.72 284.72 35.2761 283.285 33.831 281.852C33.5433 281.566 33.2581 281.277 32.9729 280.99C33.3128 282.79 33.831 284.483 34.3377 286.181C35.583 290.345 37.2547 294.309 39.6866 297.941C41.5251 300.688 43.2771 303.494 45.066 306.273C46.3494 308.269 47.6264 310.267 48.9187 312.258C49.0601 312.475 49.2867 312.637 49.4344 312.785C49.9144 309.291 50.3588 305.849 50.8668 302.416C51.4435 298.516 52.0241 294.614 53.5393 290.927C53.645 290.67 53.5558 290.274 53.4336 289.998C53.2477 289.576 52.9472 289.205 52.7053 288.806C51.0641 286.095 49.2994 283.453 48.0224 280.365L48.0237 280.366ZM45.9279 279.399C41.781 277.181 38.272 274.564 35.2596 271.291C34.6892 270.671 34.1162 270.031 33.4478 269.528C31.38 267.972 29.8853 265.92 28.3765 263.872C27.61 262.832 26.8257 261.806 26.0185 260.733C25.2329 261.709 25.5117 262.707 25.7384 263.623C26.184 265.431 26.7048 267.226 27.2917 268.993C28.2263 271.808 29.3594 274.448 31.4743 276.726C33.6629 279.084 35.7689 281.527 38.0352 283.82C38.2937 284.082 38.5814 284.317 38.9277 284.629C40.8936 282.442 43.1625 280.772 45.9292 279.399H45.9279ZM170.233 280.002C177.092 283.746 181.029 289.781 184.324 296.308C185.742 295.283 187.201 294.227 188.683 293.157C188.65 292.912 188.644 292.655 188.576 292.416C188.462 292.009 188.326 291.606 188.168 291.214C186.95 288.202 185.258 285.469 183.182 282.986C181.136 280.539 178.672 278.658 175.593 277.637C175.053 277.458 174.623 277.434 174.162 277.7C172.89 278.437 171.625 279.185 170.233 280.002ZM34.1633 366.803C33.3421 365.533 32.5476 365.308 31.4997 366.231C30.2698 367.314 29.05 368.481 28.1142 369.812C25.8988 372.968 24.4231 376.469 23.9049 380.326C23.7649 381.366 23.6834 382.414 23.9699 383.417C24.6523 383.591 25.2597 383.801 25.8835 383.897C28.0149 384.224 30.1501 384.526 32.2891 384.806C33.0938 384.91 33.8081 384.726 34.2168 383.911C34.9336 382.48 35.6606 381.054 36.4335 379.526C35.7421 378.949 35.1144 378.425 34.3747 377.808C34.1239 378.356 33.9902 378.757 33.7724 379.104C33.2377 379.959 32.708 380.823 32.088 381.614C31.7264 382.076 31.184 382.457 30.5283 382.195C29.8725 381.932 29.8636 381.275 29.7707 380.693C29.7503 380.569 29.7567 380.44 29.7592 380.313C29.8153 378.156 29.842 375.998 29.9375 373.842C30.0737 370.78 31.0885 368.206 34.1633 366.803ZM195.132 267.221C194.715 266.248 194.342 265.318 193.92 264.408C192.345 261.013 188.929 259.344 185.078 259.892C184.545 259.969 184.004 260.167 183.529 260.426C182.646 260.907 182.147 261.676 182.24 262.719C182.326 263.69 182.989 264.3 184.139 264.627C186.311 265.245 188.18 266.367 189.66 268.089C190.038 268.53 190.351 269.025 190.773 269.601C191.838 268.108 193.522 267.901 195.132 267.22V267.221ZM55.5472 321.844C60.4147 318.495 64.5247 314.483 68.5124 310.353C68.0795 308.572 67.8682 308.053 67.3296 307.414C62.9675 311.501 58.2324 315.082 52.9154 317.937C53.8181 319.278 54.6674 320.539 55.5472 321.845V321.844ZM70.8042 319.109C67.2316 322.909 63.4042 325.933 59.0855 328.429C59.9118 329.571 60.4376 330.894 61.4053 332.055C62.0075 330.304 62.0062 330.285 63.6207 330.118C64.1096 330.067 64.503 329.981 64.8035 329.54C64.9614 329.31 65.2555 329.169 65.4961 328.998C67.625 327.482 69.7551 325.966 71.9132 324.431C71.5567 322.717 71.2155 321.076 70.8055 319.109H70.8042ZM51.9808 307.68C52.1018 307.731 52.2228 307.782 52.3437 307.833C56.2856 304.785 60.0238 301.506 63.5252 297.829C62.9688 296.937 62.4188 296.054 61.7949 295.054C60.8565 296.004 60.0633 296.873 59.2 297.668C57.336 299.38 55.6286 301.294 53.2719 302.398C53.0796 302.488 52.8874 302.752 52.8454 302.963C52.536 304.532 52.2635 306.108 51.9808 307.682V307.68ZM219.422 276.275C217.938 277.588 215.467 280.79 215.072 281.899C215.243 281.919 215.407 281.953 215.571 281.955C217.645 281.969 219.72 282.008 221.794 281.979C223.328 281.957 223.767 281.221 223.129 279.834C222.373 278.191 221.162 277.007 219.422 276.274V276.275ZM220.357 275.157C221.763 276.713 223.063 276.224 224.366 275.426C224.726 275.205 225.115 275.025 225.452 274.773C225.977 274.378 226.469 273.937 227.075 273.433C226.172 272.29 225.114 271.875 223.907 271.765C223.73 271.749 223.491 271.875 223.358 272.011C222.336 273.061 221.331 274.13 220.356 275.157H220.357ZM60.6719 285.116C58.6067 286.247 56.6103 287.511 54.1504 287.955C54.5502 288.749 54.8851 289.416 55.2581 290.157C56.2984 289.7 57.2647 289.287 58.2171 288.844C58.3903 288.764 58.5367 288.577 58.6424 288.407C59.3095 287.343 59.9627 286.27 60.6719 285.116ZM207.166 270.064C207.127 270.172 207.088 270.281 207.05 270.389C209.1 270.688 210.859 271.584 212.433 272.94C213.294 271.965 214.054 271.103 214.97 270.063H207.166V270.064ZM33.7088 377.451C32.8354 377.239 32.1618 377.076 31.3711 376.884C31.3087 378.194 31.254 379.337 31.1878 380.721C32.4024 379.791 32.6851 378.519 33.7075 377.451H33.7088ZM55.7496 280.21C53.7952 280.436 52.112 280.631 50.3409 280.836C50.5255 281.349 50.5472 281.897 51.1927 281.808C52.7282 281.596 54.2026 281.184 55.7483 280.21H55.7496ZM26.0172 385.574C25.2902 385.431 24.7402 385.323 24.0857 385.193C24.2933 386.507 24.6549 387.54 25.527 388.659C25.7066 387.532 25.8466 386.645 26.0172 385.572V385.574Z" fill="black"/>
<path d="M331.622 412.441C331.688 411.767 331.751 411.129 331.818 410.441C330.481 410.134 329.266 410.431 328.081 410.597C319.129 411.852 310.126 412.616 301.131 413.455C291.173 414.383 281.217 415.318 271.258 416.238C263.134 416.987 255.008 417.706 246.884 418.455C237.844 419.289 228.805 420.143 219.765 420.985C211.816 421.725 203.867 422.451 195.92 423.199C188.061 423.939 180.204 424.716 172.344 425.445C166.055 426.029 159.761 426.563 153.47 427.124C148.446 427.573 143.423 428.026 138.4 428.489C138.073 428.519 137.751 428.636 137.312 428.741C164.953 432.776 192.446 436.789 219.939 440.801C219.953 440.829 219.966 440.857 219.981 440.883C219.721 440.909 219.462 440.94 219.203 440.961C219.072 440.971 218.939 440.961 218.808 440.971C213.998 441.374 209.275 440.607 204.545 439.909C198.126 438.962 191.701 438.048 185.278 437.127C175.556 435.735 165.827 434.382 156.109 432.954C148.692 431.865 141.287 430.688 133.876 429.558C133.589 429.514 133.29 429.553 132.95 429.553C133.453 432.83 133.697 436.058 133.559 439.304C133.526 440.09 133.439 440.88 133.297 441.655C133.211 442.121 133.016 442.636 132.422 442.673C131.755 442.715 131.497 442.189 131.388 441.672C131.226 440.903 131.126 440.114 131.08 439.329C130.913 436.439 130.78 433.545 130.633 430.652C130.624 430.477 130.602 430.299 130.618 430.127C130.678 429.442 130.927 428.709 129.797 428.356L130.029 428.101C130.44 427.926 130.837 427.655 131.265 427.593C133.781 427.23 136.298 426.857 138.826 426.598C145.762 425.885 152.704 425.221 159.645 424.548C165.539 423.977 171.434 423.42 177.328 422.86C184.401 422.189 191.474 421.518 198.549 420.856C204.619 420.287 210.691 419.742 216.761 419.166C223.659 418.513 230.556 417.835 237.454 417.175C243.393 416.608 249.331 416.057 255.27 415.486C262.124 414.826 268.976 414.145 275.831 413.485C281.768 412.914 287.708 412.359 293.647 411.797C299.76 411.219 305.87 410.597 311.987 410.075C317.101 409.637 322.223 409.323 327.341 408.939C328.822 408.829 330.301 408.668 331.879 408.521C331.955 407.937 332.034 407.474 332.075 407.006C332.905 397.432 333.725 387.857 334.558 378.285C334.977 373.478 335.428 368.673 335.838 363.865C335.894 363.201 336.2 362.785 336.775 362.575C337.596 362.273 338.427 361.978 339.276 361.771C347.923 359.66 356.566 357.531 365.227 355.479C373.932 353.417 382.654 351.439 391.369 349.423C392.351 349.196 393.333 348.972 394.312 348.734C395.394 348.469 396.256 348.9 396.493 349.84C396.731 350.783 396.165 351.565 395.076 351.821C386.326 353.871 377.583 355.96 368.822 357.968C359.463 360.115 350.087 362.189 340.716 364.288C339.821 364.488 338.914 364.637 337.903 364.83C337.752 366.4 337.594 367.961 337.453 369.522C336.671 378.219 335.892 386.916 335.114 395.614C334.754 399.634 334.4 403.656 334.051 407.678C334.025 407.981 333.975 408.319 334.075 408.588C334.279 409.133 334.059 409.564 333.946 410.077C333.706 411.173 333.706 412.32 333.61 413.446C333.571 413.912 333.556 414.381 333.494 414.843C333.425 415.362 333.278 415.87 333.227 416.39C332.714 421.674 332.203 426.958 331.713 432.244C331.584 433.639 331.518 435.04 331.445 436.439C331.392 437.437 330.99 437.717 330.003 437.566C328.839 437.387 327.661 437.292 326.487 437.177C317.406 436.299 308.322 435.451 299.246 434.54C292.35 433.848 285.461 433.095 278.573 432.337C274.258 431.861 269.952 431.317 265.639 430.818C264.945 430.738 264.244 430.737 263.545 430.698C262.713 430.654 262.238 430.17 262.345 429.479C262.443 428.848 262.935 428.59 263.754 428.669C268.291 429.109 272.83 429.537 277.367 429.966C281.602 430.368 285.839 430.764 290.074 431.166C296.187 431.745 302.304 432.294 308.413 432.915C313.562 433.436 318.703 434.035 323.846 434.608C325.759 434.821 327.669 435.061 329.738 435.307C330.285 428.864 330.825 422.503 331.38 415.956C330.689 416.018 330.139 416.036 329.6 416.122C319.42 417.727 309.245 419.376 299.059 420.939C292.687 421.917 286.286 422.713 279.916 423.694C273.589 424.668 267.283 425.771 260.968 426.82C260.716 426.862 260.468 426.937 260.106 427.024C260.175 428.535 260.242 430.006 260.31 431.538C260.566 431.62 260.799 431.732 261.043 431.769C272.443 433.52 283.851 435.21 295.238 437.03C305.241 438.629 315.217 440.387 325.209 442.041C327.5 442.42 329.813 442.665 332.117 442.97C332.204 442.982 332.307 442.96 332.377 442.999C333.746 443.767 335.086 443.201 336.439 442.931C343.362 441.552 350.297 440.238 357.207 438.8C366.178 436.934 375.128 434.974 384.085 433.052C385.199 432.813 386.309 432.558 387.421 432.309C387.635 432.261 387.847 432.169 388.061 432.165C388.607 432.155 388.992 432.413 389.105 432.966C389.205 433.457 388.994 433.829 388.551 434.042C388.359 434.134 388.135 434.168 387.922 434.21C371.45 437.47 355.072 441.154 338.698 444.864C337.117 445.222 335.523 445.532 333.927 445.82C333.464 445.904 332.96 445.904 332.496 445.823C328.615 445.134 324.752 444.341 320.859 443.725C312.543 442.408 304.209 441.212 295.891 439.906C287.964 438.662 280.045 437.358 272.129 436.044C268.28 435.405 264.445 434.681 260.603 434.004C260.219 433.937 259.824 433.88 259.437 433.896C258.396 433.937 257.976 433.739 257.669 432.782C257.457 432.121 257.335 431.415 257.281 430.721C257.169 429.28 257.049 427.831 257.081 426.388C257.119 424.726 257.863 424.297 259.477 424.67C260.09 424.812 260.783 424.734 261.42 424.634C265.015 424.07 268.609 423.496 272.195 422.876C278.676 421.755 285.15 420.596 291.629 419.46C304.155 417.262 316.682 415.071 329.208 412.874C329.981 412.739 330.752 412.594 331.616 412.437L331.622 412.441Z" fill="black"/>
<path d="M241.98 457.54C237.467 458.322 233.023 457.816 228.574 457.254C220.249 456.203 211.917 455.204 203.592 454.162C196.344 453.254 189.102 452.312 181.857 451.393C179.013 451.033 176.187 450.691 173.288 450.899C170.215 451.118 167.116 450.972 164.028 451.012C162.322 451.033 160.649 451.307 159.043 451.903C156.27 452.93 153.51 453.988 150.731 455C149.738 455.362 149.29 455.989 149.353 457.063C149.446 458.668 149.096 460.281 149.546 461.89C149.758 462.644 149.082 463.376 148.415 463.333C147.792 463.292 147.256 462.623 147.393 461.896C148.027 458.532 147.282 455.178 147.351 451.82C147.382 450.293 147.356 448.762 147.356 447.2C146.86 447.069 146.542 446.947 146.213 446.905C143.194 446.516 140.175 446.13 137.154 445.768C136.121 445.644 135.179 445.428 134.783 444.291C135.381 443.412 136.232 443.306 137.199 443.437C142.111 444.102 147.026 444.739 151.939 445.402C158.746 446.318 165.551 447.257 172.359 448.169C178.65 449.012 184.946 449.815 191.237 450.666C200.586 451.929 209.931 453.219 219.277 454.498C224.618 455.229 229.957 455.972 235.301 456.692C237.153 456.942 239.013 457.137 240.868 457.363C241.242 457.409 241.611 457.481 241.982 457.542L241.98 457.54Z" fill="black"/>
<path d="M18.8222 390.093C18.0697 390.041 17.3682 389.921 16.9646 389.201C16.7303 388.783 16.822 388.382 17.1148 388.027C17.4828 387.58 18.7904 387.264 19.3519 387.476C19.8688 387.67 20.5321 388.795 20.3908 389.345C20.3373 389.552 20.1196 389.792 19.9197 389.869C19.5734 390.004 19.1825 390.026 18.8247 390.093H18.8222Z" fill="black"/>
<path d="M13.1473 389.683C12.3414 389.683 11.6373 389.229 11.4514 388.593C11.2744 387.99 11.6029 387.346 12.2433 387.037C12.9309 386.706 13.6222 386.862 14.171 387.505C14.4995 387.891 14.8738 388.295 14.6064 388.863C14.3212 389.467 13.789 389.684 13.1486 389.683H13.1473Z" fill="black"/>
<path d="M1.80809 385.648C2.721 385.617 3.46711 386.228 3.4913 387.026C3.51422 387.78 2.9349 388.345 2.10985 388.374C1.17148 388.408 0.308234 387.715 0.319693 386.937C0.329879 386.251 0.993229 385.675 1.80682 385.647L1.80809 385.648Z" fill="black"/>
<path d="M7.66235 388.651C6.7138 388.679 5.97915 388.108 5.9817 387.341C5.98424 386.637 6.61322 386.026 7.37333 385.992C8.17546 385.955 8.96104 386.66 8.98269 387.438C9.00179 388.114 8.44157 388.63 7.66235 388.653V388.651Z" fill="black"/>
<path d="M18.607 436.613C16.235 436.178 13.8503 435.798 11.4935 435.288C9.75684 434.912 8.05581 434.371 6.34333 433.89C3.92802 433.21 1.93796 431.942 0.641818 429.723C0.514496 429.504 0.343883 429.31 0.200009 429.101C-1.69964 426.355 -1.82315 425.428 -0.622494 422.305C-0.334745 421.556 0.0281226 420.832 0.406271 420.122C0.714391 419.543 1.1753 419.213 1.87176 419.553C1.98253 419.607 2.12003 419.672 2.2308 419.653C4.5137 419.241 6.69855 419.97 8.90124 420.298C14.5034 421.135 20.1222 421.449 25.774 421.166C27.4827 421.081 29.1481 421.191 30.7956 421.675C31.3482 421.836 31.5965 422.135 31.557 422.664C31.529 423.039 31.445 423.421 31.3227 423.778C30.5346 426.061 29.7312 428.34 28.9265 430.616C28.7483 431.121 28.4287 431.567 28.7623 432.174C28.8603 432.353 28.584 432.918 28.3332 433.08C25.3806 434.989 22.3058 436.583 18.607 436.612V436.613ZM29.4944 422.57C28.8578 422.57 28.3103 422.542 27.7654 422.575C26.538 422.65 25.3131 422.776 24.0857 422.847C16.6908 423.279 9.36596 423.018 2.28682 420.615C1.47451 422.144 0.663463 423.67 -0.206151 425.308C0.867179 426.941 1.97361 428.594 3.04694 430.27C3.50276 430.981 4.09863 431.506 4.89057 431.753C6.62598 432.294 8.36393 432.836 10.1248 433.284C10.7156 433.434 11.4057 433.425 12.0028 433.284C15.0127 432.575 18.0264 431.867 20.9982 431.014C22.4356 430.601 23.826 430.52 25.2609 430.787C25.9574 430.917 26.6398 431.118 27.2293 431.263C27.9729 428.407 28.7063 425.591 29.4944 422.568V422.57Z" fill="black"/>
<path d="M68.226 255.278C67.4366 254.466 67.8096 253.133 66.9438 252.259C66.4052 252.498 65.8285 252.738 65.2644 253.003C64.3121 253.451 63.3304 253.851 62.429 254.386C60.9775 255.248 59.4038 255.378 57.788 255.337C56.4754 255.304 55.1639 255.221 53.8525 255.165C51.0234 255.045 48.37 254.269 45.8566 252.997C44.5452 252.333 43.2593 251.622 41.8944 250.896C41.2768 252.054 41.8511 253.519 41.1011 254.899C40.8121 254.53 40.5244 254.331 40.5053 254.111C40.3627 252.382 40.5447 250.684 41.0247 248.8C41.6079 249.106 42.0115 249.29 42.3871 249.521C43.3993 250.139 44.3784 250.813 45.4085 251.399C47.2292 252.435 49.1377 253.172 51.287 253.233C53.1471 253.286 55.001 253.542 56.8611 253.613C60.1677 253.738 63.2056 252.741 66.1137 251.256C67.4646 250.566 67.667 250.639 68.2629 252.068C68.5213 252.688 68.7403 253.345 68.8435 254.005C68.9046 254.4 68.7085 254.835 68.6283 255.253C68.4946 255.262 68.3609 255.269 68.2272 255.278H68.226Z" fill="black"/>
<path d="M40.6403 217.724C41.2323 217.759 41.832 217.863 42.4164 217.813C44.1747 217.663 45.6313 218.473 47.0777 219.256C48.0237 219.769 48.3178 220.837 48.7418 221.744C48.9621 222.215 48.4719 222.613 47.918 222.442C46.7518 222.08 45.5587 221.763 44.4523 221.263C43.654 220.901 42.871 220.696 42.0141 220.69C40.1564 220.678 38.2975 220.62 36.4424 220.676C35.5665 220.702 34.6981 220.965 33.8221 221.086C33.3778 221.147 32.8532 221.298 32.6533 220.664C32.5158 220.23 32.8659 219.568 33.3905 219.318C34.2296 218.919 35.1247 218.622 35.9268 218.16C37.4508 217.282 39.0538 217.692 40.6403 217.723V217.724Z" fill="black"/>
<path d="M68.9848 218.974C71.9335 219.359 74.7639 220.062 76.8278 222.473C77.0952 222.785 77.318 223.17 77.4377 223.559C77.5039 223.775 77.3804 224.134 77.2136 224.305C77.1118 224.41 76.7451 224.339 76.5388 224.249C75.2299 223.684 73.9529 223.042 72.6275 222.52C71.2791 221.989 69.8353 221.788 68.4016 221.866C67.5842 221.911 66.7961 222.338 65.9761 222.505C64.6583 222.774 63.3291 222.994 61.9986 223.185C61.5491 223.25 61.2983 222.814 61.572 222.415C62.3169 221.327 63.1763 220.263 64.4215 219.803C65.8615 219.271 67.3232 218.563 68.9835 218.976L68.9848 218.974Z" fill="black"/>
<path d="M42.9219 229.184C41.8129 228.992 40.2876 228.834 38.8285 228.434C37.8736 228.172 36.9263 227.678 36.1356 227.077C34.7656 226.036 34.8458 224.531 36.2986 223.627C37.0727 223.144 37.978 222.79 38.8718 222.597C41.4462 222.039 44.0258 222.191 46.5379 222.962C47.3744 223.219 48.1982 223.636 48.9124 224.144C50.5218 225.287 50.448 226.955 48.7291 227.904C47.8926 228.366 46.9326 228.653 45.9942 228.87C45.1348 229.067 44.2295 229.062 42.9245 229.186L42.9219 229.184ZM46.0846 223.699C43.9978 223.074 41.9403 222.916 39.87 223.256C38.9189 223.413 37.9487 223.67 37.0867 224.088C35.6836 224.768 35.6072 225.882 36.9327 226.689C39.8382 228.457 42.9983 228.538 46.1623 227.994C46.0732 227.185 45.9535 226.531 45.942 225.874C45.9305 225.2 46.026 224.526 46.0859 223.699H46.0846Z" fill="black"/>
<path d="M67.6861 231.118C66.0004 230.943 64.3566 230.776 62.8313 230.07C62.1883 229.772 61.5593 229.392 61.0157 228.939C59.8838 227.997 59.8901 226.59 61.0399 225.673C61.5568 225.261 62.1807 224.917 62.8122 224.722C65.8399 223.786 68.8333 223.977 71.7286 225.252C72.3296 225.517 72.9025 225.947 73.3571 226.426C74.2661 227.385 74.191 228.594 73.1597 229.426C72.6135 229.866 71.9514 230.248 71.2804 230.431C70.1078 230.752 68.888 230.899 67.6874 231.119L67.6861 231.118ZM71.0958 225.799C68.231 224.842 65.3968 224.583 62.5334 225.691C62.2227 225.811 61.9209 225.99 61.6586 226.198C60.826 226.852 60.7419 227.666 61.553 228.331C62.1616 228.828 62.8886 229.241 63.6283 229.507C65.6158 230.22 67.6785 230.324 69.7602 229.988C70.0798 229.936 70.3879 229.816 70.7113 229.725C70.8373 228.436 70.9557 227.225 71.0958 225.799Z" fill="black"/>
<path d="M42.5705 272.71C43.3128 272.116 43.6998 272.527 44.1022 272.686C46.1432 273.495 48.1434 274.43 50.2302 275.092C51.231 275.41 52.4265 275.411 53.4731 275.219C55.2544 274.893 56.9936 274.322 58.7379 273.81C59.2561 273.659 59.7183 273.319 60.2327 273.147C60.467 273.069 60.8578 273.092 61.0195 273.241C61.3098 273.507 61.0654 273.781 60.8005 273.957C60.4211 274.209 60.057 274.537 59.6343 274.662C57.7282 275.227 55.8248 275.819 53.8831 276.235C52.028 276.631 50.1704 276.372 48.4261 275.608C46.8358 274.912 45.2786 274.14 43.7138 273.388C43.3599 273.217 43.0339 272.988 42.5692 272.71H42.5705Z" fill="black"/>
<path d="M48.8041 241.452C49.9157 240.586 51.222 240.632 52.0343 241.549C52.3946 241.955 52.7117 242.422 52.9523 242.909C53.2732 243.559 53.1089 244.488 52.7066 244.796C52.2126 245.174 51.1405 245.067 50.5994 244.526C49.7527 243.678 49.1161 242.694 48.8041 241.451V241.452Z" fill="black"/>
<path d="M36.6678 250.383C36.6258 248.552 37.5348 247.225 38.9838 246.26C39.4498 245.95 40.0813 245.86 40.6517 245.747C40.9891 245.679 41.4182 245.804 41.3723 246.233C41.3443 246.494 41.0311 246.914 40.8159 246.935C39.2168 247.087 38.6375 248.252 38.202 249.517C38.0441 249.974 38.118 250.519 38.1231 251.023C38.1269 251.446 38.2428 251.91 37.6864 252.07C37.2726 252.188 36.7671 251.719 36.6741 251.143C36.6347 250.896 36.6678 250.636 36.6678 250.383Z" fill="black"/>
<path d="M45.937 240.17C46.4476 240.443 46.8117 240.575 47.0982 240.807C47.4165 241.063 47.7526 241.368 47.9092 241.728C48.0022 241.941 47.8405 242.379 47.6482 242.564C47.5196 242.688 47.0905 242.629 46.8741 242.509C46.4106 242.25 46.0096 241.883 45.5614 241.592C44.7503 241.065 44.4677 239.848 45.103 239.029C45.5869 238.405 46.2184 237.89 46.827 237.374C46.9607 237.261 47.2713 237.355 47.5005 237.354C47.4941 237.584 47.5667 237.863 47.4636 238.034C47.2484 238.389 46.9199 238.674 46.6716 239.013C46.4297 239.342 46.2311 239.701 45.9357 240.17H45.937Z" fill="black"/>
<path d="M36.818 228.573C37.0153 228.6 48.7278 229.206 48.7787 229.201C48.9913 229.565 48.8207 229.744 48.4667 229.816C47.0305 230.109 45.6007 230.59 44.1556 230.64C41.9313 230.715 39.7108 230.422 37.6265 229.505C37.2432 229.336 36.8358 229.222 36.818 228.575V228.573Z" fill="black"/>
<path d="M61.3964 244.504C61.5835 244.04 61.7351 243.744 61.8229 243.429C62.0877 242.483 61.9732 241.629 61.3085 240.833C60.6681 240.065 60.1283 239.215 59.5464 238.406C60.4338 237.738 60.5599 237.723 60.9775 238.279C61.511 238.988 62.0024 239.728 62.5346 240.437C62.9981 241.055 63.2018 241.686 62.8848 242.448C62.7396 242.794 62.6849 243.182 62.6225 243.557C62.5257 244.147 62.1743 244.424 61.3951 244.504H61.3964Z" fill="black"/>
<path d="M61.236 230.393C61.6039 230.443 61.814 230.425 61.9821 230.501C63.771 231.315 65.6961 231.436 67.6008 231.745C69.2305 232.01 70.6375 231.701 72.0597 231.028C72.3181 230.906 72.6555 230.951 72.956 230.919C72.9828 230.998 73.0095 231.078 73.0362 231.157C72.8631 231.296 72.7103 231.483 72.5129 231.567C70.8794 232.266 69.2789 232.867 67.4047 232.277C66.1824 231.893 64.8328 231.923 63.5456 231.733C62.6823 231.604 61.8471 231.384 61.2372 230.393H61.236Z" fill="black"/>
<path d="M69.6546 251.634C69.8965 248.853 68.3101 247.783 65.9126 247.52C65.9495 246.919 66.2907 246.721 66.7453 246.669C68.8881 246.423 70.91 248.656 70.4147 250.736C70.3434 251.036 70.1282 251.301 69.9793 251.581C69.8711 251.598 69.7628 251.616 69.6546 251.634Z" fill="black"/>
<path d="M51.7186 245.932C51.5441 246.287 51.3926 246.609 51.2284 246.923C50.6274 248.076 50.1958 249.228 50.9992 250.485C51.087 250.621 50.9877 251.005 50.8477 251.121C50.7076 251.237 50.3397 251.254 50.1945 251.147C49.9373 250.957 49.7056 250.669 49.5834 250.374C49.1034 249.222 49.605 246.977 50.495 246.115C50.7386 245.879 51.1465 245.817 51.7186 245.93V245.932Z" fill="black"/>
<path d="M54.74 247.019C54.8317 247.252 54.9577 247.41 54.9386 247.546C54.7655 248.787 55.2595 249.863 55.7484 250.943C55.7828 251.019 55.8337 251.091 55.863 251.168C56.003 251.554 56.3124 252.021 55.7802 252.275C55.262 252.522 55.043 252.024 54.8584 251.653C54.3237 250.579 53.4477 249.619 53.701 248.269C53.8054 247.713 53.9328 247.189 54.74 247.019Z" fill="black"/>
<path d="M59.7095 244.804C58.957 244.803 58.6068 244.55 58.4286 244.056C58.2593 243.586 58.4222 243.208 58.8144 242.957C59.3097 242.64 59.8126 242.299 60.3626 242.12C60.6415 242.03 61.0973 242.192 61.3379 242.398C61.4512 242.495 61.3112 243.001 61.1686 243.257C60.9458 243.658 60.6504 244.03 60.3333 244.365C60.1207 244.59 59.8177 244.732 59.7095 244.806V244.804Z" fill="black"/>
<path d="M134.29 115.15C133.42 115.15 132.685 114.97 132.085 114.61C131.495 114.25 131.01 113.7 130.63 112.96L132.49 112.03C132.62 112.47 132.825 112.825 133.105 113.095C133.385 113.365 133.795 113.5 134.335 113.5C134.705 113.5 135.02 113.435 135.28 113.305C135.54 113.175 135.74 112.985 135.88 112.735C136.03 112.485 136.105 112.18 136.105 111.82C136.105 111.46 136.035 111.16 135.895 110.92C135.765 110.67 135.575 110.485 135.325 110.365C135.075 110.235 134.76 110.17 134.38 110.17C134.12 110.17 133.875 110.195 133.645 110.245C133.425 110.295 133.225 110.375 133.045 110.485C132.865 110.585 132.705 110.72 132.565 110.89L130.945 110.59L131.56 105.1H137.545V106.765H133.12L132.82 109.18L132.775 109.375H132.805C133.015 109.135 133.3 108.95 133.66 108.82C134.03 108.69 134.45 108.625 134.92 108.625C135.57 108.625 136.125 108.755 136.585 109.015C137.045 109.275 137.4 109.64 137.65 110.11C137.9 110.57 138.025 111.1 138.025 111.7C138.025 112.27 137.93 112.775 137.74 113.215C137.55 113.645 137.28 114.005 136.93 114.295C136.59 114.575 136.195 114.79 135.745 114.94C135.295 115.08 134.81 115.15 134.29 115.15ZM143.5 115.15C142.23 115.15 141.25 114.72 140.56 113.86C139.88 113 139.54 111.73 139.54 110.05C139.54 108.37 139.88 107.1 140.56 106.24C141.25 105.38 142.23 104.95 143.5 104.95C144.77 104.95 145.745 105.38 146.425 106.24C147.115 107.1 147.46 108.37 147.46 110.05C147.46 111.73 147.115 113 146.425 113.86C145.745 114.72 144.77 115.15 143.5 115.15ZM143.5 113.485C143.93 113.485 144.28 113.365 144.55 113.125C144.83 112.875 145.04 112.5 145.18 112C145.32 111.49 145.39 110.84 145.39 110.05C145.39 109.26 145.32 108.615 145.18 108.115C145.04 107.605 144.83 107.23 144.55 106.99C144.28 106.74 143.93 106.615 143.5 106.615C143.07 106.615 142.715 106.74 142.435 106.99C142.155 107.23 141.945 107.605 141.805 108.115C141.675 108.615 141.61 109.26 141.61 110.05C141.61 110.84 141.675 111.49 141.805 112C141.945 112.5 142.155 112.875 142.435 113.125C142.715 113.365 143.07 113.485 143.5 113.485ZM150.922 115L157.597 105.1H159.247L152.572 115H150.922ZM151.417 104.95C151.957 104.95 152.422 105.065 152.812 105.295C153.212 105.525 153.517 105.85 153.727 106.27C153.947 106.69 154.057 107.18 154.057 107.74C154.057 108.3 153.947 108.79 153.727 109.21C153.517 109.62 153.212 109.945 152.812 110.185C152.422 110.415 151.957 110.53 151.417 110.53C150.887 110.53 150.422 110.415 150.022 110.185C149.622 109.945 149.312 109.62 149.092 109.21C148.882 108.79 148.777 108.3 148.777 107.74C148.777 107.18 148.882 106.69 149.092 106.27C149.312 105.85 149.622 105.525 150.022 105.295C150.422 105.065 150.887 104.95 151.417 104.95ZM151.417 106.375C151.197 106.375 151.007 106.43 150.847 106.54C150.687 106.64 150.567 106.795 150.487 107.005C150.407 107.205 150.367 107.45 150.367 107.74C150.367 108.02 150.407 108.265 150.487 108.475C150.567 108.675 150.687 108.83 150.847 108.94C151.007 109.04 151.197 109.09 151.417 109.09C151.647 109.09 151.837 109.04 151.987 108.94C152.147 108.83 152.267 108.675 152.347 108.475C152.427 108.265 152.467 108.02 152.467 107.74C152.467 107.45 152.427 107.205 152.347 107.005C152.267 106.795 152.147 106.64 151.987 106.54C151.837 106.43 151.647 106.375 151.417 106.375ZM158.737 109.57C159.267 109.57 159.727 109.69 160.117 109.93C160.517 110.16 160.827 110.485 161.047 110.905C161.267 111.315 161.377 111.8 161.377 112.36C161.377 112.92 161.267 113.41 161.047 113.83C160.827 114.25 160.517 114.575 160.117 114.805C159.727 115.035 159.267 115.15 158.737 115.15C158.207 115.15 157.742 115.035 157.342 114.805C156.942 114.575 156.632 114.25 156.412 113.83C156.202 113.41 156.097 112.92 156.097 112.36C156.097 111.8 156.202 111.315 156.412 110.905C156.632 110.485 156.942 110.16 157.342 109.93C157.742 109.69 158.207 109.57 158.737 109.57ZM158.737 111.01C158.507 111.01 158.312 111.065 158.152 111.175C158.002 111.275 157.887 111.425 157.807 111.625C157.727 111.825 157.687 112.07 157.687 112.36C157.687 112.64 157.727 112.885 157.807 113.095C157.887 113.305 158.002 113.465 158.152 113.575C158.312 113.675 158.507 113.725 158.737 113.725C158.967 113.725 159.157 113.675 159.307 113.575C159.467 113.465 159.587 113.305 159.667 113.095C159.747 112.885 159.787 112.64 159.787 112.36C159.787 112.07 159.747 111.825 159.667 111.625C159.587 111.425 159.467 111.275 159.307 111.175C159.157 111.065 158.967 111.01 158.737 111.01Z" fill="black"/>
<circle cx="195.356" cy="115.356" r="114.356" stroke="black" stroke-width="2"/>
<path d="M195.788 2.59229V229.416" stroke="black" stroke-width="2"/>
<path d="M291.702 178.867L195.788 114.924" stroke="black" stroke-width="2"/>
<path d="M251.09 214.295L195.788 116.652" stroke="black" stroke-width="2"/>
<path d="M246.455 90.15C245.465 90.15 244.62 89.945 243.92 89.535C243.23 89.115 242.755 88.515 242.495 87.735L244.445 86.88C244.515 87.24 244.63 87.54 244.79 87.78C244.95 88.01 245.165 88.185 245.435 88.305C245.715 88.425 246.045 88.485 246.425 88.485C246.765 88.485 247.05 88.425 247.28 88.305C247.52 88.185 247.705 88.015 247.835 87.795C247.965 87.575 248.03 87.325 248.03 87.045C248.03 86.745 247.97 86.5 247.85 86.31C247.74 86.12 247.57 85.985 247.34 85.905C247.11 85.815 246.82 85.77 246.47 85.77C246.34 85.77 246.215 85.775 246.095 85.785C245.985 85.785 245.86 85.795 245.72 85.815V84.3C245.8 84.31 245.88 84.32 245.96 84.33C246.05 84.33 246.14 84.33 246.23 84.33C246.79 84.33 247.19 84.22 247.43 84C247.68 83.77 247.805 83.405 247.805 82.905C247.805 82.495 247.68 82.18 247.43 81.96C247.19 81.73 246.845 81.615 246.395 81.615C245.915 81.615 245.535 81.735 245.255 81.975C244.975 82.205 244.78 82.56 244.67 83.04L242.825 82.35C242.945 81.85 243.175 81.42 243.515 81.06C243.865 80.7 244.295 80.425 244.805 80.235C245.315 80.035 245.88 79.935 246.5 79.935C247.24 79.935 247.855 80.05 248.345 80.28C248.845 80.51 249.22 80.825 249.47 81.225C249.73 81.625 249.86 82.085 249.86 82.605C249.86 83.015 249.795 83.365 249.665 83.655C249.545 83.935 249.385 84.175 249.185 84.375C248.995 84.565 248.795 84.71 248.585 84.81C248.375 84.91 248.18 84.97 248 84.99V85.035C248.23 85.045 248.465 85.095 248.705 85.185C248.945 85.265 249.165 85.39 249.365 85.56C249.575 85.73 249.745 85.95 249.875 86.22C250.005 86.48 250.07 86.79 250.07 87.15C250.07 87.75 249.91 88.28 249.59 88.74C249.28 89.19 248.855 89.54 248.315 89.79C247.775 90.03 247.155 90.15 246.455 90.15ZM255.603 90.15C254.333 90.15 253.353 89.72 252.663 88.86C251.983 88 251.643 86.73 251.643 85.05C251.643 83.37 251.983 82.1 252.663 81.24C253.353 80.38 254.333 79.95 255.603 79.95C256.873 79.95 257.848 80.38 258.528 81.24C259.218 82.1 259.563 83.37 259.563 85.05C259.563 86.73 259.218 88 258.528 88.86C257.848 89.72 256.873 90.15 255.603 90.15ZM255.603 88.485C256.033 88.485 256.383 88.365 256.653 88.125C256.933 87.875 257.143 87.5 257.283 87C257.423 86.49 257.493 85.84 257.493 85.05C257.493 84.26 257.423 83.615 257.283 83.115C257.143 82.605 256.933 82.23 256.653 81.99C256.383 81.74 256.033 81.615 255.603 81.615C255.173 81.615 254.818 81.74 254.538 81.99C254.258 82.23 254.048 82.605 253.908 83.115C253.778 83.615 253.713 84.26 253.713 85.05C253.713 85.84 253.778 86.49 253.908 87C254.048 87.5 254.258 87.875 254.538 88.125C254.818 88.365 255.173 88.485 255.603 88.485ZM263.024 90L269.699 80.1H271.349L264.674 90H263.024ZM263.519 79.95C264.059 79.95 264.524 80.065 264.914 80.295C265.314 80.525 265.619 80.85 265.829 81.27C266.049 81.69 266.159 82.18 266.159 82.74C266.159 83.3 266.049 83.79 265.829 84.21C265.619 84.62 265.314 84.945 264.914 85.185C264.524 85.415 264.059 85.53 263.519 85.53C262.989 85.53 262.524 85.415 262.124 85.185C261.724 84.945 261.414 84.62 261.194 84.21C260.984 83.79 260.879 83.3 260.879 82.74C260.879 82.18 260.984 81.69 261.194 81.27C261.414 80.85 261.724 80.525 262.124 80.295C262.524 80.065 262.989 79.95 263.519 79.95ZM263.519 81.375C263.299 81.375 263.109 81.43 262.949 81.54C262.789 81.64 262.669 81.795 262.589 82.005C262.509 82.205 262.469 82.45 262.469 82.74C262.469 83.02 262.509 83.265 262.589 83.475C262.669 83.675 262.789 83.83 262.949 83.94C263.109 84.04 263.299 84.09 263.519 84.09C263.749 84.09 263.939 84.04 264.089 83.94C264.249 83.83 264.369 83.675 264.449 83.475C264.529 83.265 264.569 83.02 264.569 82.74C264.569 82.45 264.529 82.205 264.449 82.005C264.369 81.795 264.249 81.64 264.089 81.54C263.939 81.43 263.749 81.375 263.519 81.375ZM270.839 84.57C271.369 84.57 271.829 84.69 272.219 84.93C272.619 85.16 272.929 85.485 273.149 85.905C273.369 86.315 273.479 86.8 273.479 87.36C273.479 87.92 273.369 88.41 273.149 88.83C272.929 89.25 272.619 89.575 272.219 89.805C271.829 90.035 271.369 90.15 270.839 90.15C270.309 90.15 269.844 90.035 269.444 89.805C269.044 89.575 268.734 89.25 268.514 88.83C268.304 88.41 268.199 87.92 268.199 87.36C268.199 86.8 268.304 86.315 268.514 85.905C268.734 85.485 269.044 85.16 269.444 84.93C269.844 84.69 270.309 84.57 270.839 84.57ZM270.839 86.01C270.609 86.01 270.414 86.065 270.254 86.175C270.104 86.275 269.989 86.425 269.909 86.625C269.829 86.825 269.789 87.07 269.789 87.36C269.789 87.64 269.829 87.885 269.909 88.095C269.989 88.305 270.104 88.465 270.254 88.575C270.414 88.675 270.609 88.725 270.839 88.725C271.069 88.725 271.259 88.675 271.409 88.575C271.569 88.465 271.689 88.305 271.769 88.095C271.849 87.885 271.889 87.64 271.889 87.36C271.889 87.07 271.849 86.825 271.769 86.625C271.689 86.425 271.569 86.275 271.409 86.175C271.259 86.065 271.069 86.01 270.839 86.01Z" fill="black"/>
<path d="M246.955 184V177.73C246.955 177.5 246.955 177.265 246.955 177.025C246.965 176.775 246.975 176.52 246.985 176.26C246.645 176.57 246.265 176.84 245.845 177.07C245.425 177.3 244.995 177.46 244.555 177.55L244.285 175.81C244.515 175.79 244.77 175.725 245.05 175.615C245.34 175.495 245.63 175.355 245.92 175.195C246.22 175.025 246.49 174.85 246.73 174.67C246.98 174.48 247.17 174.29 247.3 174.1H248.98V184H246.955ZM255.01 184.15C253.74 184.15 252.76 183.72 252.07 182.86C251.39 182 251.05 180.73 251.05 179.05C251.05 177.37 251.39 176.1 252.07 175.24C252.76 174.38 253.74 173.95 255.01 173.95C256.28 173.95 257.255 174.38 257.935 175.24C258.625 176.1 258.97 177.37 258.97 179.05C258.97 180.73 258.625 182 257.935 182.86C257.255 183.72 256.28 184.15 255.01 184.15ZM255.01 182.485C255.44 182.485 255.79 182.365 256.06 182.125C256.34 181.875 256.55 181.5 256.69 181C256.83 180.49 256.9 179.84 256.9 179.05C256.9 178.26 256.83 177.615 256.69 177.115C256.55 176.605 256.34 176.23 256.06 175.99C255.79 175.74 255.44 175.615 255.01 175.615C254.58 175.615 254.225 175.74 253.945 175.99C253.665 176.23 253.455 176.605 253.315 177.115C253.185 177.615 253.12 178.26 253.12 179.05C253.12 179.84 253.185 180.49 253.315 181C253.455 181.5 253.665 181.875 253.945 182.125C254.225 182.365 254.58 182.485 255.01 182.485ZM262.431 184L269.106 174.1H270.756L264.081 184H262.431ZM262.926 173.95C263.466 173.95 263.931 174.065 264.321 174.295C264.721 174.525 265.026 174.85 265.236 175.27C265.456 175.69 265.566 176.18 265.566 176.74C265.566 177.3 265.456 177.79 265.236 178.21C265.026 178.62 264.721 178.945 264.321 179.185C263.931 179.415 263.466 179.53 262.926 179.53C262.396 179.53 261.931 179.415 261.531 179.185C261.131 178.945 260.821 178.62 260.601 178.21C260.391 177.79 260.286 177.3 260.286 176.74C260.286 176.18 260.391 175.69 260.601 175.27C260.821 174.85 261.131 174.525 261.531 174.295C261.931 174.065 262.396 173.95 262.926 173.95ZM262.926 175.375C262.706 175.375 262.516 175.43 262.356 175.54C262.196 175.64 262.076 175.795 261.996 176.005C261.916 176.205 261.876 176.45 261.876 176.74C261.876 177.02 261.916 177.265 261.996 177.475C262.076 177.675 262.196 177.83 262.356 177.94C262.516 178.04 262.706 178.09 262.926 178.09C263.156 178.09 263.346 178.04 263.496 177.94C263.656 177.83 263.776 177.675 263.856 177.475C263.936 177.265 263.976 177.02 263.976 176.74C263.976 176.45 263.936 176.205 263.856 176.005C263.776 175.795 263.656 175.64 263.496 175.54C263.346 175.43 263.156 175.375 262.926 175.375ZM270.246 178.57C270.776 178.57 271.236 178.69 271.626 178.93C272.026 179.16 272.336 179.485 272.556 179.905C272.776 180.315 272.886 180.8 272.886 181.36C272.886 181.92 272.776 182.41 272.556 182.83C272.336 183.25 272.026 183.575 271.626 183.805C271.236 184.035 270.776 184.15 270.246 184.15C269.716 184.15 269.251 184.035 268.851 183.805C268.451 183.575 268.141 183.25 267.921 182.83C267.711 182.41 267.606 181.92 267.606 181.36C267.606 180.8 267.711 180.315 267.921 179.905C268.141 179.485 268.451 179.16 268.851 178.93C269.251 178.69 269.716 178.57 270.246 178.57ZM270.246 180.01C270.016 180.01 269.821 180.065 269.661 180.175C269.511 180.275 269.396 180.425 269.316 180.625C269.236 180.825 269.196 181.07 269.196 181.36C269.196 181.64 269.236 181.885 269.316 182.095C269.396 182.305 269.511 182.465 269.661 182.575C269.821 182.675 270.016 182.725 270.246 182.725C270.476 182.725 270.666 182.675 270.816 182.575C270.976 182.465 271.096 182.305 271.176 182.095C271.256 181.885 271.296 181.64 271.296 181.36C271.296 181.07 271.256 180.825 271.176 180.625C271.096 180.425 270.976 180.275 270.816 180.175C270.666 180.065 270.476 180.01 270.246 180.01Z" fill="black"/>
<path d="M204.955 206V199.73C204.955 199.5 204.955 199.265 204.955 199.025C204.965 198.775 204.975 198.52 204.985 198.26C204.645 198.57 204.265 198.84 203.845 199.07C203.425 199.3 202.995 199.46 202.555 199.55L202.285 197.81C202.515 197.79 202.77 197.725 203.05 197.615C203.34 197.495 203.63 197.355 203.92 197.195C204.22 197.025 204.49 196.85 204.73 196.67C204.98 196.48 205.17 196.29 205.3 196.1H206.98V206H204.955ZM213.01 206.15C211.74 206.15 210.76 205.72 210.07 204.86C209.39 204 209.05 202.73 209.05 201.05C209.05 199.37 209.39 198.1 210.07 197.24C210.76 196.38 211.74 195.95 213.01 195.95C214.28 195.95 215.255 196.38 215.935 197.24C216.625 198.1 216.97 199.37 216.97 201.05C216.97 202.73 216.625 204 215.935 204.86C215.255 205.72 214.28 206.15 213.01 206.15ZM213.01 204.485C213.44 204.485 213.79 204.365 214.06 204.125C214.34 203.875 214.55 203.5 214.69 203C214.83 202.49 214.9 201.84 214.9 201.05C214.9 200.26 214.83 199.615 214.69 199.115C214.55 198.605 214.34 198.23 214.06 197.99C213.79 197.74 213.44 197.615 213.01 197.615C212.58 197.615 212.225 197.74 211.945 197.99C211.665 198.23 211.455 198.605 211.315 199.115C211.185 199.615 211.12 200.26 211.12 201.05C211.12 201.84 211.185 202.49 211.315 203C211.455 203.5 211.665 203.875 211.945 204.125C212.225 204.365 212.58 204.485 213.01 204.485ZM220.431 206L227.106 196.1H228.756L222.081 206H220.431ZM220.926 195.95C221.466 195.95 221.931 196.065 222.321 196.295C222.721 196.525 223.026 196.85 223.236 197.27C223.456 197.69 223.566 198.18 223.566 198.74C223.566 199.3 223.456 199.79 223.236 200.21C223.026 200.62 222.721 200.945 222.321 201.185C221.931 201.415 221.466 201.53 220.926 201.53C220.396 201.53 219.931 201.415 219.531 201.185C219.131 200.945 218.821 200.62 218.601 200.21C218.391 199.79 218.286 199.3 218.286 198.74C218.286 198.18 218.391 197.69 218.601 197.27C218.821 196.85 219.131 196.525 219.531 196.295C219.931 196.065 220.396 195.95 220.926 195.95ZM220.926 197.375C220.706 197.375 220.516 197.43 220.356 197.54C220.196 197.64 220.076 197.795 219.996 198.005C219.916 198.205 219.876 198.45 219.876 198.74C219.876 199.02 219.916 199.265 219.996 199.475C220.076 199.675 220.196 199.83 220.356 199.94C220.516 200.04 220.706 200.09 220.926 200.09C221.156 200.09 221.346 200.04 221.496 199.94C221.656 199.83 221.776 199.675 221.856 199.475C221.936 199.265 221.976 199.02 221.976 198.74C221.976 198.45 221.936 198.205 221.856 198.005C221.776 197.795 221.656 197.64 221.496 197.54C221.346 197.43 221.156 197.375 220.926 197.375ZM228.246 200.57C228.776 200.57 229.236 200.69 229.626 200.93C230.026 201.16 230.336 201.485 230.556 201.905C230.776 202.315 230.886 202.8 230.886 203.36C230.886 203.92 230.776 204.41 230.556 204.83C230.336 205.25 230.026 205.575 229.626 205.805C229.236 206.035 228.776 206.15 228.246 206.15C227.716 206.15 227.251 206.035 226.851 205.805C226.451 205.575 226.141 205.25 225.921 204.83C225.711 204.41 225.606 203.92 225.606 203.36C225.606 202.8 225.711 202.315 225.921 201.905C226.141 201.485 226.451 201.16 226.851 200.93C227.251 200.69 227.716 200.57 228.246 200.57ZM228.246 202.01C228.016 202.01 227.821 202.065 227.661 202.175C227.511 202.275 227.396 202.425 227.316 202.625C227.236 202.825 227.196 203.07 227.196 203.36C227.196 203.64 227.236 203.885 227.316 204.095C227.396 204.305 227.511 204.465 227.661 204.575C227.821 204.675 228.016 204.725 228.246 204.725C228.476 204.725 228.666 204.675 228.816 204.575C228.976 204.465 229.096 204.305 229.176 204.095C229.256 203.885 229.296 203.64 229.296 203.36C229.296 203.07 229.256 202.825 229.176 202.625C229.096 202.425 228.976 202.275 228.816 202.175C228.666 202.065 228.476 202.01 228.246 202.01Z" fill="black"/>
</svg>
