<svg width="34" height="33" viewBox="0 0 34 33" fill="none" xmlns="http://www.w3.org/2000/svg">
<path fill-rule="evenodd" clip-rule="evenodd" d="M33.0117 16.1699C33.0117 25.1003 25.7722 32.3398 16.8418 32.3398C7.91139 32.3398 0.671875 25.1003 0.671875 16.1699C0.671875 7.23952 7.91139 0 16.8418 0C25.7722 0 33.0117 7.23952 33.0117 16.1699ZM17.4212 11.9373C15.8485 12.5915 12.7052 13.9455 7.99131 15.9992C7.22586 16.3036 6.82488 16.6014 6.78837 16.8926C6.72668 17.3847 7.34292 17.5784 8.18209 17.8423C8.29623 17.8782 8.41451 17.9154 8.53576 17.9548C9.36137 18.2232 10.472 18.5372 11.0493 18.5496C11.573 18.5609 12.1575 18.345 12.8029 17.9019C17.2072 14.9289 19.4807 13.4262 19.6234 13.3938C19.7241 13.3709 19.8637 13.3422 19.9582 13.4262C20.0528 13.5102 20.0435 13.6694 20.0335 13.7121C19.9724 13.9723 17.5534 16.2212 16.3016 17.3851C15.9114 17.7479 15.6345 18.0052 15.5779 18.064C15.4512 18.1957 15.322 18.3202 15.1978 18.4399C14.4308 19.1793 13.8556 19.7338 15.2297 20.6393C15.89 21.0744 16.4184 21.4342 16.9455 21.7932C17.5212 22.1852 18.0954 22.5763 18.8383 23.0632C19.0275 23.1873 19.2083 23.3162 19.3844 23.4417C20.0543 23.9193 20.6562 24.3484 21.3998 24.28C21.8319 24.2402 22.2782 23.8339 22.5049 22.6222C23.0405 19.7585 24.0935 13.5537 24.3368 10.9969C24.3582 10.7728 24.3313 10.4862 24.3098 10.3603C24.2883 10.2344 24.2433 10.0551 24.0797 9.9224C23.8859 9.7652 23.5868 9.73205 23.4531 9.7344C22.8449 9.74512 21.9118 10.0696 17.4212 11.9373Z" fill="black"/>
</svg>
