<svg width="591" height="412" viewBox="0 0 591 412" fill="none" xmlns="http://www.w3.org/2000/svg">
<g clip-path="url(#clip0_541_1466)">
<path d="M486.458 357.702C486.529 356.975 486.597 356.289 486.669 355.547C485.228 355.217 483.919 355.537 482.642 355.716C472.997 357.068 463.296 357.89 453.604 358.794C442.875 359.794 432.148 360.801 421.418 361.791C412.665 362.598 403.909 363.373 395.156 364.18C385.415 365.077 375.676 365.998 365.936 366.904C357.372 367.702 348.807 368.483 340.244 369.289C331.776 370.086 323.311 370.923 314.842 371.709C308.066 372.337 301.285 372.913 294.506 373.517C289.093 374.001 283.681 374.489 278.269 374.987C277.916 375.019 277.57 375.145 277.096 375.259C306.879 379.605 336.501 383.927 366.123 388.249C366.139 388.279 366.153 388.308 366.169 388.337C365.889 388.365 365.61 388.398 365.33 388.42C365.19 388.432 365.047 388.42 364.905 388.432C359.722 388.866 354.634 388.039 349.538 387.287C342.622 386.267 335.698 385.283 328.778 384.291C318.303 382.792 307.821 381.334 297.35 379.796C289.359 378.623 281.38 377.355 273.394 376.138C273.085 376.091 272.763 376.133 272.397 376.133C272.939 379.663 273.201 383.14 273.052 386.636C273.017 387.483 272.923 388.334 272.77 389.168C272.678 389.67 272.468 390.225 271.828 390.264C271.109 390.31 270.831 389.744 270.713 389.186C270.539 388.358 270.431 387.508 270.382 386.663C270.201 383.55 270.058 380.433 269.901 377.317C269.891 377.128 269.867 376.937 269.884 376.751C269.949 376.013 270.217 375.223 269 374.843L269.25 374.57C269.692 374.381 270.121 374.089 270.582 374.022C273.292 373.631 276.004 373.229 278.728 372.95C286.201 372.182 293.68 371.467 301.16 370.743C307.51 370.127 313.862 369.527 320.212 368.924C327.833 368.201 335.454 367.479 343.077 366.765C349.617 366.153 356.159 365.565 362.699 364.946C370.132 364.242 377.563 363.512 384.995 362.801C391.394 362.19 397.792 361.597 404.191 360.981C411.577 360.27 418.959 359.537 426.345 358.827C432.742 358.211 439.142 357.614 445.541 357.008C452.128 356.385 458.711 355.716 465.302 355.153C470.811 354.682 476.33 354.343 481.845 353.93C483.441 353.811 485.034 353.638 486.734 353.479C486.817 352.851 486.902 352.351 486.946 351.848C487.839 341.536 488.723 331.223 489.621 320.912C490.072 315.735 490.558 310.559 491 305.38C491.061 304.666 491.39 304.217 492.009 303.99C492.895 303.666 493.79 303.348 494.704 303.125C504.021 300.851 513.334 298.558 522.666 296.348C532.044 294.127 541.443 291.996 550.833 289.825C551.891 289.581 552.949 289.34 554.003 289.083C555.169 288.798 556.098 289.262 556.353 290.274C556.61 291.29 556 292.132 554.827 292.408C545.399 294.616 535.979 296.866 526.539 299.029C516.454 301.341 506.352 303.575 496.256 305.836C495.292 306.051 494.314 306.212 493.225 306.42C493.062 308.111 492.892 309.792 492.74 311.474C491.897 320.841 491.058 330.208 490.219 339.577C489.832 343.908 489.451 348.239 489.075 352.571C489.046 352.898 488.992 353.262 489.1 353.551C489.32 354.139 489.083 354.602 488.961 355.156C488.703 356.336 488.703 357.571 488.6 358.784C488.557 359.286 488.541 359.791 488.475 360.289C488.4 360.848 488.242 361.395 488.187 361.956C487.634 367.646 487.083 373.338 486.556 379.032C486.417 380.534 486.346 382.043 486.266 383.55C486.21 384.625 485.777 384.927 484.713 384.764C483.459 384.571 482.19 384.469 480.925 384.345C471.14 383.399 461.353 382.486 451.573 381.504C444.143 380.76 436.721 379.948 429.3 379.131C424.65 378.619 420.01 378.033 415.364 377.496C414.616 377.409 413.86 377.408 413.107 377.367C412.211 377.318 411.699 376.798 411.815 376.053C411.92 375.374 412.45 375.096 413.333 375.181C418.22 375.655 423.111 376.116 428 376.578C432.564 377.011 437.128 377.438 441.691 377.87C448.278 378.494 454.868 379.086 461.451 379.754C466.998 380.316 472.537 380.961 478.079 381.578C480.14 381.808 482.198 382.066 484.428 382.331C485.017 375.391 485.598 368.54 486.197 361.487C485.452 361.554 484.859 361.574 484.279 361.666C473.31 363.395 462.347 365.171 451.372 366.855C444.507 367.909 437.61 368.765 430.747 369.822C423.93 370.872 417.135 372.059 410.331 373.189C410.059 373.235 409.792 373.316 409.402 373.409C409.476 375.036 409.548 376.621 409.622 378.272C409.897 378.36 410.148 378.48 410.412 378.52C422.694 380.406 434.986 382.226 447.255 384.186C458.033 385.908 468.781 387.802 479.547 389.583C482.017 389.992 484.509 390.256 486.991 390.585C487.085 390.598 487.195 390.574 487.271 390.616C488.746 391.443 490.19 390.833 491.648 390.542C499.107 389.057 506.579 387.642 514.025 386.093C523.69 384.083 533.334 381.972 542.985 379.901C544.185 379.645 545.38 379.369 546.579 379.101C546.809 379.05 547.037 378.951 547.268 378.947C547.857 378.935 548.271 379.213 548.393 379.809C548.501 380.338 548.274 380.738 547.796 380.968C547.589 381.067 547.348 381.104 547.118 381.15C529.371 384.66 511.724 388.629 494.082 392.625C492.378 393.01 490.661 393.344 488.941 393.654C488.442 393.745 487.899 393.745 487.4 393.657C483.218 392.915 479.055 392.061 474.861 391.398C465.901 389.979 456.921 388.691 447.959 387.284C439.417 385.944 430.886 384.54 422.357 383.124C418.209 382.436 414.077 381.656 409.937 380.927C409.524 380.855 409.099 380.794 408.682 380.811C407.56 380.855 407.107 380.642 406.777 379.611C406.548 378.899 406.416 378.138 406.358 377.391C406.238 375.839 406.109 374.279 406.143 372.724C406.184 370.934 406.985 370.472 408.724 370.873C409.385 371.026 410.131 370.943 410.818 370.835C414.691 370.228 418.564 369.609 422.427 368.941C429.41 367.734 436.386 366.486 443.366 365.262C456.862 362.895 470.36 360.534 483.856 358.168C484.689 358.022 485.52 357.866 486.451 357.697L486.458 357.702Z" fill="black"/>
<path d="M390.906 402.989C386.001 403.833 381.171 403.287 376.336 402.68C367.289 401.547 358.234 400.469 349.186 399.344C341.31 398.365 333.439 397.348 325.565 396.357C322.474 395.968 319.403 395.599 316.253 395.823C312.913 396.06 309.545 395.903 306.189 395.945C304.336 395.968 302.517 396.264 300.771 396.907C297.758 398.015 294.758 399.157 291.739 400.249C290.659 400.639 290.173 401.315 290.241 402.474C290.341 404.206 289.961 405.947 290.451 407.683C290.68 408.495 289.946 409.286 289.221 409.239C288.544 409.195 287.961 408.473 288.11 407.688C288.8 404.059 287.99 400.44 288.065 396.818C288.099 395.169 288.071 393.518 288.071 391.833C287.532 391.691 287.185 391.56 286.828 391.514C283.547 391.094 280.266 390.679 276.983 390.287C275.861 390.154 274.837 389.921 274.407 388.694C275.057 387.745 275.981 387.632 277.032 387.772C282.37 388.49 287.712 389.178 293.051 389.893C300.449 390.882 307.845 391.894 315.243 392.879C322.08 393.788 328.922 394.655 335.759 395.572C345.919 396.935 356.075 398.327 366.233 399.707C372.037 400.496 377.839 401.297 383.646 402.074C385.659 402.344 387.68 402.554 389.697 402.798C390.103 402.847 390.505 402.925 390.907 402.991L390.906 402.989Z" fill="black"/>
<path d="M236.868 202.973C239.223 201.431 241.139 199.264 244.22 199.349C244.255 198.898 244.333 198.551 244.298 198.216C244.159 196.925 244.218 195.66 244.525 194.392C244.609 194.05 244.502 193.598 244.339 193.27C243.069 190.719 240.889 189.214 238.232 188.547C236.484 188.108 235.909 186.89 235.526 185.48C235.144 184.067 235.741 182.833 236.843 181.954C237.482 181.444 238.273 180.994 239.063 180.824C241.566 180.285 244.009 180.537 246.224 181.932C249.166 183.785 250.526 185.823 251.395 189.625C255.112 189.11 258.585 189.779 261.506 192.169C262.056 191.968 262.52 191.672 262.998 191.647C265.607 191.512 268.219 191.437 270.831 191.367C271.221 191.357 271.613 191.487 272.093 191.565C273.502 190.204 275.128 189.042 277.086 188.511C277.959 188.274 278.935 188.157 279.822 188.285C282.079 188.609 282.918 190.632 281.69 192.552C281.501 192.846 281.295 193.129 281.062 193.469C281.533 193.651 281.958 193.782 282.35 193.977C282.861 194.232 283.399 194.477 283.832 194.838C284.921 195.746 285.022 196.706 283.987 197.662C283.154 198.43 282.136 199.006 281.168 199.616C280.687 199.919 280.132 200.105 279.47 200.408C279.785 200.899 280.082 201.361 280.379 201.825C281.017 202.828 281.248 203.858 280.566 204.939C279.86 206.057 278.966 206.729 277.521 206.658C275.177 206.541 272.825 206.604 270.479 206.527C269.816 206.506 269.422 206.731 269.039 207.235C268.451 208.008 267.795 208.734 267.145 209.459C266.768 209.88 266.292 210.107 265.715 209.875C262.774 208.688 259.632 208.823 256.566 208.446C255.386 208.301 254.192 208.099 253.063 207.737C252.243 207.475 251.499 206.942 250.76 206.468C250.282 206.16 249.877 205.74 249.364 205.307C246.839 206.696 244.956 208.871 242.579 210.331C243.138 211.661 243.717 212.858 244.142 214.106C244.468 215.06 244.637 216.075 244.8 217.076C244.849 217.375 244.748 217.868 244.538 218.013C242.797 219.208 241.152 220.593 239.016 221.132C239.003 221.181 238.936 221.283 238.964 221.336C239.661 222.696 239.604 222.858 238.192 223.874C232.761 227.78 227.336 231.692 221.911 235.604C221.487 235.91 221.084 236.248 220.437 236.755C263.559 236.569 306.392 236.742 349.376 236.931C349.17 237.629 348.806 237.629 348.477 237.645C346.885 237.721 345.291 237.84 343.697 237.846C321.321 237.908 298.944 237.978 276.569 237.996C258.225 238.01 239.88 237.99 221.538 237.881C219.631 237.871 218.189 238.328 216.745 239.52C213.98 241.804 211.081 243.926 208.242 246.119C207.477 246.71 206.726 247.317 205.704 248.127C227.476 248.127 248.929 248.104 270.382 248.133C291.816 248.161 313.252 247.95 334.737 248.167C334.78 249.057 334.241 249.053 333.781 249.079C332.278 249.162 330.772 249.278 329.268 249.278C318.502 249.281 307.734 249.251 296.968 249.243C267.856 249.222 238.745 249.207 209.635 249.189C208.66 249.189 207.683 249.206 206.712 249.162C206.119 249.136 205.531 249.004 204.797 248.9C202.936 250.339 200.947 251.89 198.943 253.42C196.195 255.515 193.421 257.577 190.69 259.693C190.111 260.143 189.691 260.794 189.156 261.311C187.633 262.785 186.141 264.3 184.53 265.673C183.73 266.356 182.674 266.129 181.736 265.757C180.748 265.364 179.782 264.922 178.795 264.527C175.364 263.155 171.791 262.259 168.151 261.753C164.175 261.198 160.721 259.506 157.41 257.404C155.391 256.123 153.397 254.796 151.716 253.064C151.563 252.906 151.383 252.773 151.201 252.648C151.141 252.607 151.036 252.631 150.81 252.616C150.947 257.378 151.597 262.129 150.939 267.035C151.363 267.19 151.801 267.358 152.245 267.511C158.149 269.536 164.062 271.539 169.956 273.593C172.171 274.365 174.36 275.218 176.535 276.098C178.548 276.912 180.489 277.86 182.047 279.453C182.703 280.124 182.738 280.08 182.318 280.992C180.838 284.208 179.339 287.416 177.911 290.654C175.328 296.511 173.709 302.683 172.063 308.843C170.247 315.644 168.588 322.489 166.62 329.245C164.22 337.475 160.74 345.282 156.736 352.857C155.888 354.463 155.05 356.074 154.166 357.66C153.375 359.08 152.724 359.28 151.21 358.604C148.983 357.611 146.717 356.736 144.17 356.142C144.069 356.817 143.953 357.447 143.884 358.084C143.441 362.178 143.066 366.281 142.556 370.366C142.025 374.602 140.728 378.658 139.381 382.694C139.086 383.577 138.582 384.091 137.609 384.242C136.926 384.347 136.283 384.705 135.62 384.953C134.988 384.293 133.622 384.051 131.743 384.303C131.638 385.994 131.472 387.707 131.438 389.423C131.365 393.232 131.375 397.041 131.323 400.849C131.299 402.576 131.24 404.303 131.134 406.027C131.081 406.888 130.932 407.756 130.185 408.583C129.387 404.373 129.521 400.271 129.334 396.192C129.147 392.122 129.198 388.057 129.753 383.932C125.977 383.275 122.249 382.626 118.417 381.959C118.271 382.158 118.058 382.435 117.86 382.721C117.661 383.009 117.501 383.218 117.045 383.23C116.365 383.246 116.031 383.704 115.925 384.445C115.502 387.404 115.695 390.368 115.686 393.336C115.678 396.033 115.537 398.731 115.361 401.423C115.293 402.46 115.073 403.513 114.362 404.607C114.242 404.216 114.124 404.004 114.118 403.788C114.089 402.595 114.076 401.399 114.08 400.204C114.086 397.858 114.114 395.513 114.121 393.167C114.129 390.384 114.122 387.602 114.122 384.785C113.995 384.785 113.854 384.748 113.746 384.791C108.293 386.969 102.601 388.268 96.858 389.385C88.4432 391.02 79.9513 391.887 71.3797 391.956C70.7588 391.961 70.1314 392.005 69.5199 391.927C67.7532 391.701 66.1247 392.081 64.4949 392.761C61.4321 394.039 58.2603 395.053 55.3703 396.731C54.9183 396.994 54.3906 397.127 53.8096 397.354C53.5916 402.217 54.4251 407.238 52.8272 412.046C52.7169 412.056 52.6066 412.066 52.4962 412.075C52.3939 411.871 52.237 411.677 52.1985 411.461C52.0801 410.809 51.9658 410.149 51.9246 409.489C51.5338 403.344 51.1536 397.199 50.7867 391.053C50.7348 390.177 50.78 389.296 50.78 388.449C48.5574 387.522 46.4929 386.621 44.3965 385.808C43.5165 385.466 42.55 385.254 42.1047 386.884C41.3323 385.72 40.5201 385.039 40.8338 383.823C40.9083 383.533 40.8844 383.21 40.8684 382.906C40.5467 376.756 40.2436 370.606 39.886 364.459C39.4141 356.322 38.8677 348.19 38.4104 340.053C38.0701 333.995 37.6102 327.936 38.2203 321.864C38.3732 320.336 38.441 318.798 38.5567 317.135C38.437 317.083 38.1685 316.95 37.8893 316.853C34.5021 315.675 31.1136 314.501 27.7238 313.331C26.0767 312.764 24.3858 312.494 22.6364 312.511C20.8138 312.528 19.0205 312.405 17.3455 311.505C16.0986 310.835 15.196 310.001 15.0192 308.516C14.8477 307.074 14.5021 305.645 14.4196 304.2C14.2189 300.664 14.0807 297.123 14.0049 293.583C13.9517 291.14 14.3399 288.734 14.7919 286.334C15.2093 284.116 15.5496 281.882 15.8141 279.642C15.9431 278.554 15.8713 277.434 15.8022 276.333C15.5868 272.869 15.644 269.406 16.3578 266.01C17.5782 260.206 18.7759 254.389 20.2914 248.66C21.9424 242.414 23.8727 236.24 25.8135 230.077C27.539 224.599 30.2017 219.538 33.222 214.668C34.7946 212.133 36.0495 209.476 36.9894 206.635C37.7524 204.33 38.7773 202.113 39.7052 199.863C40.221 198.612 41.1688 197.776 42.3746 197.209C42.7348 197.038 43.0844 196.838 43.458 196.706C46.1512 195.753 48.3287 194.022 50.3998 192.132C51.119 191.475 51.8063 190.781 52.5109 190.109C52.7674 189.864 53.0094 189.594 53.3005 189.4C55.2413 188.103 57.1224 186.695 59.1603 185.574C61.2101 184.448 63.4022 183.568 65.5704 182.676C66.3653 182.349 66.7442 181.97 66.8359 181.076C66.9875 179.595 67.4169 179.22 68.8978 178.905C69.7166 178.731 70.5501 178.62 71.5604 178.451C71.3504 177.845 71.2215 177.203 70.9197 176.655C70.0064 174.999 69.0161 173.385 68.0775 171.744C67.7492 171.169 67.478 170.56 67.1869 169.965C66.7256 169.021 66.247 168.084 65.8176 167.125C65.5385 166.502 65.1384 166.071 64.5614 165.664C63.7093 165.065 62.7934 164.367 62.2935 163.49C59.9978 159.455 58.6099 155.153 59.0499 150.423C59.1071 149.808 59.1616 149.176 59.3384 148.59C60.1493 145.914 60.1187 143.159 60.0669 140.421C59.9047 131.802 62.6219 124.253 68.2238 117.709C70.4478 115.112 72.8074 112.688 75.7997 110.959C76.1002 110.785 76.3501 110.52 76.4325 110.454C76.5043 100.167 76.5708 90.0696 76.6572 79.9718C76.6625 79.3524 76.5043 78.6226 77.2328 78.1666C77.7512 78.479 77.5904 78.9695 77.5984 79.367C77.6648 82.7781 77.7486 86.1892 77.7499 89.6003C77.7526 95.7579 77.702 101.917 77.6728 108.074C77.6701 108.548 77.6728 109.019 77.6728 109.611C79.7333 108.682 81.593 107.656 83.5751 107C85.5293 106.354 87.607 106.082 89.7978 105.61C89.7978 104.989 89.7978 104.381 89.7978 103.773C89.7845 89.3291 89.7672 74.8844 89.7646 60.441C89.7646 59.335 89.8962 58.2303 89.9307 57.1243C89.96 56.2004 90.4252 55.5889 91.3106 55C91.8809 71.8256 91.5884 88.4983 91.4515 105.219C91.942 105.219 92.281 105.231 92.62 105.218C94.5635 105.139 96.5084 104.978 98.4519 104.993C100.443 105.009 102.433 105.199 104.425 105.304C106.627 105.421 108.656 106.211 110.701 106.931C113.539 107.932 116.366 108.964 119.21 109.945C121.475 110.726 123.323 112.06 125.073 113.701C127.091 115.593 128.681 117.701 129.73 120.238C130.589 122.313 131.377 124.42 132.302 126.466C133.41 128.913 134.047 131.486 134.384 134.118C134.631 136.043 134.597 138.003 134.705 139.948C134.784 141.394 134.895 142.839 134.985 144.286C135.013 144.726 135.052 145.168 135.028 145.606C134.852 148.968 134.528 152.33 134.522 155.692C134.52 157.969 133.553 160.073 133.652 162.337C133.669 162.732 133.536 163.131 133.547 163.527C133.604 165.888 132.651 167.865 131.058 169.488C129.926 170.643 129.37 172.076 128.79 173.477C127.23 177.258 125.847 181.11 124.308 184.9C123.812 186.122 123.041 187.233 122.407 188.399C121.984 189.175 121.579 189.961 121.189 190.696C121.248 190.853 121.254 190.967 121.313 191.01C124.637 193.428 127.958 195.855 131.304 198.244C132.092 198.808 132.937 199.321 133.817 199.724C136.748 201.069 139.372 202.844 141.668 205.105C141.855 205.29 142.059 205.46 142.243 205.626C142.727 205.387 143.175 204.993 143.63 204.985C144.166 204.976 144.745 205.23 145.238 205.494C147.267 206.586 149.265 207.73 151.282 208.843C152.796 209.678 153.981 210.834 154.811 212.355C156.526 215.496 158.96 217.965 161.935 219.922C166.116 222.672 170.301 225.417 174.475 228.18C175.36 228.766 176.199 229.419 176.971 229.977C177.746 229.977 178.442 229.977 179.137 229.977C179.314 229.977 179.561 230.045 179.654 229.954C180.519 229.116 181.183 229.779 181.988 230.329C183.266 229.643 184.61 228.981 185.895 228.22C190.093 225.731 194.085 222.949 197.831 219.809C203.775 214.828 209.801 209.946 215.707 204.924C217.507 203.393 219.465 202.655 221.758 202.658C222.498 202.658 223.077 202.469 223.665 201.978C224.545 201.243 225.518 200.61 226.5 200.012C227.812 199.212 229.069 198.833 230.729 199.484C232.738 200.274 234.613 201.171 236.279 202.527C236.449 202.666 236.629 202.795 236.873 202.979L236.868 202.973ZM66.247 184.617C63.1191 186.227 59.8901 187.184 57.0639 189.159C58.4477 191.104 59.4075 193.135 59.9619 195.34C60.4816 197.407 60.8831 199.496 60.471 201.643C60.3713 202.16 60.3234 202.825 59.6309 202.806C58.8838 202.788 58.9994 202.089 58.9396 201.582C58.7907 200.309 58.7402 199.015 58.4903 197.763C58.0463 195.54 57.3337 193.393 56.1267 191.451C55.4952 190.436 54.9901 190.361 54.0968 191.136C53.4613 191.686 52.8751 192.294 52.2822 192.892C49.9226 195.27 47.3968 197.4 44.124 198.437C43.7903 198.543 43.4899 198.751 43.1682 198.898C42.4131 199.245 41.8282 199.765 41.5251 200.551C40.7129 202.652 39.7837 204.721 39.1376 206.873C38.2124 209.96 36.891 212.826 35.1336 215.516C31.9205 220.436 29.3336 225.663 27.6041 231.29C26.2655 235.649 25.0584 240.05 23.6573 244.387C22.3758 248.353 21.2419 252.35 20.3698 256.423C19.7862 259.15 19.2332 261.884 18.6124 264.604C17.7191 268.522 17.416 272.475 17.739 276.48C17.7882 277.096 17.8068 277.727 17.7297 278.336C17.4772 280.312 17.2538 282.296 16.871 284.249C16.0654 288.357 15.64 292.468 16.0361 296.661C16.1903 298.286 16.068 299.934 16.0787 301.573C16.0813 302.06 16.0707 302.55 16.1332 303.032C16.3858 304.952 16.6636 306.869 16.9348 308.802C18.9355 309.864 21.0571 310.521 23.3795 310.467C24.9428 310.429 26.4569 310.76 27.9365 311.266C32.3353 312.766 36.7315 314.274 41.1396 315.748C46.4025 317.508 51.7917 318.735 57.2912 319.476C61.8203 320.086 66.3733 320.33 70.9383 320.425C72.1241 320.449 73.3085 320.538 74.4465 320.594C75.4235 319.131 75.9752 315.792 75.5804 313.842H74.5103C74.5103 314.641 74.5448 315.348 74.4996 316.05C74.4598 316.665 74.3866 317.289 74.2271 317.882C73.8802 319.174 72.9629 319.454 71.9486 318.59C71.6176 318.308 71.2879 317.964 71.1031 317.58C70.59 316.507 70.0211 315.434 69.7127 314.296C68.6399 310.352 69.4069 306.544 70.937 302.885C72.4352 299.304 74.6565 296.145 77.1637 293.197C78.1434 292.044 79.3425 291.251 80.9496 291.311C80.9922 291.312 81.04 291.199 81.1039 291.115C80.729 290.486 80.0975 290.455 79.4834 290.486C78.1128 290.557 76.7396 290.626 75.3783 290.782C72.1254 291.154 68.9004 291.82 65.6023 291.713C62.6804 291.62 59.7558 291.571 56.8379 291.405C53.5464 291.216 50.5673 289.943 47.6401 288.54C47.2307 288.344 46.8119 288.164 46.1512 287.864C46.2789 288.764 46.3493 289.367 46.4543 289.967C46.6418 291.03 46.3905 291.991 45.7883 292.862C45.5437 293.216 45.1423 293.455 44.7687 293.173C44.5414 293.002 44.3739 292.571 44.4018 292.278C44.455 291.713 44.6464 291.158 44.8152 290.609C45.1316 289.578 45.125 288.608 44.4284 287.712C44.2396 287.469 44.1094 287.182 43.9525 286.913C43.5178 286.169 42.9648 286.061 42.4211 286.724C41.1861 288.229 39.9379 289.733 38.8199 291.324C36.3154 294.893 34.3798 298.771 32.8272 302.843C32.7474 303.054 32.5905 303.235 32.4696 303.43C32.3832 303.414 32.2968 303.397 32.2103 303.381C32.1877 302.742 32.0508 302.08 32.1678 301.467C32.4323 300.082 32.649 298.647 33.1954 297.366C34.7122 293.805 36.7315 290.529 39.3264 287.631C39.7265 287.184 40.124 286.734 40.568 286.235C38.6657 285.551 38.0209 285.733 36.8724 286.989C35.648 288.329 34.3812 289.63 33.105 290.921C32.7328 291.297 32.2622 291.577 31.8368 291.901C31.7464 291.534 31.7996 291.328 31.9112 291.159C33.1342 289.315 34.3373 287.456 35.6068 285.644C36.564 284.277 37.9518 283.83 39.5736 284.076C40.0455 284.148 40.5095 284.264 41.0253 284.37C41.1888 283.95 41.3456 283.635 41.4347 283.303C42.4357 279.541 43.4194 275.773 44.4218 272.011C45.4241 268.246 46.3972 264.474 47.4673 260.729C48.5108 257.08 50.3161 253.783 52.3101 250.569C55.0605 246.138 57.242 241.459 58.1539 236.268C58.2457 235.744 58.2869 235.201 58.4624 234.708C58.5594 234.434 58.8891 234.244 59.1151 234.016C59.345 234.25 59.7425 234.462 59.7744 234.72C59.8608 235.415 59.8648 236.139 59.7704 236.834C59.4009 239.562 58.8133 242.239 57.6913 244.774C57.585 245.013 57.5597 245.29 57.456 245.718C58.8878 244.696 60.1307 243.773 61.4109 242.909C61.9187 242.566 62.4916 242.28 63.0752 242.109C63.3225 242.036 63.7678 242.25 63.9499 242.474C64.0762 242.63 63.9566 243.045 63.8542 243.308C63.7824 243.495 63.5737 243.648 63.3969 243.777C61.7525 244.98 60.0695 246.131 58.469 247.388C57.6621 248.022 56.4311 247.829 55.8555 248.803C55.3384 249.679 54.9356 250.627 54.3813 251.478C51.5444 255.83 49.6302 260.561 48.3779 265.59C47.1057 270.702 45.779 275.801 44.4417 280.896C44.108 282.167 43.6414 283.402 43.3011 284.451C44.0176 284.854 44.6398 285.206 45.2659 285.552C45.4188 285.636 45.5796 285.709 45.7431 285.77C47.4022 286.38 49.0572 287.002 50.7242 287.59C51.9326 288.015 53.1303 288.536 54.3786 288.77C59.4953 289.73 64.6678 289.947 69.8589 289.674C73.0879 289.505 76.3129 289.279 79.5392 289.076C80.5655 289.011 81.5239 289.222 82.1647 290.062C82.6924 290.756 83.2149 291.515 83.4807 292.329C83.724 293.072 83.619 293.928 83.6721 294.808C84.7569 295.01 85.9852 295.071 87.0806 295.485C88.3874 295.979 89.2554 295.616 90.1341 294.689C92.297 292.406 94.5037 290.163 96.6905 287.904C99.1219 285.39 101.477 282.796 104.409 280.821C104.728 280.607 104.959 280.14 105.061 279.747C105.822 276.835 106.498 273.901 107.292 270.999C107.62 269.799 107.476 268.787 106.841 267.731C103.319 261.87 99.4143 256.277 94.8719 251.168C91.1192 246.948 86.8453 243.294 82.0557 240.268C80.8127 239.482 80.7595 239.283 81.1743 237.868C81.2235 237.698 81.2926 237.534 81.3458 237.366C81.9453 235.462 82.8307 233.695 84.1334 231.871C82.9171 232.016 81.9148 232.067 80.943 232.266C79.2986 232.604 77.6755 233.044 76.0404 233.424C75.393 233.574 74.699 233.767 74.1766 233.17C73.7007 232.628 73.9067 232.01 74.1248 231.413C74.3282 230.853 74.5143 230.287 74.7296 229.662C74.0158 229.46 73.4641 229.311 72.9177 229.149C72.1347 228.918 71.7346 228.471 71.5498 227.587C69.9586 220.006 68.3713 212.423 66.6286 204.876C65.1716 198.566 64.8818 192.27 66.1726 185.913C66.2404 185.578 66.2178 185.226 66.2523 184.621L66.247 184.617ZM89.6649 340.255C91.0128 340.695 92.3276 341.072 93.6037 341.549C101.589 344.531 109.826 346.597 118.156 348.32C125.133 349.764 132.142 351.068 139.103 352.582C143.601 353.56 148.053 354.763 152.126 357.032C152.18 357.063 152.281 357.007 152.247 357.014C153.241 354.965 154.186 352.971 155.17 350.998C158.952 343.42 162.32 335.667 164.673 327.518C166.515 321.141 168.206 314.721 169.922 308.308C171.986 300.596 174.457 293.032 177.9 285.814C178.718 284.099 179.662 282.443 180.551 280.762C180.709 280.463 180.889 280.173 181.129 279.757C179.444 278.978 177.885 278.114 176.229 277.52C170.689 275.534 165.113 273.645 159.551 271.72C150.854 268.709 142.11 265.823 133.474 262.645C128.224 260.713 122.974 258.898 117.443 257.99C115.924 257.741 114.397 257.529 112.732 257.279C110.798 265.217 108.897 273.016 106.964 280.944C111.603 283.305 115.494 286.869 119.41 290.395C120.594 291.46 121.742 292.581 122.766 293.795C123.585 294.766 124.325 295.853 124.863 296.999C125.786 298.964 125.322 300.572 123.679 301.948C123.586 302.027 123.527 302.148 123.428 302.284C124.167 303.448 124.947 304.578 125.624 305.767C126.489 307.287 127.094 308.851 126.622 310.699C126.158 312.514 124.996 312.893 123.272 312.27C122.179 311.877 121.258 311.168 120.514 310.253C119.678 309.221 118.827 308.2 117.985 307.171C115.844 304.552 113.149 302.641 110.183 301.084C109.66 300.809 109.088 300.628 108.292 300.302C110.322 304.57 113.493 307.579 116.015 310.755C116.656 310.887 117.084 310.976 117.513 311.063C117.4 311.53 117.289 311.997 117.158 312.54C117.377 313.003 117.673 313.551 117.896 314.126C118.471 315.608 118.693 317.123 118.117 318.663C117.625 319.979 116.709 320.6 115.303 320.672C114.385 320.72 113.46 320.776 112.558 320.934C110.001 321.383 107.935 320.712 106.425 318.505C105.626 317.337 104.776 316.196 103.86 315.118C103.094 314.215 102.213 313.407 101.36 312.58C100.479 311.727 99.4728 311.502 98.2604 312.119C96.2066 321.684 93.3166 331.054 89.6689 340.257L89.6649 340.255ZM120.531 351.279C120.32 351.199 120.123 351.085 119.913 351.05C117.076 350.57 114.251 349.993 111.398 349.652C106.377 349.051 101.325 349.006 96.2717 349.038C94.5928 349.048 92.9085 349.004 91.2335 348.886C89.9002 348.792 89.5718 348.414 89.4017 347.073C89.2953 346.239 89.2089 345.397 89.2049 344.558C89.1983 343.389 89.0308 342.266 88.4552 341.245C88.1215 340.653 88.0869 340.065 88.2863 339.458C88.5894 338.534 88.9297 337.623 89.2701 336.711C89.7194 335.509 90.2205 334.324 90.634 333.111C92.8473 326.61 94.5702 319.971 96.1481 313.293C96.2239 312.97 96.2358 312.632 96.2837 312.245C95.9075 312.228 95.6456 312.199 95.3851 312.205C93.3485 312.26 91.3093 312.28 89.2754 312.395C87.8038 312.478 86.8121 311.893 86.1913 310.581C85.932 310.032 85.6236 309.507 85.274 308.853C84.7263 309.941 84.2624 310.892 83.7745 311.83C82.7323 313.834 81.7247 314.371 79.49 314.16C78.7576 314.09 78.0211 314.057 77.1171 313.996C77.1171 314.895 77.1504 315.64 77.1091 316.381C77.056 317.307 77.0134 318.245 76.8366 319.153C76.4525 321.131 75.1617 322.199 73.1623 322.262C72.0563 322.296 70.9476 322.304 69.8403 322.283C66.255 322.215 62.6698 322.117 59.0845 322.052C53.904 321.957 48.7222 321.878 43.5417 321.798C42.457 321.782 41.3709 321.795 40.2635 321.795C40.2356 322.048 40.213 322.219 40.1997 322.392C39.785 327.89 40.2649 333.37 40.5587 338.852C40.9389 345.928 41.4746 352.996 41.791 360.074C42.1127 367.287 42.2496 374.508 42.4716 381.725C42.4862 382.196 42.5341 382.665 42.5726 383.221C44.5095 383.102 46.0569 383.856 47.6162 384.631C48.7235 385.181 49.8867 385.625 51.0433 386.069C51.5697 386.271 52.1546 386.317 52.685 386.508C53.3444 386.746 53.9492 387.162 54.6205 387.331C60.128 388.712 65.686 389.811 71.3929 389.819C81.5332 389.833 91.5419 388.603 101.431 386.427C105.621 385.506 109.81 384.537 113.786 382.85C114.879 382.386 115.987 381.959 116.932 381.578C117.529 380.351 118.092 379.209 118.639 378.061C118.828 377.665 119.069 377.265 119.137 376.842C119.535 374.354 120.091 371.868 120.216 369.362C120.455 364.542 120.446 359.71 120.528 354.883C120.548 353.694 120.531 352.505 120.531 351.279ZM129.41 161.889C129.35 161.095 129.169 160.263 129.246 159.455C129.537 156.415 128.982 153.47 128.378 150.524C128.067 149.005 127.816 147.486 127.889 145.917C127.985 143.848 127.999 141.816 127.539 139.731C127.029 137.417 127.049 134.984 126.844 132.602C126.631 130.124 126.303 127.672 125.319 125.357C124.539 123.523 123.799 121.66 122.409 120.174C122.093 119.835 121.672 119.541 121.242 119.368C119.97 118.857 118.657 118.45 117.384 117.939C116.039 117.4 114.642 117.242 113.218 117.243C112.252 117.243 111.287 117.297 110.322 117.349C109.439 117.397 108.543 117.389 107.68 117.551C104.457 118.157 101.378 119.225 98.3921 120.577C97.3126 121.065 96.2292 121.569 95.1019 121.917C93.3445 122.459 92.0723 123.363 91.5034 125.239C90.7097 127.859 89.3498 130.196 87.3731 132.118C86.3269 133.135 85.2395 134.12 84.1002 135.032C82.9955 135.916 81.8097 136.699 80.6412 137.501C80.2424 137.775 80.051 138.08 80.0337 138.584C79.9912 139.778 79.8689 140.968 79.7918 142.16C79.5857 145.348 79.1564 148.504 78.4505 151.619C77.8576 154.235 76.9363 156.722 75.272 158.858C74.8267 159.43 74.2231 159.928 73.5943 160.294C72.7928 160.759 72.047 160.468 71.591 159.662C71.4408 159.395 71.3664 159.087 71.2454 158.801C69.9346 155.693 68.3993 152.697 66.5222 149.896C65.8163 148.841 64.9602 147.848 64.0164 147C63.0686 146.148 62.1739 146.369 61.6913 147.537C61.242 148.627 60.8871 149.797 60.7369 150.963C60.4311 153.329 60.8804 155.632 61.7206 157.857C62.1247 158.929 62.4823 160.021 62.9582 161.061C63.8688 163.052 65.0387 164.77 67.4993 165.049C68.0058 165.106 68.475 165.454 68.9722 165.638C69.5079 165.836 70.0463 166.035 70.5993 166.17C71.4009 166.365 71.4847 166.502 71.5006 167.329C71.5192 168.335 71.6229 169.34 71.696 170.345C71.7186 170.652 71.8064 170.959 71.7904 171.262C71.6548 173.812 72.6505 175.997 73.8748 178.147C74.7708 179.718 75.5046 181.383 76.3302 182.994C76.7728 183.857 77.1637 184.767 77.7379 185.537C81.6662 190.798 86.4718 195.168 91.6961 199.102C93.5918 200.529 95.6988 201.549 97.9627 202.228C98.6287 202.428 99.3572 202.566 100.044 202.525C101.811 202.42 103.566 202.194 105.245 201.562C107.122 200.855 108.883 199.98 110.417 198.643C112.918 196.465 115.667 194.586 117.846 192.028C119.244 190.386 120.173 188.487 121.298 186.689C123.389 183.349 124.687 179.688 125.839 175.959C126.148 174.962 126.25 173.966 125.815 172.973C125.54 172.343 125.773 172.028 126.409 171.781C127.004 171.551 127.605 171.212 128.058 170.77C128.784 170.065 129.361 169.21 130.051 168.463C131.293 167.116 132.138 165.629 132.112 163.722C132.1 162.796 132.236 161.866 132.281 160.937C132.294 160.653 132.231 160.366 132.176 159.827C131.636 160.352 131.259 160.702 130.903 161.073C130.521 161.47 130.273 162.07 129.406 161.884L129.41 161.889ZM184.265 231.381C185.341 232.793 186.367 234.069 187.312 235.402C188.235 236.705 189.094 238.057 189.262 239.707C187.679 237.713 186.095 235.719 184.511 233.725C184.432 233.772 184.352 233.82 184.272 233.868C184.404 234.222 184.531 234.577 184.668 234.928C185.375 236.742 186.157 238.531 186.77 240.377C187.186 241.629 187.419 242.949 187.637 244.256C187.809 245.294 187.696 246.328 187.105 247.313C186.871 246.105 186.737 244.967 186.424 243.879C185.415 240.379 183.993 237.04 182.271 233.832C181.895 233.132 181.415 232.488 180.999 231.809C180.539 231.058 179.918 230.823 179.009 231.176C179.897 233.702 180.168 236.334 180.333 238.977C180.397 239.988 180.349 241.016 180.247 242.026C180.175 242.732 180.022 243.465 179.307 244.172C179.278 243.781 179.256 243.623 179.255 243.463C179.223 240.168 178.707 236.94 177.932 233.746C177.772 233.084 177.544 232.519 176.934 232.113C175.72 231.306 174.577 230.392 173.353 229.604C168.959 226.776 164.501 224.047 160.15 221.154C157.167 219.171 154.701 216.634 153.027 213.405C152.376 212.149 151.397 211.223 150.153 210.545C148.248 209.506 146.366 208.424 144.47 207.369C144.308 207.278 144.11 207.252 143.862 207.176C144.2 209.036 144.556 210.759 144.814 212.497C145.067 214.204 145.244 215.923 145.395 217.642C145.447 218.231 145.5 218.906 144.801 219.245C144.147 219.091 144.183 218.553 144.091 218.086C143.569 215.391 143.041 212.698 142.524 210.002C142.346 209.073 142.093 208.172 141.361 207.523C139.839 206.172 138.398 204.695 136.731 203.552C133.829 201.564 130.412 200.419 127.63 198.147C127.95 198.906 128.37 199.559 128.776 200.221C130.996 203.845 133.294 207.425 135.401 211.114C136.959 213.84 138.311 216.688 139.668 219.522C140.641 221.556 141.529 223.636 142.346 225.739C142.888 227.138 143.276 228.601 143.652 230.057C143.878 230.932 143.5 231.253 142.62 231.293C140.859 231.372 139.099 231.494 137.343 231.652C136.956 231.687 136.467 231.692 136.152 232.186C137.569 233.391 138.925 234.595 140.342 235.72C140.939 236.193 141.198 236.705 141.059 237.429C140.983 237.82 140.897 238.21 140.793 238.594C139.808 242.27 138.839 245.951 137.826 249.618C136.749 253.517 136.285 257.508 135.904 261.649C140.235 263.377 144.657 264.834 149.229 266.445C149.269 265.489 149.349 264.745 149.322 264.004C149.195 260.419 149.087 256.831 148.881 253.25C148.535 247.237 148.236 241.215 146.88 235.312C146.731 234.666 146.606 234.004 146.586 233.346C146.577 233.059 146.788 232.63 147.028 232.5C147.448 232.272 147.788 232.607 147.974 232.983C148.15 233.338 148.256 233.726 148.384 234.102C149.83 238.387 150.266 242.841 150.464 247.314C150.532 248.839 151.013 249.852 152.167 250.91C154.134 252.716 156.138 254.43 158.396 255.849C161.148 257.577 163.998 259.066 167.223 259.721C170.041 260.294 172.881 260.801 175.657 261.54C177.785 262.106 179.84 262.96 181.903 263.747C182.79 264.084 183.603 264.308 184.343 263.518C185.518 262.263 187.032 261.334 187.891 259.77C188.051 259.477 188.372 259.257 188.65 259.043C193.784 255.111 198.96 251.236 204.047 247.244C208.438 243.798 212.69 240.175 217.068 236.713C223.74 231.438 230.447 226.204 237.723 221.76C237.789 221.719 237.821 221.619 237.891 221.514C237.777 221.205 237.675 220.864 237.529 220.545C234.894 214.788 231.064 209.988 225.927 206.276C224.86 205.505 223.618 204.976 222.448 204.35C222.22 204.228 221.945 204.081 221.708 204.108C220.311 204.262 218.946 204.347 217.749 205.363C211.839 210.381 205.843 215.297 199.929 220.311C195.424 224.132 190.733 227.676 185.571 230.57C185.149 230.807 184.748 231.076 184.261 231.378L184.265 231.381ZM114.774 319.335C116.673 318.899 116.873 317.668 116.703 316.467C116.582 315.608 116.318 314.718 115.897 313.964C115.21 312.733 114.4 311.558 113.54 310.437C111.519 307.801 109.394 305.241 107.852 302.275C107.486 301.572 107.16 300.835 106.925 300.08C106.654 299.21 106.99 298.743 107.89 298.855C108.798 298.968 109.715 299.22 110.561 299.573C114.23 301.101 117.323 303.408 119.741 306.589C120.707 307.858 121.674 309.125 122.679 310.363C123.053 310.824 123.535 311.196 123.945 311.587C125.377 310.528 125.617 309.753 124.96 308.298C124.579 307.454 124.151 306.615 123.626 305.855C122.671 304.473 121.712 303.075 120.604 301.818C118.528 299.46 116.361 297.18 114.198 294.899C112.889 293.517 111.511 292.2 110.17 290.848C109.886 290.561 109.561 290.222 109.874 289.812C110.257 289.311 110.681 289.654 111.026 289.911C111.487 290.254 111.927 290.629 112.344 291.026C115.642 294.173 119.214 297.039 122.098 300.608C122.203 300.738 122.36 300.829 122.484 300.93C123.535 300.179 123.731 299.757 123.606 298.581C123.412 296.756 122.385 295.359 121.177 294.11C118.214 291.054 115.081 288.173 111.616 285.69C109.79 284.381 107.845 283.237 105.883 281.973C105.119 282.57 104.411 283.027 103.816 283.603C101.618 285.726 99.4476 287.877 97.2887 290.038C95.6297 291.699 94.0185 293.407 92.3541 295.063C91.6974 295.717 90.9703 296.306 90.2511 296.894C89.5918 297.432 88.8526 297.596 88.0111 297.307C87.3425 297.079 86.6592 296.851 85.964 296.754C84.7144 296.579 83.5392 296.274 82.6299 295.409C79.9221 296.115 78.828 299.691 79.2335 303.054C79.3531 303.083 79.4767 303.133 79.603 303.141C82.9251 303.345 85.1863 305.132 86.7616 307.937C87.0647 308.477 87.3531 309.028 87.611 309.591C87.9447 310.316 88.4405 310.665 89.2794 310.586C90.1594 310.504 91.0514 310.557 91.9341 310.502C93.6117 310.397 95.304 310.371 96.9577 310.105C99.0009 309.775 100.924 309.735 102.546 311.24C103.417 312.048 104.298 312.866 105.04 313.789C106.065 315.062 106.968 316.437 107.917 317.773C109.2 319.578 111.054 319.84 113.289 319.803C112.809 318.993 112.469 318.335 112.052 317.727C109.523 314.04 106.976 310.366 104.438 306.683C104.138 306.247 103.821 305.813 103.595 305.337C103.506 305.15 103.562 304.733 103.701 304.637C103.91 304.494 104.296 304.433 104.523 304.531C104.829 304.664 105.092 304.952 105.309 305.224C105.806 305.846 106.298 306.477 106.734 307.142C109.015 310.623 111.273 314.12 113.549 317.604C113.933 318.191 114.36 318.751 114.774 319.335ZM108.161 266.303C108.734 264.117 109.266 262.158 109.745 260.187C109.807 259.931 109.65 259.582 109.508 259.324C108.8 258.049 108.051 256.795 107.337 255.523C106.517 254.06 105.608 252.632 104.94 251.099C104.284 249.592 103.644 248.092 102.649 246.776C101.261 244.943 99.8038 243.159 98.4771 241.283C96.5363 238.537 94.6539 235.748 92.8088 232.935C91.3518 230.715 90.0437 228.396 88.5735 226.186C85.492 221.549 83.0979 216.583 81.1969 211.361C79.5459 206.828 77.7938 202.351 75.4089 198.119C73.1384 194.089 71.7466 189.688 70.8918 185.13C70.6924 184.069 70.8612 183.107 71.4381 182.21C71.6774 181.837 71.9593 181.492 72.1866 181.113C72.5575 180.495 72.3713 180.087 71.6429 180.045C71.1231 180.016 70.5807 180.08 70.0716 180.201C68.7582 180.511 68.7914 180.537 68.6359 181.865C68.4205 183.71 68.1546 185.55 67.9127 187.393C67.4169 191.176 67.0433 194.989 67.5232 198.779C67.8994 201.752 68.6651 204.678 69.2979 207.616C70.4332 212.894 71.6136 218.16 72.7369 223.439C73.0094 224.722 73.1317 226.037 73.3218 227.328C74.6738 227.603 75.8768 227.909 77.0985 228.08C78.279 228.246 79.4847 228.233 80.6705 228.37C82.2936 228.557 83.9168 228.77 85.5239 229.058C86.2551 229.189 86.9822 229.459 87.6549 229.783C88.6386 230.258 88.6878 231.253 87.8104 231.89C87.5977 232.046 87.3186 232.119 87.1245 232.29C86.3375 232.989 85.3897 233.596 84.8407 234.453C84.067 235.663 83.5937 237.065 82.9836 238.402C83.2215 238.586 83.3465 238.706 83.4914 238.792C87.7546 241.31 91.5818 244.39 94.8919 248.054C99.5645 253.225 103.595 258.888 107.219 264.839C107.487 265.281 107.777 265.709 108.161 266.306V266.303ZM137.382 382.664C141.105 373.928 141.393 364.749 142.32 355.617C135.687 353.866 129.096 352.773 122.509 351.719C122.445 351.965 122.405 352.049 122.405 352.131C122.464 356.821 122.533 361.511 122.586 366.201C122.629 369.944 121.973 373.604 121.19 377.241C121.055 377.873 120.689 378.456 120.405 379.05C120.261 379.351 120.062 379.625 119.789 380.07C125.665 381.713 131.501 382.452 137.382 382.664ZM122.689 208.206C122.709 208.091 122.755 207.999 122.732 207.928C121.597 204.391 120.458 200.855 119.312 197.32C119.203 196.984 119.014 196.673 118.92 196.334C118.798 195.894 118.75 195.405 119.266 195.185C119.812 194.953 120.205 195.254 120.457 195.732C120.62 196.044 120.757 196.374 120.873 196.707C121.949 199.798 123.058 202.88 124.084 205.989C126.015 211.841 127.486 217.817 128.463 223.898C129.024 227.391 129.383 230.922 129.694 234.449C129.981 237.71 130.266 240.989 130.222 244.257C130.169 248.237 129.785 252.213 129.511 256.189C129.448 257.1 129.252 258.001 129.116 258.912C130.835 259.579 132.475 260.217 134.257 260.908C134.358 260.011 134.439 259.232 134.532 258.456C134.685 257.182 134.746 255.887 135.021 254.64C136.183 249.37 137.249 244.076 138.915 238.928C139.642 236.68 139.734 237.15 137.95 235.603C136.177 234.065 134.33 232.615 132.515 231.126C131.719 230.473 131.676 230.121 132.399 229.415C134.158 227.697 136.26 226.795 138.74 226.841C139.13 226.849 139.518 226.876 140.006 226.898C139.933 226.565 139.898 226.313 139.821 226.075C137.908 220.158 135.468 214.468 132.318 209.106C130.413 205.863 128.298 202.743 126.34 199.53C124.777 196.964 122.732 194.832 120.578 192.783C120.427 192.64 120.231 192.545 119.987 192.383C116.845 195.53 113.588 198.478 109.71 201.138C110.447 201.435 110.928 201.732 111.445 201.819C113.442 202.155 115.273 202.868 116.976 203.962C118.877 205.183 120.82 206.343 122.356 208.044C122.431 208.127 122.572 208.152 122.69 208.206H122.689ZM108.909 213.117C109.407 213.736 109.814 214.252 110.233 214.76C113.076 218.202 115.325 221.989 116.898 226.172C117.427 227.58 117.975 228.983 118.465 230.404C119.42 233.161 120.486 235.891 121.245 238.703C122.895 244.813 124.144 251.006 124.387 257.473C125.319 257.738 126.267 258.006 127.297 258.299C127.371 257.681 127.445 257.247 127.469 256.81C127.609 254.291 127.743 251.772 127.865 249.253C128.042 245.584 128.306 241.916 127.905 238.242C127.626 235.689 127.41 233.132 127.138 230.579C126.574 225.296 125.862 220.042 124.527 214.882C124.14 213.384 123.484 212.073 122.561 210.868C120.305 207.915 117.294 205.909 114.081 204.173C113.407 203.809 112.672 203.51 111.776 203.568C111.938 203.994 112.083 204.314 112.184 204.649C112.753 206.545 112.757 208.345 111.38 209.965C110.528 210.967 109.751 212.036 108.909 213.117ZM241.813 209.005C243.165 207.922 244.494 206.84 245.845 205.783C246.611 205.183 247.379 204.578 248.202 204.065C249.437 203.294 249.755 203.359 250.882 204.346C251.816 205.165 252.742 206.014 254.006 206.281C255.085 206.51 256.177 206.697 257.269 206.85C259.718 207.192 262.212 207.163 264.611 207.912C266.145 208.391 266.2 208.345 267.174 206.967C270.898 201.703 275.037 196.82 280.046 192.718C280.351 192.468 280.634 192.17 280.855 191.845C281.365 191.091 281.23 190.533 280.44 190.089C279.636 189.635 278.782 189.542 277.874 189.763C276.065 190.202 274.488 191.07 273.142 192.331C271.947 193.451 270.797 194.619 269.655 195.794C269.296 196.164 269.005 196.606 268.728 197.045C268.349 197.643 268.05 197.744 267.439 197.335C266.814 196.917 266.216 196.459 265.608 196.013C264.732 195.37 263.763 194.997 262.669 194.939C262.365 194.923 262.056 194.852 261.763 194.763C258.862 193.876 256.364 194.557 254.179 196.625C253.28 197.476 252.307 198.249 251.347 199.034C251.061 199.266 250.752 199.629 250.183 199.151C250.975 198.166 251.872 197.274 252.787 196.415C253.719 195.54 254.669 194.636 255.759 193.994C256.805 193.377 258.04 193.081 259.233 192.628C255.838 190.829 252.395 190.779 248.893 191.992C246.787 192.722 246.023 193.795 245.941 196.049C245.918 196.666 245.992 197.287 246.014 197.905C246.03 198.347 246.074 198.792 246.036 199.231C245.935 200.404 245.445 200.862 244.267 200.967C243.742 201.013 243.172 200.975 242.705 201.171C241.029 201.876 239.629 203.022 238.145 204.048C239.404 205.75 240.579 207.338 241.814 209.008L241.813 209.005ZM96.507 203.641C95.6217 204.033 94.727 204.391 93.8683 204.816C91.7772 205.853 90.1408 207.499 88.3953 208.995C88.2199 209.145 88.1866 209.505 88.16 209.775C88.0829 210.551 87.6815 210.785 87.0234 210.369C86.7283 210.183 86.4704 209.926 86.2192 209.679C84.7051 208.188 83.1976 206.689 81.6888 205.193C81.3883 204.895 81.0906 204.593 80.7928 204.293C81.1477 206.172 81.6888 207.94 82.2178 209.712C83.5179 214.061 85.2634 218.199 87.8024 221.992C89.722 224.859 91.5512 227.789 93.4189 230.691C94.7589 232.774 96.0923 234.861 97.4416 236.939C97.5891 237.166 97.8257 237.335 97.9799 237.489C98.4811 233.841 98.9451 230.248 99.4755 226.663C100.078 222.591 100.684 218.518 102.266 214.668C102.376 214.4 102.283 213.986 102.155 213.698C101.961 213.258 101.648 212.87 101.395 212.454C99.6815 209.623 97.839 206.865 96.5057 203.64L96.507 203.641ZM94.3189 202.632C89.9892 200.317 86.3255 197.583 83.1803 194.167C82.5847 193.52 81.9865 192.851 81.2886 192.326C79.1298 190.701 77.5691 188.558 75.9938 186.421C75.1936 185.335 74.3747 184.263 73.5319 183.143C72.7117 184.162 73.0028 185.205 73.2394 186.16C73.7047 188.048 74.2484 189.922 74.8612 191.768C75.837 194.707 77.0201 197.462 79.2281 199.841C81.5133 202.303 83.712 204.854 86.0783 207.248C86.3481 207.522 86.6486 207.766 87.0101 208.092C89.0627 205.809 91.4316 204.065 94.3202 202.632H94.3189ZM224.103 203.261C231.265 207.171 235.375 213.472 238.815 220.286C240.296 219.216 241.82 218.114 243.367 216.996C243.332 216.741 243.326 216.472 243.255 216.222C243.136 215.798 242.993 215.377 242.829 214.967C241.558 211.823 239.791 208.969 237.623 206.377C235.487 203.822 232.914 201.859 229.7 200.793C229.136 200.605 228.687 200.58 228.206 200.858C226.878 201.627 225.556 202.409 224.103 203.261ZM82.0357 293.888C81.1783 292.563 80.3488 292.328 79.2547 293.291C77.9706 294.423 76.6971 295.64 75.72 297.031C73.4069 300.325 71.8662 303.981 71.3252 308.007C71.1789 309.093 71.0938 310.187 71.3929 311.235C72.1055 311.417 72.7396 311.636 73.391 311.736C75.6163 312.078 77.8456 312.393 80.0789 312.685C80.9191 312.794 81.6648 312.602 82.0916 311.751C82.84 310.257 83.599 308.768 84.406 307.172C83.6841 306.57 83.0287 306.023 82.2564 305.379C81.9945 305.951 81.8549 306.37 81.6276 306.732C81.0693 307.624 80.5163 308.527 79.8689 309.353C79.4913 309.835 78.925 310.233 78.2404 309.959C77.5558 309.685 77.5465 308.999 77.4495 308.391C77.4282 308.261 77.4348 308.127 77.4375 307.994C77.496 305.742 77.5239 303.489 77.6236 301.238C77.7659 298.041 78.8253 295.353 82.0357 293.888ZM250.1 189.917C249.664 188.901 249.275 187.93 248.835 186.981C247.19 183.435 243.624 181.692 239.602 182.265C239.047 182.345 238.482 182.552 237.986 182.822C237.063 183.325 236.542 184.128 236.639 185.217C236.73 186.231 237.422 186.868 238.623 187.209C240.89 187.854 242.842 189.025 244.387 190.824C244.781 191.284 245.108 191.801 245.548 192.402C246.661 190.844 248.419 190.627 250.1 189.916V189.917ZM104.362 246.948C109.444 243.451 113.735 239.263 117.899 234.95C117.447 233.09 117.226 232.549 116.664 231.882C112.11 236.149 107.166 239.887 101.614 242.869C102.557 244.269 103.444 245.585 104.362 246.949V246.948ZM120.292 244.092C116.562 248.06 112.566 251.217 108.056 253.823C108.919 255.015 109.468 256.397 110.479 257.609C111.107 255.781 111.106 255.761 112.792 255.587C113.302 255.534 113.713 255.443 114.027 254.983C114.191 254.743 114.498 254.595 114.75 254.417C116.972 252.834 119.196 251.252 121.45 249.649C121.077 247.859 120.721 246.146 120.293 244.092H120.292ZM100.639 232.16C100.765 232.213 100.891 232.266 101.018 232.319C105.133 229.137 109.036 225.714 112.692 221.875C112.111 220.943 111.537 220.022 110.885 218.977C109.906 219.968 109.077 220.876 108.176 221.706C106.23 223.494 104.447 225.492 101.987 226.644C101.786 226.739 101.585 227.014 101.541 227.235C101.218 228.872 100.934 230.518 100.639 232.161V232.16ZM275.46 199.37C273.911 200.741 271.331 204.084 270.919 205.242C271.097 205.263 271.269 205.299 271.44 205.3C273.606 205.315 275.771 205.356 277.937 205.326C279.539 205.303 279.997 204.535 279.331 203.086C278.542 201.371 277.277 200.135 275.46 199.369V199.37ZM276.437 198.203C277.905 199.827 279.262 199.317 280.622 198.483C280.998 198.253 281.405 198.065 281.756 197.801C282.305 197.389 282.818 196.929 283.451 196.403C282.508 195.209 281.404 194.776 280.143 194.662C279.959 194.644 279.709 194.776 279.571 194.918C278.503 196.015 277.454 197.13 276.436 198.203H276.437ZM109.713 208.601C107.557 209.782 105.472 211.102 102.904 211.566C103.321 212.394 103.671 213.09 104.06 213.864C105.146 213.387 106.155 212.956 107.15 212.493C107.331 212.41 107.483 212.214 107.594 212.037C108.29 210.926 108.972 209.806 109.713 208.601ZM262.664 192.886C262.624 192.999 262.583 193.112 262.543 193.225C264.683 193.537 266.52 194.473 268.163 195.889C269.062 194.87 269.856 193.97 270.813 192.884H262.664V192.886ZM81.5611 305.006C80.6492 304.785 79.946 304.615 79.1205 304.414C79.0553 305.782 78.9982 306.976 78.929 308.421C80.1972 307.449 80.4924 306.121 81.5598 305.006H81.5611ZM104.574 203.479C102.533 203.714 100.776 203.918 98.9264 204.132C99.1192 204.668 99.1418 205.241 99.8158 205.147C101.419 204.925 102.958 204.496 104.572 203.479H104.574ZM73.5305 313.487C72.7715 313.338 72.1972 313.225 71.5139 313.089C71.7306 314.461 72.1081 315.539 73.0187 316.708C73.2062 315.531 73.3524 314.605 73.5305 313.486V313.487Z" fill="black"/>
<path d="M202.793 250.177L221.034 236.041L228.33 234.672L349.632 236.041L351 241.969L325.007 267.506L202.793 250.177Z" fill="white"/>
<path d="M66.0184 318.206C65.2327 318.151 64.5003 318.027 64.0789 317.274C63.8343 316.838 63.93 316.419 64.2357 316.048C64.6199 315.582 65.9851 315.252 66.5714 315.473C67.1111 315.676 67.8037 316.85 67.6561 317.424C67.6003 317.641 67.373 317.891 67.1643 317.972C66.8027 318.113 66.3946 318.136 66.021 318.206H66.0184Z" fill="black"/>
<path d="M60.0935 317.777C59.252 317.777 58.5169 317.303 58.3228 316.639C58.138 316.01 58.481 315.337 59.1496 315.014C59.8675 314.669 60.5893 314.832 61.1623 315.503C61.5052 315.906 61.8961 316.328 61.6169 316.92C61.3191 317.552 60.7635 317.778 60.0948 317.777H60.0935Z" fill="black"/>
<path d="M48.2543 313.565C49.2074 313.532 49.9864 314.17 50.0117 315.004C50.0356 315.791 49.4307 316.381 48.5693 316.411C47.5896 316.446 46.6883 315.723 46.7003 314.911C46.7109 314.194 47.4035 313.593 48.2529 313.564L48.2543 313.565Z" fill="black"/>
<path d="M54.3666 316.7C53.3762 316.729 52.6092 316.132 52.6119 315.332C52.6145 314.597 53.2712 313.959 54.0648 313.923C54.9023 313.884 55.7225 314.621 55.7451 315.433C55.7651 316.139 55.1802 316.677 54.3666 316.701V316.7Z" fill="black"/>
<path d="M65.7937 366.777C63.3171 366.322 60.8273 365.926 58.3666 365.393C56.5534 365.001 54.7774 364.436 52.9894 363.933C50.4676 363.223 48.3899 361.899 47.0366 359.582C46.9037 359.354 46.7255 359.151 46.5753 358.933C44.5919 356.066 44.463 355.098 45.7165 351.837C46.017 351.056 46.3958 350.299 46.7907 349.559C47.1124 348.954 47.5936 348.61 48.3207 348.965C48.4364 349.02 48.58 349.088 48.6956 349.068C51.0791 348.639 53.3603 349.399 55.6601 349.742C61.5092 350.616 67.3757 350.944 73.2766 350.649C75.0606 350.56 76.7994 350.674 78.5196 351.179C79.0965 351.348 79.3557 351.661 79.3145 352.212C79.2853 352.604 79.1976 353.003 79.0699 353.375C78.2471 355.759 77.4082 358.138 76.5681 360.515C76.382 361.042 76.0483 361.508 76.3966 362.141C76.499 362.329 76.2105 362.919 75.9486 363.088C72.8659 365.08 69.6555 366.745 65.7937 366.775V366.777ZM77.161 352.114C76.4963 352.114 75.9247 352.085 75.3557 352.119C74.0742 352.198 72.7954 352.329 71.5139 352.404C63.793 352.854 56.1453 352.582 48.7541 350.073C47.906 351.67 47.0592 353.262 46.1512 354.973C47.2719 356.677 48.4271 358.404 49.5477 360.154C50.0236 360.896 50.6458 361.445 51.4726 361.702C53.2845 362.267 55.0991 362.832 56.9376 363.3C57.5544 363.457 58.2749 363.448 58.8984 363.3C62.041 362.56 65.1875 361.821 68.2902 360.93C69.7911 360.499 71.2427 360.414 72.7409 360.693C73.4681 360.829 74.1806 361.039 74.7961 361.191C75.5724 358.209 76.3381 355.268 77.161 352.113V352.114Z" fill="black"/>
<path d="M117.6 177.448C116.776 176.6 117.165 175.208 116.261 174.296C115.699 174.545 115.097 174.796 114.508 175.072C113.513 175.54 112.488 175.958 111.547 176.516C110.032 177.416 108.389 177.552 106.702 177.509C105.331 177.474 103.962 177.388 102.593 177.33C99.639 177.205 96.8686 176.394 94.2445 175.066C92.8752 174.373 91.5326 173.63 90.1075 172.872C89.4628 174.082 90.0623 175.611 89.2793 177.052C88.9776 176.666 88.6771 176.459 88.6572 176.229C88.5083 174.424 88.6984 172.652 89.1996 170.684C89.8084 171.003 90.2298 171.196 90.622 171.436C91.6788 172.083 92.7011 172.786 93.7765 173.397C95.6775 174.479 97.6702 175.249 99.9141 175.313C101.856 175.367 103.792 175.635 105.734 175.709C109.186 175.839 112.358 174.798 115.394 173.248C116.805 172.528 117.016 172.604 117.638 174.097C117.908 174.744 118.137 175.43 118.245 176.118C118.308 176.531 118.104 176.985 118.02 177.421C117.88 177.431 117.741 177.439 117.601 177.448H117.6Z" fill="black"/>
<path d="M88.7981 138.239C89.4163 138.274 90.0424 138.383 90.6526 138.332C92.4884 138.175 94.0092 139.02 95.5193 139.838C96.507 140.374 96.8141 141.489 97.2568 142.435C97.4868 142.927 96.975 143.343 96.3967 143.164C95.179 142.786 93.9334 142.455 92.7782 141.933C91.9447 141.555 91.1272 141.341 90.2325 141.335C88.293 141.323 86.3521 141.262 84.4153 141.32C83.5007 141.348 82.5941 141.622 81.6795 141.748C81.2155 141.812 80.6678 141.97 80.4591 141.308C80.3156 140.855 80.6811 140.164 81.2288 139.903C82.1049 139.486 83.0394 139.176 83.8769 138.693C85.4681 137.777 87.1418 138.205 88.7981 138.237V138.239Z" fill="black"/>
<path d="M118.392 139.544C121.471 139.946 124.426 140.679 126.581 143.197C126.86 143.523 127.093 143.924 127.218 144.331C127.287 144.556 127.158 144.931 126.984 145.11C126.877 145.219 126.495 145.145 126.279 145.052C124.913 144.461 123.579 143.791 122.195 143.246C120.788 142.692 119.28 142.482 117.783 142.563C116.93 142.61 116.107 143.056 115.251 143.23C113.875 143.511 112.487 143.741 111.098 143.94C110.629 144.008 110.367 143.553 110.653 143.136C111.43 142.001 112.328 140.889 113.628 140.409C115.131 139.854 116.657 139.115 118.391 139.545L118.392 139.544Z" fill="black"/>
<path d="M91.1803 150.204C90.0225 150.003 88.4299 149.838 86.9065 149.421C85.9095 149.147 84.9204 148.631 84.0949 148.004C82.6645 146.917 82.7483 145.345 84.2651 144.401C85.0733 143.898 86.0185 143.528 86.9517 143.326C89.6396 142.744 92.3329 142.902 94.9557 143.707C95.8291 143.976 96.6892 144.411 97.4349 144.941C99.1152 146.135 99.0381 147.876 97.2435 148.867C96.3701 149.349 95.3678 149.65 94.3881 149.876C93.4908 150.082 92.5456 150.076 91.183 150.205L91.1803 150.204ZM94.4824 144.477C92.3036 143.824 90.1554 143.66 87.9939 144.015C87.0009 144.178 85.9879 144.447 85.0879 144.883C83.623 145.592 83.5432 146.756 84.9271 147.598C87.9607 149.445 91.2601 149.529 94.5635 148.961C94.4705 148.117 94.3455 147.434 94.3336 146.748C94.3216 146.044 94.4213 145.34 94.4838 144.477H94.4824Z" fill="black"/>
<path d="M117.036 152.222C115.276 152.04 113.56 151.866 111.967 151.128C111.296 150.817 110.639 150.421 110.072 149.948C108.89 148.964 108.897 147.495 110.097 146.538C110.637 146.107 111.288 145.748 111.947 145.545C115.109 144.568 118.234 144.767 121.257 146.098C121.884 146.374 122.483 146.824 122.957 147.323C123.906 148.324 123.828 149.587 122.751 150.455C122.181 150.915 121.49 151.314 120.789 151.506C119.565 151.841 118.291 151.993 117.038 152.223L117.036 152.222ZM120.596 146.669C117.605 145.67 114.646 145.4 111.656 146.556C111.332 146.681 111.017 146.869 110.743 147.085C109.874 147.769 109.786 148.618 110.633 149.312C111.268 149.832 112.027 150.263 112.8 150.54C114.875 151.285 117.028 151.394 119.202 151.043C119.535 150.988 119.857 150.863 120.195 150.768C120.326 149.422 120.45 148.158 120.596 146.669Z" fill="black"/>
<path d="M90.8134 195.648C91.5884 195.027 91.9926 195.457 92.4126 195.623C94.5436 196.467 96.632 197.444 98.8108 198.135C99.8557 198.466 101.104 198.468 102.197 198.267C104.056 197.926 105.872 197.331 107.694 196.797C108.235 196.638 108.717 196.283 109.254 196.104C109.499 196.023 109.907 196.047 110.076 196.202C110.379 196.48 110.124 196.766 109.847 196.949C109.451 197.213 109.071 197.556 108.629 197.686C106.639 198.276 104.652 198.894 102.625 199.328C100.688 199.741 98.7483 199.471 96.9271 198.674C95.2668 197.946 93.641 197.141 92.0072 196.355C91.6376 196.177 91.2973 195.938 90.8121 195.648H90.8134Z" fill="black"/>
<path d="M97.3219 163.012C98.4824 162.108 99.8463 162.156 100.694 163.113C101.071 163.537 101.402 164.025 101.653 164.533C101.988 165.212 101.816 166.182 101.396 166.503C100.881 166.898 99.7613 166.786 99.1963 166.221C98.3123 165.336 97.6476 164.308 97.3219 163.011V163.012Z" fill="black"/>
<path d="M84.6506 172.336C84.6067 170.425 85.5559 169.04 87.0687 168.032C87.5552 167.709 88.2146 167.615 88.8101 167.496C89.1624 167.426 89.6104 167.556 89.5625 168.004C89.5333 168.277 89.2062 168.715 88.9816 168.737C87.3119 168.896 86.7071 170.112 86.2524 171.432C86.0876 171.91 86.1647 172.479 86.17 173.005C86.174 173.446 86.295 173.932 85.714 174.098C85.282 174.221 84.7543 173.732 84.6572 173.13C84.616 172.872 84.6506 172.601 84.6506 172.336Z" fill="black"/>
<path d="M94.3282 161.674C94.8613 161.958 95.2415 162.096 95.5406 162.338C95.8729 162.606 96.2239 162.925 96.3874 163.301C96.4844 163.523 96.3156 163.98 96.1148 164.173C95.9806 164.303 95.5326 164.241 95.3066 164.116C94.8227 163.846 94.404 163.462 93.936 163.159C93.0892 162.608 92.7941 161.337 93.4575 160.483C93.9626 159.831 94.622 159.293 95.2574 158.754C95.397 158.636 95.7214 158.734 95.9606 158.733C95.954 158.974 96.0298 159.265 95.9221 159.443C95.6974 159.814 95.3545 160.112 95.0952 160.465C94.8427 160.81 94.6353 161.184 94.3269 161.674H94.3282Z" fill="black"/>
<path d="M84.8074 149.566C85.0135 149.594 97.2422 150.227 97.2953 150.221C97.5173 150.601 97.3392 150.788 96.9696 150.863C95.4701 151.169 93.9773 151.672 92.4685 151.723C90.1461 151.802 87.8277 151.496 85.6515 150.539C85.2514 150.362 84.826 150.243 84.8074 149.567V149.566Z" fill="black"/>
<path d="M110.469 166.199C110.665 165.715 110.823 165.405 110.915 165.077C111.191 164.089 111.071 163.197 110.377 162.366C109.709 161.565 109.145 160.677 108.538 159.833C109.464 159.135 109.596 159.119 110.032 159.7C110.589 160.44 111.102 161.212 111.658 161.953C112.142 162.598 112.354 163.257 112.023 164.052C111.872 164.413 111.814 164.819 111.749 165.21C111.648 165.827 111.281 166.115 110.468 166.199H110.469Z" fill="black"/>
<path d="M110.302 151.466C110.686 151.517 110.905 151.499 111.081 151.579C112.948 152.428 114.958 152.554 116.947 152.877C118.649 153.154 120.118 152.831 121.603 152.129C121.872 152.001 122.225 152.048 122.538 152.015C122.566 152.097 122.594 152.181 122.622 152.263C122.441 152.408 122.282 152.604 122.076 152.691C120.37 153.421 118.699 154.049 116.742 153.433C115.466 153.032 114.057 153.064 112.713 152.864C111.812 152.73 110.94 152.5 110.303 151.466H110.302Z" fill="black"/>
<path d="M119.091 173.643C119.344 170.74 117.688 169.622 115.184 169.348C115.223 168.721 115.579 168.513 116.054 168.459C118.291 168.202 120.402 170.534 119.885 172.706C119.811 173.018 119.586 173.295 119.43 173.587C119.317 173.606 119.204 173.625 119.091 173.643Z" fill="black"/>
<path d="M100.365 167.689C100.183 168.06 100.024 168.396 99.853 168.725C99.2255 169.928 98.7749 171.131 99.6137 172.443C99.7054 172.585 99.6018 172.986 99.4555 173.107C99.3093 173.228 98.9251 173.246 98.7736 173.134C98.505 172.936 98.2631 172.636 98.1355 172.327C97.6343 171.124 98.1581 168.78 99.0873 167.88C99.3416 167.634 99.7675 167.57 100.365 167.688V167.689Z" fill="black"/>
<path d="M103.519 168.824C103.615 169.068 103.747 169.232 103.727 169.375C103.546 170.671 104.062 171.794 104.572 172.921C104.608 173.001 104.661 173.076 104.692 173.157C104.838 173.559 105.161 174.047 104.605 174.312C104.064 174.57 103.836 174.05 103.643 173.663C103.085 172.541 102.17 171.539 102.435 170.13C102.544 169.549 102.677 169.002 103.519 168.824Z" fill="black"/>
<path d="M108.708 166.513C107.922 166.511 107.557 166.247 107.37 165.731C107.194 165.24 107.364 164.846 107.773 164.584C108.29 164.253 108.815 163.896 109.39 163.71C109.681 163.616 110.157 163.785 110.408 164C110.526 164.101 110.38 164.63 110.231 164.897C109.999 165.316 109.69 165.704 109.359 166.054C109.137 166.289 108.821 166.437 108.708 166.514V166.513Z" fill="black"/>
<g filter="url(#filter0_d_541_1466)">
<circle cx="438.5" cy="144.5" r="131" stroke="black" stroke-width="3"/>
<path d="M438.996 14.9775V275.511" stroke="black" stroke-width="3"/>
<path d="M549.165 217.449L438.996 144.004" stroke="black" stroke-width="3"/>
<path d="M502.517 258.142L438.996 145.989" stroke="black" stroke-width="3"/>
</g>
<rect x="269" y="301" width="100" height="41" fill="url(#paint0_linear_541_1466)"/>
<path d="M366.29 142.15C365.42 142.15 364.685 141.97 364.085 141.61C363.495 141.25 363.01 140.7 362.63 139.96L364.49 139.03C364.62 139.47 364.825 139.825 365.105 140.095C365.385 140.365 365.795 140.5 366.335 140.5C366.705 140.5 367.02 140.435 367.28 140.305C367.54 140.175 367.74 139.985 367.88 139.735C368.03 139.485 368.105 139.18 368.105 138.82C368.105 138.46 368.035 138.16 367.895 137.92C367.765 137.67 367.575 137.485 367.325 137.365C367.075 137.235 366.76 137.17 366.38 137.17C366.12 137.17 365.875 137.195 365.645 137.245C365.425 137.295 365.225 137.375 365.045 137.485C364.865 137.585 364.705 137.72 364.565 137.89L362.945 137.59L363.56 132.1H369.545V133.765H365.12L364.82 136.18L364.775 136.375H364.805C365.015 136.135 365.3 135.95 365.66 135.82C366.03 135.69 366.45 135.625 366.92 135.625C367.57 135.625 368.125 135.755 368.585 136.015C369.045 136.275 369.4 136.64 369.65 137.11C369.9 137.57 370.025 138.1 370.025 138.7C370.025 139.27 369.93 139.775 369.74 140.215C369.55 140.645 369.28 141.005 368.93 141.295C368.59 141.575 368.195 141.79 367.745 141.94C367.295 142.08 366.81 142.15 366.29 142.15ZM375.5 142.15C374.23 142.15 373.25 141.72 372.56 140.86C371.88 140 371.54 138.73 371.54 137.05C371.54 135.37 371.88 134.1 372.56 133.24C373.25 132.38 374.23 131.95 375.5 131.95C376.77 131.95 377.745 132.38 378.425 133.24C379.115 134.1 379.46 135.37 379.46 137.05C379.46 138.73 379.115 140 378.425 140.86C377.745 141.72 376.77 142.15 375.5 142.15ZM375.5 140.485C375.93 140.485 376.28 140.365 376.55 140.125C376.83 139.875 377.04 139.5 377.18 139C377.32 138.49 377.39 137.84 377.39 137.05C377.39 136.26 377.32 135.615 377.18 135.115C377.04 134.605 376.83 134.23 376.55 133.99C376.28 133.74 375.93 133.615 375.5 133.615C375.07 133.615 374.715 133.74 374.435 133.99C374.155 134.23 373.945 134.605 373.805 135.115C373.675 135.615 373.61 136.26 373.61 137.05C373.61 137.84 373.675 138.49 373.805 139C373.945 139.5 374.155 139.875 374.435 140.125C374.715 140.365 375.07 140.485 375.5 140.485ZM382.922 142L389.597 132.1H391.247L384.572 142H382.922ZM383.417 131.95C383.957 131.95 384.422 132.065 384.812 132.295C385.212 132.525 385.517 132.85 385.727 133.27C385.947 133.69 386.057 134.18 386.057 134.74C386.057 135.3 385.947 135.79 385.727 136.21C385.517 136.62 385.212 136.945 384.812 137.185C384.422 137.415 383.957 137.53 383.417 137.53C382.887 137.53 382.422 137.415 382.022 137.185C381.622 136.945 381.312 136.62 381.092 136.21C380.882 135.79 380.777 135.3 380.777 134.74C380.777 134.18 380.882 133.69 381.092 133.27C381.312 132.85 381.622 132.525 382.022 132.295C382.422 132.065 382.887 131.95 383.417 131.95ZM383.417 133.375C383.197 133.375 383.007 133.43 382.847 133.54C382.687 133.64 382.567 133.795 382.487 134.005C382.407 134.205 382.367 134.45 382.367 134.74C382.367 135.02 382.407 135.265 382.487 135.475C382.567 135.675 382.687 135.83 382.847 135.94C383.007 136.04 383.197 136.09 383.417 136.09C383.647 136.09 383.837 136.04 383.987 135.94C384.147 135.83 384.267 135.675 384.347 135.475C384.427 135.265 384.467 135.02 384.467 134.74C384.467 134.45 384.427 134.205 384.347 134.005C384.267 133.795 384.147 133.64 383.987 133.54C383.837 133.43 383.647 133.375 383.417 133.375ZM390.737 136.57C391.267 136.57 391.727 136.69 392.117 136.93C392.517 137.16 392.827 137.485 393.047 137.905C393.267 138.315 393.377 138.8 393.377 139.36C393.377 139.92 393.267 140.41 393.047 140.83C392.827 141.25 392.517 141.575 392.117 141.805C391.727 142.035 391.267 142.15 390.737 142.15C390.207 142.15 389.742 142.035 389.342 141.805C388.942 141.575 388.632 141.25 388.412 140.83C388.202 140.41 388.097 139.92 388.097 139.36C388.097 138.8 388.202 138.315 388.412 137.905C388.632 137.485 388.942 137.16 389.342 136.93C389.742 136.69 390.207 136.57 390.737 136.57ZM390.737 138.01C390.507 138.01 390.312 138.065 390.152 138.175C390.002 138.275 389.887 138.425 389.807 138.625C389.727 138.825 389.687 139.07 389.687 139.36C389.687 139.64 389.727 139.885 389.807 140.095C389.887 140.305 390.002 140.465 390.152 140.575C390.312 140.675 390.507 140.725 390.737 140.725C390.967 140.725 391.157 140.675 391.307 140.575C391.467 140.465 391.587 140.305 391.667 140.095C391.747 139.885 391.787 139.64 391.787 139.36C391.787 139.07 391.747 138.825 391.667 138.625C391.587 138.425 391.467 138.275 391.307 138.175C391.157 138.065 390.967 138.01 390.737 138.01Z" fill="black"/>
<path d="M496.455 113.15C495.465 113.15 494.62 112.945 493.92 112.535C493.23 112.115 492.755 111.515 492.495 110.735L494.445 109.88C494.515 110.24 494.63 110.54 494.79 110.78C494.95 111.01 495.165 111.185 495.435 111.305C495.715 111.425 496.045 111.485 496.425 111.485C496.765 111.485 497.05 111.425 497.28 111.305C497.52 111.185 497.705 111.015 497.835 110.795C497.965 110.575 498.03 110.325 498.03 110.045C498.03 109.745 497.97 109.5 497.85 109.31C497.74 109.12 497.57 108.985 497.34 108.905C497.11 108.815 496.82 108.77 496.47 108.77C496.34 108.77 496.215 108.775 496.095 108.785C495.985 108.785 495.86 108.795 495.72 108.815V107.3C495.8 107.31 495.88 107.32 495.96 107.33C496.05 107.33 496.14 107.33 496.23 107.33C496.79 107.33 497.19 107.22 497.43 107C497.68 106.77 497.805 106.405 497.805 105.905C497.805 105.495 497.68 105.18 497.43 104.96C497.19 104.73 496.845 104.615 496.395 104.615C495.915 104.615 495.535 104.735 495.255 104.975C494.975 105.205 494.78 105.56 494.67 106.04L492.825 105.35C492.945 104.85 493.175 104.42 493.515 104.06C493.865 103.7 494.295 103.425 494.805 103.235C495.315 103.035 495.88 102.935 496.5 102.935C497.24 102.935 497.855 103.05 498.345 103.28C498.845 103.51 499.22 103.825 499.47 104.225C499.73 104.625 499.86 105.085 499.86 105.605C499.86 106.015 499.795 106.365 499.665 106.655C499.545 106.935 499.385 107.175 499.185 107.375C498.995 107.565 498.795 107.71 498.585 107.81C498.375 107.91 498.18 107.97 498 107.99V108.035C498.23 108.045 498.465 108.095 498.705 108.185C498.945 108.265 499.165 108.39 499.365 108.56C499.575 108.73 499.745 108.95 499.875 109.22C500.005 109.48 500.07 109.79 500.07 110.15C500.07 110.75 499.91 111.28 499.59 111.74C499.28 112.19 498.855 112.54 498.315 112.79C497.775 113.03 497.155 113.15 496.455 113.15ZM505.603 113.15C504.333 113.15 503.353 112.72 502.663 111.86C501.983 111 501.643 109.73 501.643 108.05C501.643 106.37 501.983 105.1 502.663 104.24C503.353 103.38 504.333 102.95 505.603 102.95C506.873 102.95 507.848 103.38 508.528 104.24C509.218 105.1 509.563 106.37 509.563 108.05C509.563 109.73 509.218 111 508.528 111.86C507.848 112.72 506.873 113.15 505.603 113.15ZM505.603 111.485C506.033 111.485 506.383 111.365 506.653 111.125C506.933 110.875 507.143 110.5 507.283 110C507.423 109.49 507.493 108.84 507.493 108.05C507.493 107.26 507.423 106.615 507.283 106.115C507.143 105.605 506.933 105.23 506.653 104.99C506.383 104.74 506.033 104.615 505.603 104.615C505.173 104.615 504.818 104.74 504.538 104.99C504.258 105.23 504.048 105.605 503.908 106.115C503.778 106.615 503.713 107.26 503.713 108.05C503.713 108.84 503.778 109.49 503.908 110C504.048 110.5 504.258 110.875 504.538 111.125C504.818 111.365 505.173 111.485 505.603 111.485ZM513.024 113L519.699 103.1H521.349L514.674 113H513.024ZM513.519 102.95C514.059 102.95 514.524 103.065 514.914 103.295C515.314 103.525 515.619 103.85 515.829 104.27C516.049 104.69 516.159 105.18 516.159 105.74C516.159 106.3 516.049 106.79 515.829 107.21C515.619 107.62 515.314 107.945 514.914 108.185C514.524 108.415 514.059 108.53 513.519 108.53C512.989 108.53 512.524 108.415 512.124 108.185C511.724 107.945 511.414 107.62 511.194 107.21C510.984 106.79 510.879 106.3 510.879 105.74C510.879 105.18 510.984 104.69 511.194 104.27C511.414 103.85 511.724 103.525 512.124 103.295C512.524 103.065 512.989 102.95 513.519 102.95ZM513.519 104.375C513.299 104.375 513.109 104.43 512.949 104.54C512.789 104.64 512.669 104.795 512.589 105.005C512.509 105.205 512.469 105.45 512.469 105.74C512.469 106.02 512.509 106.265 512.589 106.475C512.669 106.675 512.789 106.83 512.949 106.94C513.109 107.04 513.299 107.09 513.519 107.09C513.749 107.09 513.939 107.04 514.089 106.94C514.249 106.83 514.369 106.675 514.449 106.475C514.529 106.265 514.569 106.02 514.569 105.74C514.569 105.45 514.529 105.205 514.449 105.005C514.369 104.795 514.249 104.64 514.089 104.54C513.939 104.43 513.749 104.375 513.519 104.375ZM520.839 107.57C521.369 107.57 521.829 107.69 522.219 107.93C522.619 108.16 522.929 108.485 523.149 108.905C523.369 109.315 523.479 109.8 523.479 110.36C523.479 110.92 523.369 111.41 523.149 111.83C522.929 112.25 522.619 112.575 522.219 112.805C521.829 113.035 521.369 113.15 520.839 113.15C520.309 113.15 519.844 113.035 519.444 112.805C519.044 112.575 518.734 112.25 518.514 111.83C518.304 111.41 518.199 110.92 518.199 110.36C518.199 109.8 518.304 109.315 518.514 108.905C518.734 108.485 519.044 108.16 519.444 107.93C519.844 107.69 520.309 107.57 520.839 107.57ZM520.839 109.01C520.609 109.01 520.414 109.065 520.254 109.175C520.104 109.275 519.989 109.425 519.909 109.625C519.829 109.825 519.789 110.07 519.789 110.36C519.789 110.64 519.829 110.885 519.909 111.095C519.989 111.305 520.104 111.465 520.254 111.575C520.414 111.675 520.609 111.725 520.839 111.725C521.069 111.725 521.259 111.675 521.409 111.575C521.569 111.465 521.689 111.305 521.769 111.095C521.849 110.885 521.889 110.64 521.889 110.36C521.889 110.07 521.849 109.825 521.769 109.625C521.689 109.425 521.569 109.275 521.409 109.175C521.259 109.065 521.069 109.01 520.839 109.01Z" fill="black"/>
<path d="M497.955 221V214.73C497.955 214.5 497.955 214.265 497.955 214.025C497.965 213.775 497.975 213.52 497.985 213.26C497.645 213.57 497.265 213.84 496.845 214.07C496.425 214.3 495.995 214.46 495.555 214.55L495.285 212.81C495.515 212.79 495.77 212.725 496.05 212.615C496.34 212.495 496.63 212.355 496.92 212.195C497.22 212.025 497.49 211.85 497.73 211.67C497.98 211.48 498.17 211.29 498.3 211.1H499.98V221H497.955ZM506.01 221.15C504.74 221.15 503.76 220.72 503.07 219.86C502.39 219 502.05 217.73 502.05 216.05C502.05 214.37 502.39 213.1 503.07 212.24C503.76 211.38 504.74 210.95 506.01 210.95C507.28 210.95 508.255 211.38 508.935 212.24C509.625 213.1 509.97 214.37 509.97 216.05C509.97 217.73 509.625 219 508.935 219.86C508.255 220.72 507.28 221.15 506.01 221.15ZM506.01 219.485C506.44 219.485 506.79 219.365 507.06 219.125C507.34 218.875 507.55 218.5 507.69 218C507.83 217.49 507.9 216.84 507.9 216.05C507.9 215.26 507.83 214.615 507.69 214.115C507.55 213.605 507.34 213.23 507.06 212.99C506.79 212.74 506.44 212.615 506.01 212.615C505.58 212.615 505.225 212.74 504.945 212.99C504.665 213.23 504.455 213.605 504.315 214.115C504.185 214.615 504.12 215.26 504.12 216.05C504.12 216.84 504.185 217.49 504.315 218C504.455 218.5 504.665 218.875 504.945 219.125C505.225 219.365 505.58 219.485 506.01 219.485ZM513.431 221L520.106 211.1H521.756L515.081 221H513.431ZM513.926 210.95C514.466 210.95 514.931 211.065 515.321 211.295C515.721 211.525 516.026 211.85 516.236 212.27C516.456 212.69 516.566 213.18 516.566 213.74C516.566 214.3 516.456 214.79 516.236 215.21C516.026 215.62 515.721 215.945 515.321 216.185C514.931 216.415 514.466 216.53 513.926 216.53C513.396 216.53 512.931 216.415 512.531 216.185C512.131 215.945 511.821 215.62 511.601 215.21C511.391 214.79 511.286 214.3 511.286 213.74C511.286 213.18 511.391 212.69 511.601 212.27C511.821 211.85 512.131 211.525 512.531 211.295C512.931 211.065 513.396 210.95 513.926 210.95ZM513.926 212.375C513.706 212.375 513.516 212.43 513.356 212.54C513.196 212.64 513.076 212.795 512.996 213.005C512.916 213.205 512.876 213.45 512.876 213.74C512.876 214.02 512.916 214.265 512.996 214.475C513.076 214.675 513.196 214.83 513.356 214.94C513.516 215.04 513.706 215.09 513.926 215.09C514.156 215.09 514.346 215.04 514.496 214.94C514.656 214.83 514.776 214.675 514.856 214.475C514.936 214.265 514.976 214.02 514.976 213.74C514.976 213.45 514.936 213.205 514.856 213.005C514.776 212.795 514.656 212.64 514.496 212.54C514.346 212.43 514.156 212.375 513.926 212.375ZM521.246 215.57C521.776 215.57 522.236 215.69 522.626 215.93C523.026 216.16 523.336 216.485 523.556 216.905C523.776 217.315 523.886 217.8 523.886 218.36C523.886 218.92 523.776 219.41 523.556 219.83C523.336 220.25 523.026 220.575 522.626 220.805C522.236 221.035 521.776 221.15 521.246 221.15C520.716 221.15 520.251 221.035 519.851 220.805C519.451 220.575 519.141 220.25 518.921 219.83C518.711 219.41 518.606 218.92 518.606 218.36C518.606 217.8 518.711 217.315 518.921 216.905C519.141 216.485 519.451 216.16 519.851 215.93C520.251 215.69 520.716 215.57 521.246 215.57ZM521.246 217.01C521.016 217.01 520.821 217.065 520.661 217.175C520.511 217.275 520.396 217.425 520.316 217.625C520.236 217.825 520.196 218.07 520.196 218.36C520.196 218.64 520.236 218.885 520.316 219.095C520.396 219.305 520.511 219.465 520.661 219.575C520.821 219.675 521.016 219.725 521.246 219.725C521.476 219.725 521.666 219.675 521.816 219.575C521.976 219.465 522.096 219.305 522.176 219.095C522.256 218.885 522.296 218.64 522.296 218.36C522.296 218.07 522.256 217.825 522.176 217.625C522.096 217.425 521.976 217.275 521.816 217.175C521.666 217.065 521.476 217.01 521.246 217.01Z" fill="black"/>
<path d="M449.955 246V239.73C449.955 239.5 449.955 239.265 449.955 239.025C449.965 238.775 449.975 238.52 449.985 238.26C449.645 238.57 449.265 238.84 448.845 239.07C448.425 239.3 447.995 239.46 447.555 239.55L447.285 237.81C447.515 237.79 447.77 237.725 448.05 237.615C448.34 237.495 448.63 237.355 448.92 237.195C449.22 237.025 449.49 236.85 449.73 236.67C449.98 236.48 450.17 236.29 450.3 236.1H451.98V246H449.955ZM458.01 246.15C456.74 246.15 455.76 245.72 455.07 244.86C454.39 244 454.05 242.73 454.05 241.05C454.05 239.37 454.39 238.1 455.07 237.24C455.76 236.38 456.74 235.95 458.01 235.95C459.28 235.95 460.255 236.38 460.935 237.24C461.625 238.1 461.97 239.37 461.97 241.05C461.97 242.73 461.625 244 460.935 244.86C460.255 245.72 459.28 246.15 458.01 246.15ZM458.01 244.485C458.44 244.485 458.79 244.365 459.06 244.125C459.34 243.875 459.55 243.5 459.69 243C459.83 242.49 459.9 241.84 459.9 241.05C459.9 240.26 459.83 239.615 459.69 239.115C459.55 238.605 459.34 238.23 459.06 237.99C458.79 237.74 458.44 237.615 458.01 237.615C457.58 237.615 457.225 237.74 456.945 237.99C456.665 238.23 456.455 238.605 456.315 239.115C456.185 239.615 456.12 240.26 456.12 241.05C456.12 241.84 456.185 242.49 456.315 243C456.455 243.5 456.665 243.875 456.945 244.125C457.225 244.365 457.58 244.485 458.01 244.485ZM465.431 246L472.106 236.1H473.756L467.081 246H465.431ZM465.926 235.95C466.466 235.95 466.931 236.065 467.321 236.295C467.721 236.525 468.026 236.85 468.236 237.27C468.456 237.69 468.566 238.18 468.566 238.74C468.566 239.3 468.456 239.79 468.236 240.21C468.026 240.62 467.721 240.945 467.321 241.185C466.931 241.415 466.466 241.53 465.926 241.53C465.396 241.53 464.931 241.415 464.531 241.185C464.131 240.945 463.821 240.62 463.601 240.21C463.391 239.79 463.286 239.3 463.286 238.74C463.286 238.18 463.391 237.69 463.601 237.27C463.821 236.85 464.131 236.525 464.531 236.295C464.931 236.065 465.396 235.95 465.926 235.95ZM465.926 237.375C465.706 237.375 465.516 237.43 465.356 237.54C465.196 237.64 465.076 237.795 464.996 238.005C464.916 238.205 464.876 238.45 464.876 238.74C464.876 239.02 464.916 239.265 464.996 239.475C465.076 239.675 465.196 239.83 465.356 239.94C465.516 240.04 465.706 240.09 465.926 240.09C466.156 240.09 466.346 240.04 466.496 239.94C466.656 239.83 466.776 239.675 466.856 239.475C466.936 239.265 466.976 239.02 466.976 238.74C466.976 238.45 466.936 238.205 466.856 238.005C466.776 237.795 466.656 237.64 466.496 237.54C466.346 237.43 466.156 237.375 465.926 237.375ZM473.246 240.57C473.776 240.57 474.236 240.69 474.626 240.93C475.026 241.16 475.336 241.485 475.556 241.905C475.776 242.315 475.886 242.8 475.886 243.36C475.886 243.92 475.776 244.41 475.556 244.83C475.336 245.25 475.026 245.575 474.626 245.805C474.236 246.035 473.776 246.15 473.246 246.15C472.716 246.15 472.251 246.035 471.851 245.805C471.451 245.575 471.141 245.25 470.921 244.83C470.711 244.41 470.606 243.92 470.606 243.36C470.606 242.8 470.711 242.315 470.921 241.905C471.141 241.485 471.451 241.16 471.851 240.93C472.251 240.69 472.716 240.57 473.246 240.57ZM473.246 242.01C473.016 242.01 472.821 242.065 472.661 242.175C472.511 242.275 472.396 242.425 472.316 242.625C472.236 242.825 472.196 243.07 472.196 243.36C472.196 243.64 472.236 243.885 472.316 244.095C472.396 244.305 472.511 244.465 472.661 244.575C472.821 244.675 473.016 244.725 473.246 244.725C473.476 244.725 473.666 244.675 473.816 244.575C473.976 244.465 474.096 244.305 474.176 244.095C474.256 243.885 474.296 243.64 474.296 243.36C474.296 243.07 474.256 242.825 474.176 242.625C474.096 242.425 473.976 242.275 473.816 242.175C473.666 242.065 473.476 242.01 473.246 242.01Z" fill="black"/>
<path d="M91.5 105.5L92.5 104.5L106.5 65.5L88 41L54.5 56L74 112L78 109.5L88 105.5H91.5Z" fill="white"/>
</g>
<defs>
<filter id="filter0_d_541_1466" x="302" y="12" width="273" height="273" filterUnits="userSpaceOnUse" color-interpolation-filters="sRGB">
<feFlood flood-opacity="0" result="BackgroundImageFix"/>
<feColorMatrix in="SourceAlpha" type="matrix" values="0 0 0 0 0 0 0 0 0 0 0 0 0 0 0 0 0 0 127 0" result="hardAlpha"/>
<feOffset dy="4"/>
<feGaussianBlur stdDeviation="2"/>
<feComposite in2="hardAlpha" operator="out"/>
<feColorMatrix type="matrix" values="0 0 0 0 0 0 0 0 0 0 0 0 0 0 0 0 0 0 0.25 0"/>
<feBlend mode="normal" in2="BackgroundImageFix" result="effect1_dropShadow_541_1466"/>
<feBlend mode="normal" in="SourceGraphic" in2="effect1_dropShadow_541_1466" result="shape"/>
</filter>
<linearGradient id="paint0_linear_541_1466" x1="434" y1="310.225" x2="217.5" y2="310.225" gradientUnits="userSpaceOnUse">
<stop offset="0.457715" stop-color="white"/>
<stop offset="0.733534" stop-color="white" stop-opacity="0"/>
</linearGradient>
<clipPath id="clip0_541_1466">
<rect width="591" height="412" fill="white"/>
</clipPath>
</defs>
</svg>
